<?xml version="1.0" encoding="utf-8"?>
<!-- Generator: Adobe Illustrator 24.0.2, SVG Export Plug-In . SVG Version: 6.00 Build 0)  -->
<svg version="1.1" id="Capa_1" xmlns="http://www.w3.org/2000/svg" xmlns:xlink="http://www.w3.org/1999/xlink" x="0px" y="0px"
	 viewBox="0 0 496 496" style="enable-background:new 0 0 496 496;" xml:space="preserve">
<style type="text/css">
	.st0{fill:#FFFFFF;}
</style>
<g>
	<g>
		<g>
			<path class="st0" d="M248,0C111,0,0,111,0,248s111,248,248,248s248-111,248-248C495.8,111.1,384.9,0.2,248,0z M248,480
				C119.9,480,16,376.1,16,248S119.9,16,248,16s232,103.9,232,232C479.9,376.1,376.1,479.9,248,480z"/>
			<path class="st0" d="M361.1,134.9c-3.1-3.1-8.2-3.1-11.3,0L248,236.7L146.2,134.9c-3.1-3.2-8.1-3.3-11.3-0.2s-3.3,8.1-0.2,11.3
				c0.1,0.1,0.1,0.1,0.2,0.2L236.7,248L134.9,349.8c-3.2,3.1-3.3,8.1-0.2,11.3s8.1,3.3,11.3,0.2c0.1-0.1,0.1-0.1,0.2-0.2L248,259.3
				l101.8,101.8c3.2,3.1,8.2,3,11.3-0.2c3-3.1,3-8,0-11.1L259.3,248l101.8-101.8C364.3,143.1,364.3,138,361.1,134.9z"/>
		</g>
	</g>
</g>
</svg>
