<?xml version="1.0" encoding="utf-8"?>
<!-- Generator: Adobe Illustrator 24.0.2, SVG Export Plug-In . SVG Version: 6.00 Build 0)  -->
<svg version="1.1" id="Слой_1" xmlns="http://www.w3.org/2000/svg" xmlns:xlink="http://www.w3.org/1999/xlink" x="0px" y="0px"
	 viewBox="0 0 75 75" style="enable-background:new 0 0 75 75;" xml:space="preserve">
<style type="text/css">
	.st0{fill:#FFFFFF;}
</style>
<g>
	<path class="st0" d="M14.3,59.9c-0.3,0-0.5,0.1-0.7,0.3c-0.2,0.2-0.3,0.5-0.3,0.7s0.1,0.5,0.3,0.7s0.5,0.3,0.7,0.3
		c0.3,0,0.5-0.1,0.7-0.3c0.2-0.2,0.3-0.5,0.3-0.7s-0.1-0.5-0.3-0.7C14.9,60,14.6,59.9,14.3,59.9z"/>
	<path class="st0" d="M71.7,49l-8.2,8.2c-0.7-0.4-1.4-0.6-2.3-0.6c-0.9,0-1.7,0.2-2.4,0.7c0-0.1-0.1-0.3-0.2-0.4L47.5,45.6
		c-0.1,0-0.1-0.1-0.2-0.1l0.7-12.7c0.2,0,0.4-0.1,0.5-0.3l14.5-14.6c0.1-0.1,0.1-0.1,0.1-0.2c0.1,0,0.2-0.1,0.3-0.2l8.2,8.2
		c0.2,0.2,0.5,0.3,0.7,0.3c0.3,0,0.5-0.1,0.7-0.3c0.4-0.4,0.4-1.1,0-1.5L65,16.1c0.4-0.7,0.6-1.5,0.6-2.3c0-2.4-2-4.4-4.4-4.4
		c-0.8,0-1.6,0.2-2.3,0.6l-8.2-8.2c-0.4-0.4-1.1-0.4-1.5,0c-0.4,0.4-0.4,1.1,0,1.5l8.2,8.2c-0.4,0.7-0.6,1.5-0.6,2.3
		c0,0.2,0,0.4,0,0.5l-10.5,7.4c-0.3-0.4-0.6-0.8-0.9-1.2c-2-2.1-4.7-3.3-7.7-3.3c-2.9,0-5.7,1.2-7.7,3.3c-0.3,0.4-0.7,0.8-0.9,1.2
		l-10.5-7.4c0-0.2,0-0.4,0-0.5c0-0.8-0.2-1.6-0.6-2.3l8.2-8.2c0.4-0.4,0.4-1.1,0-1.5s-1.1-0.4-1.5,0L16.6,10
		c-0.7-0.4-1.4-0.6-2.3-0.6c-2.4,0-4.4,2-4.4,4.4c0,0.8,0.2,1.6,0.6,2.3l-8.2,8.2c-0.4,0.4-0.4,1.1,0,1.5c0.2,0.2,0.5,0.3,0.7,0.3
		c0.3,0,0.5-0.1,0.7-0.3l8.2-8.2c0.1,0.1,0.2,0.1,0.3,0.2c0,0.1,0.1,0.1,0.1,0.2L27,32.5c0.2,0.2,0.3,0.2,0.5,0.3l0.7,12.7
		c-0.1,0-0.1,0.1-0.2,0.1L16.9,56.9c-0.1,0.1-0.2,0.2-0.2,0.4c-0.7-0.4-1.5-0.7-2.4-0.7c-0.8,0-1.6,0.2-2.3,0.6L3.8,49
		c-0.4-0.4-1.1-0.4-1.5,0c-0.4,0.4-0.4,1.1,0,1.5l8.2,8.2c-0.4,0.7-0.6,1.5-0.6,2.3c0,2.4,2,4.4,4.4,4.4c0.8,0,1.6-0.2,2.3-0.6
		l8.2,8.2c0.2,0.2,0.5,0.3,0.7,0.3c0.3,0,0.5-0.1,0.7-0.3c0.4-0.4,0.4-1.1,0-1.5l-7.9-8l12.8-6.9c0.9,0.6,2,1,3.1,1h7.2
		c1.2,0,2.2-0.4,3.1-1l12.8,6.9l-7.9,8c-0.4,0.4-0.4,1.1,0,1.5c0.2,0.2,0.5,0.3,0.7,0.3c0.3,0,0.5-0.1,0.7-0.3l8.2-8.2
		c0.7,0.4,1.4,0.6,2.3,0.6c2.4,0,4.4-2,4.4-4.4c0-0.8-0.2-1.6-0.6-2.3l8.2-8.2c0.4-0.4,0.4-1.1,0-1.5C72.8,48.6,72.1,48.6,71.7,49z
		 M57.2,58.3c0.1,0.1,0.2,0.2,0.4,0.2c-0.4,0.7-0.7,1.4-0.7,2.3L46.1,55c0.5-0.8,0.8-1.7,0.9-2.7l0.2-4L57.2,58.3z M61.3,11.5
		c1.3,0,2.3,1,2.3,2.3s-1,2.3-2.3,2.3c-1.3,0-2.3-1-2.3-2.3S60,11.5,61.3,11.5z M57.7,16.3c0.6,0.8,1.4,1.4,2.3,1.7L48.3,29.9
		l0.1-1.5c0.1-1.7-0.2-3.4-0.9-4.9L57.7,16.3z M31.7,22c0.2-0.2,0.4-0.4,0.6-0.6v2.5c0,0.6,0.5,1.1,1,1.1s1-0.5,1-1.1v-3.4
		c0-0.2,0-0.3-0.1-0.4c1.1-0.5,2.3-0.8,3.5-0.8c1.2,0,2.4,0.3,3.5,0.8c-0.1,0.1-0.1,0.3-0.1,0.4v3.4c0,0.6,0.5,1.1,1,1.1
		s1-0.5,1-1.1v-2.5c0.2,0.2,0.4,0.4,0.6,0.6c1.6,1.7,2.4,4,2.3,6.3l-1.4,23.9c-0.1,1.1-0.7,2.1-1.5,2.7V28.4c0-0.6-0.5-1.1-1-1.1
		s-1,0.5-1,1.1v27c0,0,0,0,0,0.1h-6.9c0,0,0,0,0-0.1v-27c0-0.6-0.5-1.1-1-1.1c-0.6,0-1,0.5-1,1.1v26.4c-0.9-0.6-1.4-1.5-1.5-2.7
		l-1.4-23.9C29.3,26,30.1,23.7,31.7,22z M14.3,11.5c1.3,0,2.3,1,2.3,2.3s-1,2.3-2.3,2.3s-2.3-1-2.3-2.3S13.1,11.5,14.3,11.5z
		 M15.6,18c1-0.3,1.8-0.9,2.3-1.7l10.2,7.2c-0.7,1.5-1,3.2-0.9,4.9l0.1,1.5L15.6,18z M28.5,48.3l0.2,4c0.1,1,0.4,1.9,0.9,2.7
		l-10.8,5.9c0-0.8-0.3-1.6-0.7-2.3c0.1,0,0.3-0.1,0.4-0.2L28.5,48.3z M14.3,63.3c-1.3,0-2.3-1-2.3-2.3c0-1.3,1-2.3,2.3-2.3
		s2.3,1,2.3,2.3C16.6,62.2,15.6,63.3,14.3,63.3z M61.3,63.3c-1.3,0-2.3-1-2.3-2.3c0-1.3,1-2.3,2.3-2.3c1.3,0,2.3,1,2.3,2.3
		C63.6,62.2,62.6,63.3,61.3,63.3z"/>
	<path class="st0" d="M61.3,59.9c-0.3,0-0.5,0.1-0.7,0.3c-0.2,0.2-0.3,0.5-0.3,0.7s0.1,0.5,0.3,0.7c0.2,0.2,0.5,0.3,0.7,0.3
		s0.5-0.1,0.7-0.3c0.2-0.2,0.3-0.5,0.3-0.7s-0.1-0.5-0.3-0.7C61.9,60,61.6,59.9,61.3,59.9z"/>
	<path class="st0" d="M61.3,14.8c0.3,0,0.5-0.1,0.7-0.3c0.2-0.2,0.3-0.5,0.3-0.7S62.2,13.2,62,13c-0.2-0.2-0.5-0.3-0.7-0.3
		s-0.5,0.1-0.7,0.3c-0.2,0.2-0.3,0.5-0.3,0.7s0.1,0.5,0.3,0.7C60.8,14.7,61,14.8,61.3,14.8z"/>
	<path class="st0" d="M14.3,14.8c0.3,0,0.5-0.1,0.7-0.3c0.2-0.2,0.3-0.5,0.3-0.7s-0.1-0.5-0.3-0.7s-0.5-0.3-0.7-0.3
		c-0.3,0-0.5,0.1-0.7,0.3c-0.2,0.2-0.3,0.5-0.3,0.7s0.1,0.5,0.3,0.7C13.8,14.7,14.1,14.8,14.3,14.8z"/>
	<path class="st0" d="M37.8,53c0.6,0,1-0.5,1-1.1v-3.4c0-0.6-0.5-1.1-1-1.1c-0.6,0-1,0.5-1,1.1V52C36.8,52.6,37.2,53,37.8,53z"/>
</g>
</svg>
