<?xml version="1.0" encoding="utf-8"?>
<!-- Generator: Adobe Illustrator 24.0.2, SVG Export Plug-In . SVG Version: 6.00 Build 0)  -->
<svg version="1.1" id="Capa_1" xmlns="http://www.w3.org/2000/svg" xmlns:xlink="http://www.w3.org/1999/xlink" x="0px" y="0px"
	 viewBox="0 0 311.5 311.5" style="enable-background:new 0 0 311.5 311.5;" xml:space="preserve">
<style type="text/css">
	.st0{fill:#FFFFFF;}
</style>
<g>
	<path class="st0" d="M214.6,135.8H96.9c-11,0-20,9-20,20s9,20,20,20h117.7c11,0,20-9,20-20S225.6,135.8,214.6,135.8z"/>
	<path class="st0" d="M155.8,0C69.7,0,0,69.7,0,155.8s69.7,155.8,155.8,155.8s155.8-69.7,155.8-155.8S241.8,0,155.8,0z M155.8,271.5
		c-64,0-115.8-51.8-115.8-115.8C40,91.8,91.8,40,155.8,40c64,0,115.8,51.8,115.8,115.8C271.5,219.8,219.8,271.5,155.8,271.5z"/>
</g>
</svg>
