<?xml version="1.0" encoding="utf-8"?>
<!-- Generator: Adobe Illustrator 24.0.2, SVG Export Plug-In . SVG Version: 6.00 Build 0)  -->
<svg version="1.1" id="Слой_1" xmlns="http://www.w3.org/2000/svg" xmlns:xlink="http://www.w3.org/1999/xlink" x="0px" y="0px"
	 viewBox="0 0 480 480" style="enable-background:new 0 0 480 480;" xml:space="preserve">
<style type="text/css">
	.st0{fill:#FFFFFF;}
</style>
<path class="st0" d="M400,345.9l-20.4-12.2c-6.2-3.7-13.3-5.7-20.6-5.7h-30.7c-6.3,0-12.5,0.8-18.6,2.4l-92.4,24.8
	c-10.1,2.8-18.2,10.3-21.8,20.2l-81.3-44c-6.6-3.8-14.3-5-21.8-3.6c-2.8,0.5-5.5,1.4-8.1,2.7c-5.8,2.8-10.6,7.2-13.7,12.8
	c-2.8,4.8-4.2,10.3-4.2,15.9c-0.1,11.4,6,22,15.8,27.7L228,474c6.3,3.9,13.6,6,21.1,6h112.7c5,0,10-0.9,14.7-2.8l23.5-9.3V480h80
	V320h-80V345.9z M370.6,462.3c-2.8,1.1-5.8,1.7-8.8,1.7H249.1c-4.5,0-8.9-1.3-12.7-3.7L90.5,373.1c-5-2.9-8-8.2-8-13.9
	c0-2.8,0.8-5.6,2.1-8c1.6-2.8,4-5,6.9-6.3c1.3-0.6,2.6-1.1,4-1.3c1-0.2,2-0.3,3.1-0.3c2.8,0,5.5,0.7,7.8,2.1l88.1,47.6
	c0.1,0.5,0.1,1,0.2,1.5c3.8,14,16.5,23.7,30.9,23.7c4.5-0.4,8.9-1.2,13.2-2.4l83.1-22.2l-4.1-15.5l-82.8,22.1
	c-3.6,0.8-8.4,1.8-9.3,1.9c-7.2,0-13.6-4.8-15.5-11.8c-0.3-1-0.4-2-0.5-3c0,0-0.1-1.9,0-2.6c0.6-6.7,5.3-12.3,11.8-14.1l92.4-24.7
	c4.7-1.3,9.6-1.9,14.5-1.9h30.7c4.3,0,8.6,1.2,12.3,3.4l28.6,17.1v86.2L370.6,462.3z M416,336h48v128h-48V336z"/>
<path class="st0" d="M330,64L287,21.1C273.6,7.5,255.2-0.1,236.1,0H135.6c-6.2,0-12.3,1.5-17.9,4.2l-17.9,9
	c-3.6,1.8-7.6,2.7-11.6,2.5L80,15.4V0H0v176h80v-24h13.6l4.8,3.2c13.5,9,29.3,14.1,45.6,14.7V272h336V64H330z M64,160H16V16h48V160z
	 M107.3,141.9l-8.9-5.9H80V31.4l7.5,0.3c6.7,0.2,13.3-1.2,19.3-4.2l17.9-9c3.3-1.7,7-2.5,10.8-2.5h100.6c14.9,0,29.1,5.9,39.6,16.4
	L307.3,64h-66l-19.4-19.4l-11.3,11.3l56.5,56.5c6.3,6.3,6.3,16.4,0,22.7c-6.3,6.3-16.4,6.3-22.7,0l-47.2-47.2l-5.6,4.8
	c-15.5,13.1-38.1,13.5-53.9,0.8l-4.6-3.8L123,102.2l4.7,3.8c4.9,3.9,10.4,7,16.3,9.2v38.7C130.9,153.3,118.2,149.1,107.3,141.9z
	 M221.1,134.4l12.1,12.1c12.5,12.3,32.6,12.4,45.2,0c-11.7,18.2-7.1,42.4,10.5,54.9s42,9,55.4-8c13.3-17,10.9-41.6-5.5-55.7
	c-16.4-14.1-41-12.8-55.9,2.9c5.5-8.6,6.4-19.3,2.6-28.7h107.1c3.4,20.1,19.2,35.9,39.3,39.3v33.3c-20.1,3.4-35.9,19.2-39.3,39.3
	H231.3c-3.4-20.1-19.2-35.9-39.3-39.3v-33.3C203.4,149.4,213.8,143.4,221.1,134.4z M288,168c0-13.3,10.7-24,24-24s24,10.7,24,24
	s-10.7,24-24,24S288,181.3,288,168z M464,256H160V118.6c12.7,1,25.3-2.3,36-9.2l13.6,13.6c-6,8.2-15.5,13-25.6,13h-8v64h8
	c17.7,0,32,14.3,32,32v8h192v-8c0-17.7,14.3-32,32-32h8v-64h-8c-17.7,0-32-14.3-32-32v-8H273.3l-16-16H464V256z"/>
</svg>
