<?xml version="1.0" encoding="utf-8"?>
<!-- Generator: Adobe Illustrator 24.0.2, SVG Export Plug-In . SVG Version: 6.00 Build 0)  -->
<svg version="1.1" id="Capa_1" xmlns="http://www.w3.org/2000/svg" xmlns:xlink="http://www.w3.org/1999/xlink" x="0px" y="0px"
	 viewBox="0 0 35.8 35.8" style="enable-background:new 0 0 35.8 35.8;" xml:space="preserve">
<style type="text/css">
	.st0{fill:#FFFFFF;}
</style>
<g>
	<path class="st0" d="M13.1,19.4c-1.9,1.3-0.3,2.4,0.4,2.4s0.9-1.5,0.9-2.1C14.3,19.1,13.5,19.1,13.1,19.4z M16.9,20.8
		c-0.7,0.1-1.6,0-2.2,2.2s0.9,3.3,1.8,3.2s2.6-1.2,2.8-2.1s-0.2-2.3-0.4-2.8S17.8,20.7,16.9,20.8z M17.1,24.8
		c-0.5,0-0.4-0.1-1.1-0.6c-0.3-0.3-0.1-1.3,0.3-1.1s0.6,0.3,1.2,0.1s0.9-0.4,0.9,0.2C18.4,23.9,17.6,24.8,17.1,24.8z M19.2,11
		c0.9,0.1,1-0.4,1.3-0.9S20,8.7,19.1,9.4C18.4,9.9,18.3,10.9,19.2,11z M15.8,16.9c1.5-0.7,2.1-1.8,2.2-2.6s-0.1-1.6-0.9-2.1
		s-1.5-0.7-2.1-0.7c-1,0-2.1,0.8-3.2,2.1s-0.4,3,0.4,3.4S14.3,17.5,15.8,16.9z M12.6,14.7c0.4-0.6,1.9-1.6,1.9-1.6
		c0.5,0,1.4,0.1,1.9,0.3s0.6,1.3-0.3,2c-0.9,0.7-1.9,0.9-2.7,0.7S12.2,15.3,12.6,14.7z M20.3,16.5c-0.4-0.4-1-0.1-1.5,0.4
		c-1.4,1.3-0.1,2.2,0.4,2.2s0.8-0.9,0.9-1.1s0.3-0.2,0.8-0.6C21.3,17,20.7,16.9,20.3,16.5z M27.8,9.9c-0.4-0.1-0.8-0.5-1.2-0.2
		c0,0-0.4,0.6-0.1,0.9c0.3,0.3,0.7,0.4,1.4,0.1S28.3,10,27.8,9.9z M33.6,3.4c-1.1-0.9-4.1-1.8-7-2.4S20.9,0.3,19,0.2
		c-1.9-0.1-9,0-12.1,0.3S0.8,2.5,0.1,6S3.9,11,3.9,11c0.9,0.9,5,10.1,7.3,15.3s4.3,9.2,4.7,9.3s1.1-0.2,1.8-1.8s3.3-7.1,6.1-11.4
		s7.4-12,7.4-12s0.3,0.4,1.3,0.5s3.3-1.6,3.3-3.1S34.7,4.3,33.6,3.4z M28.3,12.3c-0.9,1.6-3.7,6.1-5.3,8.9s-4.4,7.1-4.4,7.1
		s-0.4-0.3-0.6-0.9s-1.3-0.3-2.1,0.5s0.4,2.1,0.9,2.1s0.7-0.5,0.9-0.2s-0.9,3-1.3,3.3s-0.9-1.4-3.1-5.8S6.3,12,5.9,11.2
		c-0.4-0.8,0.1-1.7,0.8-2S9.2,9,9.2,9c-0.9,0-1.8,1.3-1.6,2.7c0.2,1.4,2.3,2.1,3.4,1.3s1.4-2.4,1.4-2.4c0.9,0.6,2.7,0.1,3.5-0.6
		c0.8-0.6,1.9-1.8,3.7-1.6s2.3,1.8,3,2.2c0.7,0.4,2.2-0.5,3.4-1.3s2.5-0.6,3.4-0.3S29.2,10.7,28.3,12.3z M9.7,10.4
		c0.4-0.4,0.5,0.4,0.9,0.6s0.4,0.6-0.1,0.8S8.4,11.7,9.7,10.4z M32.6,9c-0.8-0.4-2.6-1.9-3.6-2.1c-1.1-0.2-3.3,0.6-3.9,1
		c-0.7,0.4-1.3,0.8-1.8,0.6s-1.2-2.3-4.6-2.3c-0.6,0-2,0.7-2.7,1.4s-1.4,1.5-2.2,1.4s-2.8-2-5.4-1.9S4.7,9.2,4,9.1S1.2,7.6,1.8,5.8
		s2.1-3.7,6.8-3.6s12-0.3,13.8-0.1s4.7,0.7,7.4,1.8s4.5,2.4,4.4,3.8C34.1,8.9,33.4,9.4,32.6,9z M22.7,11.5c-0.8,0.6-1.9,2.3-1.9,2.3
		c-0.2,0.2-0.9,0.7-0.2,2s1.9,1.3,3.1,0.6s2.1-1.3,2.2-2.3s-0.3-2-0.7-2.6S23.5,10.9,22.7,11.5z M24.4,14.2
		c-0.7,0.8-1.4,1.4-1.9,1.4s-0.8-0.9-0.2-1.9c0.4-0.6,1.2-0.9,1.8-0.9S25.1,13.4,24.4,14.2z"/>
</g>
</svg>
