<?xml version="1.0" encoding="utf-8"?>
<!-- Generator: Adobe Illustrator 24.0.2, SVG Export Plug-In . SVG Version: 6.00 Build 0)  -->
<svg version="1.1" id="Capa_1" xmlns="http://www.w3.org/2000/svg" xmlns:xlink="http://www.w3.org/1999/xlink" x="0px" y="0px"
	 viewBox="0 0 512 512" style="enable-background:new 0 0 512 512;" xml:space="preserve">
<style type="text/css">
	.st0{fill:#FFFFFF;}
</style>
<g>
	<g>
		<path class="st0" d="M503.1,79.8c-7.3-8.9-18.1-13.9-29.7-13.9H176.4c-6.1,0-11,4.9-11,11s4.9,11,11,11h297.1
			c5,0,9.5,2.1,12.7,5.9c3.2,3.9,4.5,9,3.5,14l-44.1,220.3c-1.7,7.9-8.4,13.4-16.2,13.4h-245L83.2,36.9
			c-5.5-15.6-20.3-26.1-37.2-26.1c0,0,0,0,0,0c-14.4,0.5-29,0.5-32.5,0.2C9.8,10.2,6,11.2,3.2,14c-4.3,4.3-4.3,11.3,0,15.6
			c3.4,3.4,4.6,4.6,43.1,3.2c7.2,0,13.7,4.6,16,11.2l103.6,312c1.5,4.5,5.7,7.5,10.5,7.5h253c18.3,0,33.8-12.6,37.8-30.9L511.3,112
			C513.5,100.5,510.5,88.8,503.1,79.8z"/>
	</g>
</g>
<g>
	<g>
		<path class="st0" d="M424.4,424.1H223.8c-6.8,0-13.2-4.7-15.5-11.2l-21.5-63.9c-1.9-5.8-8.2-8.9-14-6.9c-5.8,1.9-8.9,8.2-6.9,14
			l21.5,64.1c5.5,15.6,20.1,26.1,36.3,26.1h200.6c6.1,0,11-4.9,11-11S430.5,424.1,424.4,424.1z"/>
	</g>
</g>
<g>
	<g>
		<path class="st0" d="M231.5,424.1c-21.3,0-38.6,17.3-38.6,38.6s17.3,38.6,38.6,38.6s38.6-17.3,38.6-38.6S252.8,424.1,231.5,424.1z
			 M231.5,479.2c-9.1,0-16.5-7.4-16.5-16.5s7.4-16.5,16.5-16.5s16.5,7.4,16.5,16.5C248,471.8,240.6,479.2,231.5,479.2z"/>
	</g>
</g>
<g>
	<g>
		<path class="st0" d="M424.4,424.1c-21.3,0-38.6,17.3-38.6,38.6s17.3,38.6,38.6,38.6c21.3,0,38.6-17.3,38.6-38.6
			S445.7,424.1,424.4,424.1z M424.4,479.2c-9.1,0-16.5-7.4-16.5-16.5s7.4-16.5,16.5-16.5s16.5,7.4,16.5,16.5
			C440.9,471.8,433.5,479.2,424.4,479.2z"/>
	</g>
</g>
</svg>
