<?xml version="1.0" standalone="no"?>
<!DOCTYPE svg PUBLIC "-//W3C//DTD SVG 1.1//EN" "http://www.w3.org/Graphics/SVG/1.1/DTD/svg11.dtd" >
<svg xmlns="http://www.w3.org/2000/svg" xmlns:xlink="http://www.w3.org/1999/xlink" version="1.1">
<metadata>
Created by FontForge 20170924 at Wed Dec  6 23:15:25 2006
 By www-data
Copyright (c) JT Types Ltd, 2006. All rights reserved.
</metadata>
<defs>
<font id="BlissPro-ExtraLight" horiz-adv-x="360" >
  <font-face 
    font-family="Bliss Pro ExtraLight"
    font-weight="200"
    font-stretch="normal"
    units-per-em="1000"
    panose-1="2 0 5 6 4 0 0 2 0 4"
    ascent="800"
    descent="-200"
    x-height="473"
    cap-height="659"
    bbox="-180 -241 1085 953"
    underline-thickness="50"
    underline-position="-100"
    stemh="46"
    stemv="56"
    unicode-range="U+0020-FB02"
  />
<missing-glyph horiz-adv-x="550" 
d="M50 0v659h450v-659h-450zM101 48h348v563h-348v-563zM231 222c-20 20 -29 38 -29 60c0 76 130 98 130 172c0 29 -23 47 -55 47c-31 0 -58 -15 -85 -39l-27 35c29 30 70 51 117 51c65 0 106 -38 106 -91c0 -91 -132 -129 -132 -172c0 -16 9 -26 17 -35zM255 107
c-22 0 -38 17 -38 39c0 23 16 40 38 40c21 0 37 -17 37 -40c0 -22 -16 -39 -37 -39z" />
    <glyph glyph-name="fi" unicode="fi" horiz-adv-x="501" 
d="M101 0v427h-59v46h59v90c0 119 74 145 126 145c19 0 43 -4 61 -12l-12 -45c-14 6 -30 10 -49 10c-51 0 -73 -34 -73 -94v-94h118l-18 -46h-100v-427h-53zM365 0v473h53v-473h-53zM391 593c-23 0 -38 17 -38 40s15 40 38 40c24 0 39 -17 39 -40c0 -24 -16 -40 -39 -40z
" />
    <glyph glyph-name="fl" unicode="fl" horiz-adv-x="505" 
d="M101 0v427h-59v46h59v90c0 119 74 145 126 145c19 0 43 -4 61 -12l-12 -45c-14 6 -30 10 -49 10c-51 0 -73 -34 -73 -94v-94h118l-18 -46h-100v-427h-53zM355 77v631h53v-612c0 -41 11 -53 37 -53c9 0 23 4 29 7l12 -43c-15 -7 -36 -12 -56 -12c-51 0 -75 32 -75 82z" />
    <glyph glyph-name=".notdef" horiz-adv-x="550" 
d="M50 0v659h450v-659h-450zM101 48h348v563h-348v-563zM231 222c-20 20 -29 38 -29 60c0 76 130 98 130 172c0 29 -23 47 -55 47c-31 0 -58 -15 -85 -39l-27 35c29 30 70 51 117 51c65 0 106 -38 106 -91c0 -91 -132 -129 -132 -172c0 -16 9 -26 17 -35zM255 107
c-22 0 -38 17 -38 39c0 23 16 40 38 40c21 0 37 -17 37 -40c0 -22 -16 -39 -37 -39z" />
    <glyph glyph-name="space" unicode=" " horiz-adv-x="230" 
 />
    <glyph glyph-name="breve" unicode="&#x2d8;" horiz-adv-x="350" 
d="M250 660h41c-5 -69 -48 -114 -118 -114s-109 45 -114 114h41c7 -41 28 -71 75 -71s68 30 75 71z" />
    <glyph glyph-name="dotaccent" unicode="&#x2d9;" horiz-adv-x="350" 
d="M174 593c-23 0 -38 17 -38 40s15 40 38 40c24 0 39 -17 39 -40c0 -24 -16 -40 -39 -40z" />
    <glyph glyph-name="ring" unicode="&#x2da;" horiz-adv-x="350" 
d="M175 524c-56 0 -97 37 -97 94s41 94 97 94s97 -37 97 -94s-41 -94 -97 -94zM175 560c32 0 53 23 53 58s-21 58 -53 58s-53 -23 -53 -58s21 -58 53 -58z" />
    <glyph glyph-name="hungarumlaut" unicode="&#x2dd;" horiz-adv-x="350" 
d="M86 531l58 147h67l-81 -147h-44zM241 531l58 147h67l-81 -147h-44z" />
    <glyph glyph-name="ogonek" unicode="&#x2db;" horiz-adv-x="350" 
d="M223 -162l9 -40c-20 -7 -38 -10 -54 -10c-56 0 -84 38 -84 78c0 77 70 121 108 147l53 -13c-60 -32 -111 -75 -111 -126c0 -26 13 -44 40 -44c11 0 24 3 39 8z" />
    <glyph glyph-name="caron" unicode="&#x2c7;" horiz-adv-x="350" 
d="M146 532l-98 147h51l77 -109l76 109h49l-98 -147h-57z" />
    <glyph glyph-name="dotlessi" unicode="&#x131;" horiz-adv-x="219" 
d="M83 0v473h53v-473h-53z" />
    <glyph glyph-name="fraction" unicode="&#x2044;" horiz-adv-x="102" 
d="M-180 0l410 659h52l-410 -659h-52z" />
    <glyph glyph-name="Lslash" unicode="&#x141;" horiz-adv-x="417" 
d="M30 221v52l59 35v351h53v-320l169 101v-51l-169 -101v-242h250v-46h-303v256z" />
    <glyph glyph-name="lslash" unicode="&#x142;" horiz-adv-x="253" 
d="M35 261v52l58 34v361h53v-329l69 41v-52l-69 -41v-229c0 -41 11 -53 37 -53c9 0 23 4 29 7l12 -45c-15 -7 -36 -12 -56 -12c-51 0 -75 32 -75 82v218z" />
    <glyph glyph-name="Zcaron" unicode="&#x17d;" horiz-adv-x="535" 
d="M60 0l333 613h-320l-16 46h418l-332 -613h355v-46h-438zM245 696l-98 147h51l77 -109l76 109h49l-98 -147h-57z" />
    <glyph glyph-name="zcaron" unicode="&#x17e;" horiz-adv-x="368" 
d="M24 0l249 427h-222l-13 46h317l-247 -427h245v-46h-329zM165 532l-98 147h51l77 -109l76 109h49l-98 -147h-57z" />
    <glyph glyph-name="exclam" unicode="!" horiz-adv-x="266" 
d="M121 167c-15 127 -14 191 -14 440v52h53v-53c0 -249 0 -312 -15 -439h-24zM133 -7c-22 0 -39 19 -39 41s17 41 39 41s39 -19 39 -41s-17 -41 -39 -41z" />
    <glyph glyph-name="quotedbl" unicode="&#x22;" horiz-adv-x="316" 
d="M77 495l-11 213h57l-9 -213h-37zM206 495l-11 213h57l-9 -213h-37z" />
    <glyph glyph-name="numbersign" unicode="#" horiz-adv-x="648" 
d="M133 0l38 185h-131v48h141l40 192h-129v48h139l38 185h52l-38 -185h139l38 185h52l-38 -185h131v-48h-141l-40 -192h129v-48h-139l-38 -185h-52l38 185h-139l-38 -185h-52zM233 233h139l40 192h-139z" />
    <glyph glyph-name="dollar" unicode="$" horiz-adv-x="513" 
d="M223 -78v96c-68 3 -112 24 -142 43l23 42c27 -18 73 -38 131 -38c57 0 130 25 130 103c0 158 -272 151 -272 330c0 73 51 139 143 148v92h49v-91c46 -4 88 -16 110 -26v-49c-31 16 -81 29 -126 29c-67 0 -121 -31 -121 -101c0 -144 272 -143 272 -329
c0 -81 -53 -136 -148 -152v-97h-49z" />
    <glyph glyph-name="percent" unicode="%" horiz-adv-x="800" 
d="M203 320c-78 0 -143 59 -143 172s65 172 143 172s143 -59 143 -172s-65 -172 -143 -172zM203 363c59 0 94 52 94 129s-35 129 -94 129s-94 -52 -94 -129s35 -129 94 -129zM597 -10c-78 0 -143 59 -143 172s65 172 143 172s143 -59 143 -172s-65 -172 -143 -172zM597 33
c59 0 94 52 94 129s-35 129 -94 129s-94 -52 -94 -129s35 -129 94 -129zM169 0l410 659h52l-410 -659h-52z" />
    <glyph glyph-name="ampersand" unicode="&#x26;" horiz-adv-x="694" 
d="M473 82c-66 -56 -144 -92 -228 -92c-123 0 -185 88 -185 179s45 153 149 198c-56 66 -84 102 -84 163c0 75 63 134 156 134c95 0 156 -54 156 -136c0 -79 -53 -130 -147 -177c41 -52 126 -145 185 -200c41 43 78 97 105 163l47 -12c-27 -68 -67 -133 -117 -185
c48 -46 84 -75 129 -75c7 0 15 1 21 3l14 -45c-11 -4 -26 -6 -41 -6c-55 0 -104 36 -160 88zM251 38c59 0 123 26 184 77c-60 59 -149 156 -197 215c-95 -41 -122 -93 -122 -154c0 -81 51 -138 135 -138zM260 388c74 34 121 80 121 138c0 34 -22 92 -99 92
c-71 0 -101 -47 -101 -88c0 -45 34 -88 79 -142z" />
    <glyph glyph-name="quotesingle" unicode="'" horiz-adv-x="186" 
d="M76 495l-11 213h57l-9 -213h-37z" />
    <glyph glyph-name="parenleft" unicode="(" horiz-adv-x="298" 
d="M234 -236c-119 147 -154 331 -154 504s35 357 154 504l38 -26c-94 -137 -138 -255 -138 -478s44 -341 138 -478z" />
    <glyph glyph-name="parenright" unicode=")" horiz-adv-x="298" 
d="M26 -210c94 137 138 255 138 478s-44 341 -138 478l38 26c119 -147 154 -331 154 -504s-35 -357 -154 -504z" />
    <glyph glyph-name="asterisk" unicode="*" horiz-adv-x="468" 
d="M210 340c0 48 6 106 10 160c-42 -29 -90 -64 -133 -89l-24 41c43 25 98 49 144 72c-45 22 -100 45 -144 71l23 41c43 -25 92 -61 135 -90c-4 51 -11 111 -11 162h48c0 -49 -7 -108 -10 -161c43 29 91 64 135 89l23 -41c-43 -25 -100 -49 -146 -71c46 -22 102 -46 146 -72
l-24 -41c-44 25 -93 62 -135 91c4 -51 11 -111 11 -162h-48z" />
    <glyph glyph-name="plus" unicode="+" horiz-adv-x="511" 
d="M230 0v231h-212v47h212v225h51v-225h212v-47h-212v-231h-51z" />
    <glyph glyph-name="comma" unicode="," horiz-adv-x="206" 
d="M41 -115c33 53 46 99 46 148c0 22 -2 44 -7 67l58 12c4 -22 6 -44 6 -64c0 -64 -21 -120 -80 -179z" />
    <glyph glyph-name="hyphen" unicode="-" horiz-adv-x="351" 
d="M55 222v50h243v-50h-243z" />
    <glyph glyph-name="period" unicode="." horiz-adv-x="206" 
d="M103 -7c-22 0 -39 19 -39 41s17 41 39 41s39 -19 39 -41s-17 -41 -39 -41z" />
    <glyph glyph-name="slash" unicode="/" horiz-adv-x="333" 
d="M19 -32l247 728h50l-247 -728h-50z" />
    <glyph glyph-name="zero" unicode="0" horiz-adv-x="543" 
d="M271 -10c-125 0 -216 120 -216 337s91 337 216 337s217 -120 217 -337s-92 -337 -217 -337zM271 38c95 0 161 111 161 289s-65 289 -160 289s-161 -111 -161 -289s65 -289 160 -289z" />
    <glyph glyph-name="one" unicode="1" horiz-adv-x="394" 
d="M216 0v604l-156 -80l-20 44l182 96h47v-664h-53z" />
    <glyph glyph-name="two" unicode="2" horiz-adv-x="490" 
d="M45 0c30 356 324 332 324 506c0 78 -57 110 -125 110c-64 0 -122 -23 -157 -44l-19 43c38 24 106 49 176 49c123 0 181 -71 181 -158c0 -206 -280 -180 -316 -460h312v-46h-376z" />
    <glyph glyph-name="three" unicode="3" horiz-adv-x="513" 
d="M40 20l15 46c39 -17 82 -28 139 -28c92 0 182 42 182 145c0 64 -35 105 -105 120c-23 5 -51 7 -87 7h-65v48h57c145 0 183 67 183 136c0 71 -40 122 -129 122c-66 0 -121 -24 -156 -44l-19 43c45 26 107 49 176 49c123 0 183 -76 183 -167c0 -81 -38 -129 -109 -157v-2
c76 -16 127 -67 127 -154c0 -105 -77 -194 -243 -194c-61 0 -113 14 -149 30z" />
    <glyph glyph-name="four" unicode="4" horiz-adv-x="529" 
d="M51 181v44l310 439h37v-437h96v-46h-96v-181h-53v181h-294zM108 227h79h158v187c0 61 2 115 5 157z" />
    <glyph glyph-name="five" unicode="5" horiz-adv-x="496" 
d="M54 14l15 46c27 -12 66 -22 116 -22c101 0 180 52 180 156c0 72 -39 111 -90 130c-32 12 -68 14 -112 14h-68v321h324l-12 -46h-259v-228h26c45 0 83 -3 115 -13c78 -24 132 -80 132 -178c0 -114 -75 -204 -241 -204c-58 0 -104 14 -126 24z" />
    <glyph glyph-name="six" unicode="6" horiz-adv-x="521" 
d="M276 -10c-120 0 -221 98 -221 311c0 195 102 363 274 363c35 0 70 -6 108 -23l-16 -46c-31 15 -61 21 -92 21c-115 0 -202 -102 -216 -264c42 26 100 52 167 52c110 0 196 -70 196 -202s-83 -212 -200 -212zM274 38c90 0 146 55 146 161c0 98 -60 157 -142 157
c-62 0 -124 -29 -166 -58c-3 -150 60 -260 162 -260z" />
    <glyph glyph-name="seven" unicode="7" horiz-adv-x="454" 
d="M89 0c44 249 152 458 262 613h-309l-12 46h389v-26c-121 -173 -230 -382 -274 -633h-56z" />
    <glyph glyph-name="eight" unicode="8" horiz-adv-x="537" 
d="M263 -10c-129 0 -208 68 -208 176c0 94 64 152 136 174v2c-61 24 -115 70 -115 153c0 98 76 169 193 169c122 0 188 -78 188 -166c0 -82 -52 -132 -111 -158v-2c64 -22 136 -64 136 -168c0 -105 -88 -180 -219 -180zM265 38c81 0 161 42 161 130c0 92 -83 122 -176 149
c-67 -18 -139 -62 -139 -144c0 -93 73 -135 154 -135zM286 361c55 18 115 60 115 135c0 68 -50 120 -132 120c-78 0 -137 -43 -137 -114c0 -86 75 -119 154 -141z" />
    <glyph glyph-name="nine" unicode="9" horiz-adv-x="514" 
d="M191 -10c-40 0 -85 7 -128 24l15 47c34 -14 71 -23 116 -23c125 0 203 101 211 277h-2c-40 -36 -93 -65 -164 -65c-89 0 -194 54 -194 202c0 122 80 212 197 212c133 0 217 -106 217 -311c0 -220 -93 -363 -268 -363zM248 298c63 0 124 38 154 81c0 146 -63 238 -161 238
c-87 0 -140 -71 -140 -161c0 -95 51 -158 147 -158z" />
    <glyph glyph-name="colon" unicode=":" horiz-adv-x="206" 
d="M103 355c-22 0 -39 19 -39 41s17 41 39 41s39 -19 39 -41s-17 -41 -39 -41zM103 -7c-22 0 -39 19 -39 41s17 41 39 41s39 -19 39 -41s-17 -41 -39 -41z" />
    <glyph glyph-name="semicolon" unicode=";" horiz-adv-x="206" 
d="M103 355c-22 0 -39 19 -39 41s17 41 39 41s39 -19 39 -41s-17 -41 -39 -41zM41 -115c33 53 46 99 46 148c0 22 -2 44 -7 67l58 12c4 -22 6 -44 6 -64c0 -64 -21 -120 -80 -179z" />
    <glyph glyph-name="less" unicode="&#x3c;" horiz-adv-x="614" 
d="M80 234v52l414 193v-51l-360 -167v-2l360 -167v-51z" />
    <glyph glyph-name="equal" unicode="=" horiz-adv-x="511" 
d="M18 154v47h475v-47h-475zM18 309v47h475v-47h-475z" />
    <glyph glyph-name="greater" unicode="&#x3e;" horiz-adv-x="614" 
d="M120 41v51l360 167v2l-360 167v51l414 -193v-52z" />
    <glyph glyph-name="question" unicode="?" horiz-adv-x="444" 
d="M167 169c-28 28 -41 58 -41 89c0 124 203 148 203 269c0 59 -43 90 -96 90c-55 0 -98 -23 -136 -59l-27 37c38 39 99 69 166 69c91 0 148 -56 148 -135c0 -146 -204 -175 -204 -267c0 -23 8 -41 27 -61zM191 -7c-22 0 -39 19 -39 41s17 41 39 41s39 -19 39 -41
s-17 -41 -39 -41z" />
    <glyph glyph-name="at" unicode="@" horiz-adv-x="764" 
d="M472 -72l14 -42c-46 -19 -100 -26 -144 -26c-176 0 -302 129 -302 330c0 233 163 380 353 380c189 0 331 -126 331 -311c0 -154 -76 -229 -166 -229c-51 0 -88 31 -94 85h-2c-19 -39 -68 -83 -134 -83c-58 0 -118 38 -118 153c0 133 86 224 194 224c49 0 92 -16 128 -39
l-22 -167c-2 -18 -4 -34 -4 -50c0 -44 13 -76 57 -76c64 0 109 72 109 180c0 135 -96 268 -281 268c-162 0 -298 -125 -298 -333c0 -184 113 -287 257 -287c39 0 88 8 122 23zM467 254l11 88c-24 17 -52 22 -74 22c-79 0 -140 -74 -140 -177c0 -70 28 -108 73 -108
c46 0 112 29 130 175z" />
    <glyph glyph-name="A" unicode="A" horiz-adv-x="568" 
d="M21 0l247 661h32l247 -661h-58l-66 182h-278l-66 -182h-58zM163 228h242l-78 216c-22 62 -33 94 -42 119h-2c-8 -25 -20 -57 -42 -119z" />
    <glyph glyph-name="B" unicode="B" horiz-adv-x="520" 
d="M89 0v659h135c139 0 201 -75 201 -167c0 -72 -35 -125 -90 -146v-2c72 -14 130 -75 130 -161c0 -114 -78 -183 -221 -183h-155zM142 46h107c93 0 160 37 160 134c0 82 -61 135 -152 135h-115v-269zM142 361h79c97 0 149 46 149 129c0 72 -41 123 -144 123h-84v-252z" />
    <glyph glyph-name="C" unicode="C" horiz-adv-x="574" 
d="M519 77l15 -44c-57 -30 -116 -43 -173 -43c-189 0 -306 138 -306 331s130 343 318 343c69 0 129 -18 158 -36v-52c-43 23 -90 40 -158 40c-154 0 -262 -128 -262 -290c0 -170 97 -288 254 -288c58 0 110 16 154 39z" />
    <glyph glyph-name="D" unicode="D" horiz-adv-x="626" 
d="M89 0v659h137c237 0 345 -142 345 -327c0 -183 -103 -332 -345 -332h-137zM142 46h82c219 0 291 133 291 291c0 157 -89 276 -292 276h-81v-567z" />
    <glyph glyph-name="E" unicode="E" horiz-adv-x="453" 
d="M89 0v659h298l-20 -46h-225v-252h220v-46h-220v-269h253v-46h-306z" />
    <glyph glyph-name="F" unicode="F" horiz-adv-x="432" 
d="M89 0v659h298l-20 -46h-225v-252h220v-46h-220v-315h-53z" />
    <glyph glyph-name="G" unicode="G" horiz-adv-x="657" 
d="M578 307v-268c-37 -20 -115 -49 -206 -49c-188 0 -317 136 -317 331c0 203 133 343 331 343c76 0 141 -21 175 -37v-51c-45 23 -103 41 -173 41c-176 0 -277 -120 -277 -288c0 -181 107 -291 270 -291c60 0 112 13 144 30v239h53z" />
    <glyph glyph-name="H" unicode="H" horiz-adv-x="665" 
d="M89 0v659h53v-298h381v298h53v-659h-53v315h-381v-315h-53z" />
    <glyph glyph-name="I" unicode="I" horiz-adv-x="231" 
d="M89 0v659h53v-659h-53z" />
    <glyph glyph-name="J" unicode="J" horiz-adv-x="270" 
d="M-24 -174l9 47c16 -5 33 -6 46 -6c77 0 97 44 97 116v676h53v-691c0 -90 -42 -149 -153 -149c-16 0 -38 3 -52 7z" />
    <glyph glyph-name="K" unicode="K" horiz-adv-x="510" 
d="M89 0v659h53v-311h2l261 311h66l-279 -329l298 -330h-70l-276 306h-2v-306h-53z" />
    <glyph glyph-name="L" unicode="L" horiz-adv-x="417" 
d="M89 0v659h53v-613h250v-46h-303z" />
    <glyph glyph-name="M" unicode="M" horiz-adv-x="778" 
d="M89 0v659h51l189 -289c30 -46 47 -72 64 -100h2c17 28 36 59 64 103l179 286h51v-659h-53v446c0 36 0 83 2 122h-2c-16 -30 -35 -61 -48 -82l-178 -286h-31l-191 290c-14 21 -34 51 -46 76h-2c2 -34 2 -85 2 -120v-446h-53z" />
    <glyph glyph-name="N" unicode="N" horiz-adv-x="702" 
d="M613 0h-41l-330 436c-45 59 -77 105 -100 139h-2c1 -36 2 -60 2 -118v-457h-53v659h49l317 -420c48 -63 82 -112 105 -147h2c-1 36 -2 60 -2 118v449h53v-659z" />
    <glyph glyph-name="O" unicode="O" horiz-adv-x="742" 
d="M371 -10c-179 0 -316 130 -316 336c0 200 135 338 316 338c184 0 316 -142 316 -338c0 -208 -141 -336 -316 -336zM371 38c158 0 260 119 260 288c0 158 -91 290 -260 290c-158 0 -260 -121 -260 -290s102 -288 260 -288z" />
    <glyph glyph-name="P" unicode="P" horiz-adv-x="483" 
d="M89 0v659h108c66 0 108 -11 141 -31c56 -34 90 -94 90 -174c0 -77 -33 -143 -103 -178c-32 -16 -73 -26 -133 -26h-50v-250h-53zM142 296h55c47 0 80 9 104 22c48 25 72 72 72 136c0 61 -24 109 -67 135c-25 15 -58 24 -107 24h-57v-317z" />
    <glyph glyph-name="Q" unicode="Q" horiz-adv-x="742" 
d="M292 -1c-138 32 -237 152 -237 327c0 200 135 338 316 338c184 0 316 -142 316 -338c0 -208 -139 -336 -320 -336c52 -64 101 -98 177 -98c34 0 61 5 82 12l13 -44c-28 -10 -64 -16 -104 -16c-111 0 -180 71 -243 155zM371 38c158 0 260 119 260 288
c0 158 -91 290 -260 290c-158 0 -260 -121 -260 -290s102 -288 260 -288z" />
    <glyph glyph-name="R" unicode="R" horiz-adv-x="519" 
d="M89 0v659h114c72 0 118 -14 152 -38c46 -33 68 -84 68 -138c0 -93 -47 -149 -136 -176v-2c20 -10 43 -47 78 -104l124 -201h-64l-124 202c-30 49 -56 82 -77 88h-82v-290h-53zM142 336h66c38 0 70 8 99 25c37 21 61 61 61 117c0 40 -12 75 -40 99c-24 21 -61 36 -119 36
h-67v-277z" />
    <glyph glyph-name="S" unicode="S" horiz-adv-x="473" 
d="M55 37l24 43c29 -19 79 -42 141 -42c77 0 143 32 143 119c0 171 -293 151 -293 346c0 91 69 161 186 161c56 0 107 -15 135 -29v-51c-36 21 -85 33 -134 33c-65 0 -132 -29 -132 -108c0 -161 293 -146 293 -349c0 -107 -79 -170 -201 -170c-74 0 -127 24 -162 47z" />
    <glyph glyph-name="T" unicode="T" horiz-adv-x="478" 
d="M211 0v613h-189v46h452l-20 -46h-190v-613h-53z" />
    <glyph glyph-name="U" unicode="U" horiz-adv-x="633" 
d="M316 -10c-119 0 -193 52 -221 146c-8 29 -11 61 -11 96v427h53v-421c0 -35 3 -66 12 -93c23 -68 78 -108 168 -108s144 40 167 108c9 27 12 58 12 97v417h53v-427c0 -37 -4 -70 -13 -99c-29 -92 -104 -143 -220 -143z" />
    <glyph glyph-name="V" unicode="V" horiz-adv-x="589" 
d="M277 -3l-258 662h59l163 -420c23 -59 39 -105 54 -148h2c13 39 28 85 54 151l161 417h58l-259 -662h-34z" />
    <glyph glyph-name="W" unicode="W" horiz-adv-x="880" 
d="M237 -3l-218 662h60l130 -403c15 -47 35 -107 50 -164h2c18 61 34 108 53 162l102 295l-37 110h61l136 -409c14 -43 35 -103 49 -158h2c15 58 30 107 46 156l130 411h58l-216 -662h-40l-108 323c-20 59 -35 102 -51 155h-2c-16 -52 -29 -90 -52 -156l-112 -322h-43z" />
    <glyph glyph-name="X" unicode="X" horiz-adv-x="569" 
d="M25 0l228 332l-216 327h65l187 -285l191 285h64l-222 -326l221 -333h-63l-193 291l-199 -291h-63z" />
    <glyph glyph-name="Y" unicode="Y" horiz-adv-x="514" 
d="M233 0v264l-214 395h61l180 -337h2l174 337h59l-209 -396v-263h-53z" />
    <glyph glyph-name="Z" unicode="Z" horiz-adv-x="535" 
d="M60 0l333 613h-320l-16 46h418l-332 -613h355v-46h-438z" />
    <glyph glyph-name="bracketleft" unicode="[" horiz-adv-x="265" 
d="M94 -232v1002h143v-43h-94v-916h94v-43h-143z" />
    <glyph glyph-name="backslash" unicode="\" horiz-adv-x="345" 
d="M270 -32l-247 728h51l247 -728h-51z" />
    <glyph glyph-name="bracketright" unicode="]" horiz-adv-x="265" 
d="M30 -232v43h94v916h-94v43h143v-1002h-143z" />
    <glyph glyph-name="asciicircum" unicode="^" horiz-adv-x="614" 
d="M117 287l164 372h52l164 -372h-51l-138 318h-2l-138 -318h-51z" />
    <glyph glyph-name="underscore" unicode="_" horiz-adv-x="450" 
d="M0 -110v44h450v-44h-450z" />
    <glyph glyph-name="grave" unicode="`" horiz-adv-x="350" 
d="M167 531l-81 147h67l58 -147h-44z" />
    <glyph glyph-name="a" unicode="a" horiz-adv-x="448" 
d="M344 0l-12 57c-38 -38 -86 -67 -145 -67c-84 0 -147 53 -147 144c0 63 33 106 80 128c32 15 68 19 116 21l95 3v36c0 80 -46 115 -107 115c-62 0 -100 -21 -133 -41l-23 41c55 36 112 48 158 48c86 0 158 -43 158 -156v-150c0 -110 4 -156 10 -179h-50zM331 240l-92 -3
c-45 -1 -74 -8 -97 -20c-31 -16 -46 -47 -46 -81c0 -57 36 -98 95 -98c66 0 114 46 140 74v128z" />
    <glyph glyph-name="b" unicode="b" horiz-adv-x="486" 
d="M194 -10c-58 0 -100 15 -121 27v691h53v-249c32 15 65 26 113 26c114 0 205 -80 205 -236c0 -164 -105 -259 -250 -259zM201 38c110 0 187 80 187 210c0 111 -51 189 -155 189c-58 0 -90 -21 -107 -29v-355c27 -11 53 -15 75 -15z" />
    <glyph glyph-name="c" unicode="c" horiz-adv-x="415" 
d="M260 -10c-142 0 -218 110 -218 241c0 135 81 254 229 254c42 0 83 -11 113 -27v-50c-30 17 -67 30 -113 30c-106 0 -173 -85 -173 -200c0 -127 65 -200 167 -200c53 0 88 17 116 33l18 -40c-33 -21 -84 -41 -139 -41z" />
    <glyph glyph-name="d" unicode="d" horiz-adv-x="493" 
d="M279 -10c-128 0 -237 79 -237 240c0 155 109 255 238 255c32 0 57 -3 87 -12v235h53v-687c-28 -16 -79 -31 -141 -31zM285 38c28 0 60 5 82 15v370c-27 10 -47 15 -83 15c-99 0 -186 -74 -186 -206c0 -117 67 -194 187 -194z" />
    <glyph glyph-name="e" unicode="e" horiz-adv-x="450" 
d="M407 232h-309c1 -106 58 -194 168 -194c43 0 83 14 115 32l18 -39c-37 -25 -93 -41 -143 -41c-140 0 -214 113 -214 255c0 145 80 240 186 240c114 0 179 -93 179 -239v-14zM99 278h250c-2 81 -40 160 -120 160c-78 0 -128 -71 -130 -160z" />
    <glyph glyph-name="f" unicode="f" horiz-adv-x="282" 
d="M101 0v427h-59v46h59v90c0 119 74 145 126 145c19 0 43 -4 61 -12l-12 -45c-14 6 -30 10 -49 10c-51 0 -73 -34 -73 -94v-94h118l-18 -46h-100v-427h-53z" />
    <glyph glyph-name="g" unicode="g" horiz-adv-x="461" 
d="M224 -237c-119 0 -202 47 -202 135c0 46 25 92 89 125c-21 12 -34 34 -34 59c0 20 5 54 47 95c-42 29 -71 77 -71 141c0 98 75 166 166 166c40 0 67 -9 86 -17c5 -2 7 -3 10 0c22 23 53 38 90 38c12 0 23 -2 27 -3l-15 -46c-8 2 -16 3 -24 3c-18 0 -35 -5 -50 -16
c39 -33 58 -79 58 -126c0 -100 -71 -169 -176 -169c-24 0 -45 4 -64 11c-22 -23 -31 -43 -31 -63c0 -97 312 -13 312 -189c0 -90 -87 -144 -218 -144zM226 -191c112 0 160 44 160 93c0 94 -138 78 -235 104c-29 -17 -77 -48 -77 -100c0 -62 64 -97 152 -97zM226 196
c67 0 118 43 118 121c0 71 -50 119 -118 119c-70 0 -117 -47 -117 -118c0 -72 45 -122 117 -122z" />
    <glyph glyph-name="h" unicode="h" horiz-adv-x="496" 
d="M73 0v708h53v-298c52 44 105 75 166 75c74 0 136 -51 136 -164v-321h-53v302c0 76 -21 134 -91 134c-58 0 -109 -37 -158 -81v-355h-53z" />
    <glyph glyph-name="i" unicode="i" horiz-adv-x="219" 
d="M83 0v473h53v-473h-53zM109 593c-23 0 -38 17 -38 40s15 40 38 40c24 0 39 -17 39 -40c0 -24 -16 -40 -39 -40z" />
    <glyph glyph-name="j" unicode="j" horiz-adv-x="229" 
d="M-43 -225l12 46c12 -5 26 -10 46 -10c54 0 78 32 78 110v552h53v-564c0 -108 -61 -146 -126 -146c-20 0 -44 3 -63 12zM119 593c-23 0 -38 17 -38 40s15 40 38 40c24 0 39 -17 39 -40c0 -24 -16 -40 -39 -40z" />
    <glyph glyph-name="k" unicode="k" horiz-adv-x="416" 
d="M73 0v708h53v-414h2l191 179h68l-213 -197l238 -276h-68l-216 253h-2v-253h-53z" />
    <glyph glyph-name="l" unicode="l" horiz-adv-x="223" 
d="M73 77v631h53v-612c0 -41 11 -53 37 -53c9 0 23 4 29 7l12 -43c-15 -7 -36 -12 -56 -12c-51 0 -75 32 -75 82z" />
    <glyph glyph-name="m" unicode="m" horiz-adv-x="788" 
d="M70 0v473h44l8 -64c52 45 106 76 167 76c53 0 99 -27 120 -85c56 51 116 85 178 85c74 0 133 -51 133 -164v-321h-53v302c0 76 -18 134 -88 134c-57 0 -110 -37 -159 -81c1 -11 2 -23 2 -34v-321h-53v302c0 76 -18 134 -88 134c-58 0 -109 -37 -158 -81v-355h-53z" />
    <glyph glyph-name="n" unicode="n" horiz-adv-x="493" 
d="M70 0v473h44l8 -64c52 45 106 76 167 76c74 0 136 -51 136 -164v-321h-53v302c0 76 -21 134 -91 134c-58 0 -109 -37 -158 -81v-355h-53z" />
    <glyph glyph-name="o" unicode="o" horiz-adv-x="505" 
d="M252 -10c-128 0 -210 110 -210 247c0 138 81 248 211 248c128 0 210 -110 210 -248c0 -137 -81 -247 -211 -247zM252 38c93 0 155 82 155 199c0 118 -62 200 -154 200c-93 0 -155 -82 -155 -200c0 -117 62 -199 154 -199z" />
    <glyph glyph-name="p" unicode="p" horiz-adv-x="489" 
d="M70 -237v694c49 19 100 28 145 28c142 0 232 -87 232 -245s-104 -250 -235 -250c-33 0 -65 8 -89 19v-246h-53zM123 61c30 -16 55 -23 89 -23c115 0 179 81 179 204c0 136 -79 196 -177 196c-33 0 -61 -5 -91 -15v-362z" />
    <glyph glyph-name="q" unicode="q" horiz-adv-x="491" 
d="M240 -10c-106 0 -198 86 -198 234c0 168 110 261 247 261c57 0 108 -16 134 -27v-695h-53v266c-43 -29 -86 -39 -130 -39zM245 38c63 0 101 27 125 47v336c-23 11 -55 17 -83 17c-119 0 -189 -88 -189 -211c0 -113 62 -189 147 -189z" />
    <glyph glyph-name="r" unicode="r" horiz-adv-x="301" 
d="M70 0v473h44l7 -63c56 63 97 75 135 75c18 0 35 -4 44 -9l-19 -52c-8 3 -17 7 -35 7c-36 0 -73 -24 -123 -77v-354h-53z" />
    <glyph glyph-name="s" unicode="s" horiz-adv-x="361" 
d="M28 28l18 43c24 -14 58 -33 114 -33c58 0 109 25 109 87c0 114 -221 79 -221 235c0 67 50 125 151 125c42 0 80 -10 109 -22v-49c-29 13 -62 24 -106 24c-48 0 -101 -16 -101 -75c0 -119 222 -79 222 -238c0 -89 -72 -135 -167 -135c-57 0 -102 21 -128 38z" />
    <glyph glyph-name="t" unicode="t" horiz-adv-x="330" 
d="M196 -10c-61 0 -94 36 -94 103v334h-77v46h77v106l53 19v-125h140l-18 -46h-122v-330c0 -40 18 -59 50 -59c33 0 60 14 80 28l22 -39c-28 -20 -65 -37 -111 -37z" />
    <glyph glyph-name="u" unicode="u" horiz-adv-x="492" 
d="M200 -10c-45 0 -100 21 -120 86c-8 26 -10 47 -10 80v317h53v-297c0 -34 1 -58 8 -80c12 -40 40 -57 81 -57c62 0 122 40 149 77v357h53v-294c0 -110 4 -156 10 -179h-50l-12 57c-45 -39 -100 -67 -162 -67z" />
    <glyph glyph-name="v" unicode="v" horiz-adv-x="430" 
d="M191 -3l-179 476h58l147 -402h2l142 402h57l-176 -476h-51z" />
    <glyph glyph-name="w" unicode="w" horiz-adv-x="664" 
d="M162 -3l-150 476h58l118 -402h2l112 402h59l117 -402h2l115 402h57l-149 -476h-54l-116 404h-2l-115 -404h-54z" />
    <glyph glyph-name="x" unicode="x" horiz-adv-x="422" 
d="M12 0l169 237l-161 236h64l131 -196l135 196h60l-164 -234l162 -239h-62l-135 199l-137 -199h-62z" />
    <glyph glyph-name="y" unicode="y" horiz-adv-x="443" 
d="M431 473l-175 -519c-55 -164 -125 -191 -198 -191c-33 0 -54 5 -74 13l12 47c17 -7 38 -12 63 -12c66 0 120 49 158 183l-206 479h59l170 -404h2l132 404h57z" />
    <glyph glyph-name="z" unicode="z" horiz-adv-x="368" 
d="M24 0l249 427h-222l-13 46h317l-247 -427h245v-46h-329z" />
    <glyph glyph-name="braceleft" unicode="{" horiz-adv-x="291" 
d="M254 -220c-109 22 -141 79 -141 175v215c0 38 -13 74 -69 77v52c56 3 69 39 69 77v215c0 96 32 153 141 175l11 -51c-74 -12 -98 -54 -98 -123v-202c0 -86 -35 -110 -63 -116v-2c28 -6 63 -30 63 -116v-202c0 -69 24 -111 98 -123z" />
    <glyph glyph-name="bar" unicode="|" horiz-adv-x="226" 
d="M89 -237v1017h49v-1017h-49z" />
    <glyph glyph-name="braceright" unicode="}" horiz-adv-x="291" 
d="M28 -169c74 12 98 54 98 123v202c0 86 35 110 63 116v2c-28 6 -63 30 -63 116v202c0 69 -24 111 -98 123l11 51c109 -22 141 -79 141 -175v-215c0 -38 13 -74 69 -77v-52c-56 -3 -69 -39 -69 -77v-215c0 -96 -32 -153 -141 -175z" />
    <glyph glyph-name="asciitilde" unicode="~" horiz-adv-x="511" 
d="M62 217l-33 30c41 43 76 62 118 62c66 0 164 -63 218 -63c33 0 53 16 84 45l33 -30c-41 -43 -76 -62 -118 -62c-62 0 -168 63 -218 63c-33 0 -53 -16 -84 -45z" />
    <glyph glyph-name="Euro" unicode="&#x20ac;" horiz-adv-x="513" 
d="M467 75l22 -43c-51 -32 -105 -42 -148 -42c-147 0 -221 96 -244 228h-71v46h65c-1 18 -2 41 -2 57c0 19 1 46 4 69h-67v46h75c30 131 114 228 242 228c59 0 103 -18 131 -35v-55c-43 23 -78 38 -127 38c-103 0 -166 -72 -190 -176h282l-18 -46h-272c-3 -21 -4 -47 -4 -65
c0 -17 1 -41 3 -61h264l-18 -46h-238c22 -101 80 -180 185 -180c51 0 82 12 126 37z" />
    <glyph glyph-name="quotesinglbase" unicode="&#x201a;" horiz-adv-x="225" 
d="M122 115c19 -42 30 -77 30 -117c0 -42 -13 -88 -41 -136l-27 8c11 35 16 66 16 96c0 46 -11 83 -31 124z" />
    <glyph glyph-name="florin" unicode="&#x192;" horiz-adv-x="513" 
d="M265 329l-28 -313c-6 -71 -20 -110 -42 -136c-34 -40 -83 -50 -120 -50s-63 7 -90 20l21 43c17 -9 41 -16 68 -16c35 0 64 13 81 38c14 20 22 49 25 88l29 326h-98v46h102l13 145c5 59 14 90 28 114c34 58 91 74 134 74c37 0 64 -7 91 -20l-21 -42c-17 9 -41 15 -68 15
c-40 0 -70 -19 -86 -47c-12 -21 -17 -45 -20 -83l-14 -156h124l-18 -46h-111z" />
    <glyph glyph-name="quotedblbase" unicode="&#x201e;" horiz-adv-x="370" 
d="M267 115c19 -42 30 -77 30 -117c0 -42 -13 -88 -41 -136l-27 8c11 35 16 66 16 96c0 46 -11 83 -31 124zM122 115c19 -42 30 -77 30 -117c0 -42 -13 -88 -41 -136l-27 8c11 35 16 66 16 96c0 46 -11 83 -31 124z" />
    <glyph glyph-name="ellipsis" unicode="&#x2026;" horiz-adv-x="890" 
d="M159 -7c-22 0 -39 19 -39 41s17 41 39 41s39 -19 39 -41s-17 -41 -39 -41zM445 -7c-22 0 -39 19 -39 41s17 41 39 41s39 -19 39 -41s-17 -41 -39 -41zM731 -7c-22 0 -39 19 -39 41s17 41 39 41s39 -19 39 -41s-17 -41 -39 -41z" />
    <glyph glyph-name="dagger" unicode="&#x2020;" horiz-adv-x="504" 
d="M227 -44v146c0 197 7 275 7 324c-41 -1 -110 -10 -154 -10v53c44 -1 112 -10 154 -12c0 47 -8 112 -8 162h52c0 -50 -8 -115 -8 -162c42 2 110 11 154 12v-53c-44 0 -113 9 -154 10c0 -49 7 -127 7 -324v-146h-50z" />
    <glyph glyph-name="daggerdbl" unicode="&#x2021;" horiz-adv-x="504" 
d="M226 -44c0 50 8 115 8 162c-42 -2 -110 -11 -154 -12v53c44 0 113 -9 154 -10c0 31 -6 72 -6 130c0 66 6 113 6 147c-41 -1 -110 -10 -154 -10v53c44 -1 112 -10 154 -12c0 47 -8 112 -8 162h52c0 -50 -8 -115 -8 -162c42 2 110 11 154 12v-53c-44 0 -113 9 -154 10
c0 -33 6 -80 6 -147c0 -58 -6 -100 -6 -130c41 1 110 10 154 10v-53c-44 1 -112 10 -154 12c0 -47 8 -112 8 -162h-52z" />
    <glyph glyph-name="circumflex" unicode="&#x2c6;" horiz-adv-x="350" 
d="M48 531l98 147h57l98 -147h-50l-76 109l-77 -109h-50z" />
    <glyph glyph-name="perthousand" unicode="&#x2030;" horiz-adv-x="1145" 
d="M203 320c-78 0 -143 59 -143 172s65 172 143 172s143 -59 143 -172s-65 -172 -143 -172zM203 363c59 0 94 52 94 129s-35 129 -94 129s-94 -52 -94 -129s35 -129 94 -129zM597 -10c-78 0 -143 59 -143 172s65 172 143 172s143 -59 143 -172s-65 -172 -143 -172zM597 33
c59 0 94 52 94 129s-35 129 -94 129s-94 -52 -94 -129s35 -129 94 -129zM942 -10c-78 0 -143 59 -143 172s65 172 143 172s143 -59 143 -172s-65 -172 -143 -172zM942 33c59 0 94 52 94 129s-35 129 -94 129s-94 -52 -94 -129s35 -129 94 -129zM169 0l410 659h52l-410 -659
h-52z" />
    <glyph glyph-name="Scaron" unicode="&#x160;" horiz-adv-x="473" 
d="M55 37l24 43c29 -19 79 -42 141 -42c77 0 143 32 143 119c0 171 -293 151 -293 346c0 91 69 161 186 161c56 0 107 -15 135 -29v-51c-36 21 -85 33 -134 33c-65 0 -132 -29 -132 -108c0 -161 293 -146 293 -349c0 -107 -79 -170 -201 -170c-74 0 -127 24 -162 47z
M211 696l-98 147h51l77 -109l76 109h49l-98 -147h-57z" />
    <glyph glyph-name="guilsinglleft" unicode="&#x2039;" horiz-adv-x="335" 
d="M254 420l-139 -179l139 -179l-38 -28l-164 207l164 207z" />
    <glyph glyph-name="OE" unicode="&#x152;" horiz-adv-x="846" 
d="M788 0h-200c-92 0 -170 -10 -208 -10c-62 0 -121 14 -169 41c-96 54 -156 158 -156 295c0 132 59 238 154 294c49 29 108 44 180 44c47 0 121 -5 178 -5h213l-20 -46h-225v-252h220v-46h-220v-269h253v-46zM384 38c33 0 77 3 98 6v569c-11 0 -62 3 -93 3
c-59 0 -109 -12 -150 -36c-83 -48 -128 -141 -128 -254c0 -117 47 -210 133 -256c39 -21 87 -32 140 -32z" />
    <glyph glyph-name="quoteleft" unicode="&#x2018;" horiz-adv-x="225" 
d="M103 462c-19 42 -30 77 -30 117c0 42 13 88 41 136l27 -8c-11 -35 -16 -66 -16 -96c0 -46 11 -83 31 -124z" />
    <glyph glyph-name="quoteright" unicode="&#x2019;" horiz-adv-x="225" 
d="M122 715c19 -42 30 -77 30 -117c0 -42 -13 -88 -41 -136l-27 8c11 35 16 66 16 96c0 46 -11 83 -31 124z" />
    <glyph glyph-name="quotedblleft" unicode="&#x201c;" horiz-adv-x="370" 
d="M103 462c-19 42 -30 77 -30 117c0 42 13 88 41 136l27 -8c-11 -35 -16 -66 -16 -96c0 -46 11 -83 31 -124zM248 462c-19 42 -30 77 -30 117c0 42 13 88 41 136l27 -8c-11 -35 -16 -66 -16 -96c0 -46 11 -83 31 -124z" />
    <glyph glyph-name="quotedblright" unicode="&#x201d;" horiz-adv-x="370" 
d="M267 715c19 -42 30 -77 30 -117c0 -42 -13 -88 -41 -136l-27 8c11 35 16 66 16 96c0 46 -11 83 -31 124zM122 715c19 -42 30 -77 30 -117c0 -42 -13 -88 -41 -136l-27 8c11 35 16 66 16 96c0 46 -11 83 -31 124z" />
    <glyph glyph-name="bullet" unicode="&#x2022;" horiz-adv-x="285" 
d="M142 222c-53 0 -93 43 -93 96c0 54 40 97 93 97c54 0 94 -43 94 -97c0 -53 -40 -96 -94 -96z" />
    <glyph glyph-name="endash" unicode="&#x2013;" horiz-adv-x="450" 
d="M0 231v47h450v-47h-450z" />
    <glyph glyph-name="emdash" unicode="&#x2014;" horiz-adv-x="800" 
d="M0 231v47h800v-47h-800z" />
    <glyph glyph-name="tilde" unicode="&#x2dc;" horiz-adv-x="350" 
d="M44 557v15c0 45 29 74 66 74c53 0 91 -50 126 -50c22 0 29 20 29 44h41v-15c0 -45 -29 -74 -66 -74c-52 0 -92 50 -126 50c-22 0 -29 -20 -29 -44h-41z" />
    <glyph glyph-name="trademark" unicode="&#x2122;" horiz-adv-x="813" 
d="M138 264v358h-108v37h265l-11 -37h-104v-358h-42zM339 264v395h39l106 -161c20 -30 34 -55 41 -70h2c7 15 21 40 41 70l106 161h39v-395h-42v242c0 42 1 66 4 88h-2c-8 -15 -25 -44 -37 -63l-97 -147h-26l-97 147c-12 19 -29 48 -37 63h-2c3 -22 4 -46 4 -88v-242h-42z
" />
    <glyph glyph-name="scaron" unicode="&#x161;" horiz-adv-x="361" 
d="M28 28l18 43c24 -14 58 -33 114 -33c58 0 109 25 109 87c0 114 -221 79 -221 235c0 67 50 125 151 125c42 0 80 -10 109 -22v-49c-29 13 -62 24 -106 24c-48 0 -101 -16 -101 -75c0 -119 222 -79 222 -238c0 -89 -72 -135 -167 -135c-57 0 -102 21 -128 38zM151 532
l-98 147h51l77 -109l76 109h49l-98 -147h-57z" />
    <glyph glyph-name="guilsinglright" unicode="&#x203a;" horiz-adv-x="335" 
d="M220 241l-139 179l38 28l164 -207l-164 -207l-38 28z" />
    <glyph glyph-name="oe" unicode="&#x153;" horiz-adv-x="811" 
d="M252 -10c-128 0 -210 110 -210 247c0 138 81 248 211 248c80 0 146 -43 175 -113h2c27 71 89 113 158 113c115 0 180 -93 180 -239v-14h-309c1 -106 60 -194 168 -194c43 0 83 14 115 32l18 -39c-37 -25 -93 -41 -143 -41c-88 0 -150 45 -184 118h-2
c-34 -73 -95 -118 -179 -118zM252 38c93 0 152 82 152 199c0 118 -59 201 -151 201c-93 0 -155 -83 -155 -201c0 -117 62 -199 154 -199zM460 278h250c-2 81 -40 160 -120 160c-78 0 -128 -71 -130 -160z" />
    <glyph glyph-name="Ydieresis" unicode="&#x178;" horiz-adv-x="514" 
d="M233 0v264l-214 395h61l180 -337h2l174 337h59l-209 -396v-263h-53zM175 708c-20 0 -36 16 -36 36s16 36 36 36s36 -16 36 -36s-16 -36 -36 -36zM347 708c-20 0 -36 16 -36 36s16 36 36 36s36 -16 36 -36s-16 -36 -36 -36z" />
    <glyph glyph-name="exclamdown" unicode="&#xa1;" horiz-adv-x="266" 
d="M133 402c-22 0 -39 19 -39 41s17 41 39 41s39 -19 39 -41s-17 -41 -39 -41zM106 -180v53c0 249 0 311 15 438h24c15 -127 14 -190 14 -439v-52h-53z" />
    <glyph glyph-name="cent" unicode="&#xa2;" horiz-adv-x="513" 
d="M253 0v105c-108 14 -176 110 -176 222c0 111 68 212 176 232v100h49v-96c41 -1 76 -11 102 -25v-48c-28 15 -62 27 -113 27c-90 0 -160 -77 -160 -183c0 -118 68 -185 155 -185c57 0 89 16 115 30l17 -40c-27 -17 -68 -32 -116 -35v-104h-49z" />
    <glyph glyph-name="sterling" unicode="&#xa3;" horiz-adv-x="513" 
d="M72 0v43c78 46 92 191 92 272h-82v46h82v98c0 175 116 205 180 205c42 0 72 -8 99 -16l-10 -45c-24 7 -48 14 -85 14c-62 0 -131 -32 -131 -161v-95h192l-18 -46h-174c0 -101 -17 -207 -73 -267v-2h87h211v-46h-370z" />
    <glyph glyph-name="currency" unicode="&#xa4;" horiz-adv-x="513" 
d="M459 90l-63 63c-38 -31 -87 -49 -140 -49c-52 0 -101 18 -140 49l-63 -63l-36 36l63 63c-31 38 -50 87 -50 141c0 53 18 102 49 140l-63 63l36 36l63 -63c39 31 88 50 141 50s102 -19 141 -50l63 63l36 -36l-63 -63c31 -39 49 -87 49 -140s-19 -102 -50 -141l63 -63z
M256 155c96 0 170 79 170 175s-74 175 -170 175s-170 -79 -170 -175s74 -175 170 -175z" />
    <glyph glyph-name="yen" unicode="&#xa5;" horiz-adv-x="513" 
d="M230 0v128h-155v46h155v89h-155v46h135l-168 350h57l157 -337h1l157 337h57l-168 -350h135v-46h-155v-89h155v-46h-155v-128h-53z" />
    <glyph glyph-name="brokenbar" unicode="&#xa6;" horiz-adv-x="226" 
d="M89 -237v350h49v-350h-49zM89 430v350h49v-350h-49z" />
    <glyph glyph-name="section" unicode="&#xa7;" horiz-adv-x="512" 
d="M50 -118l24 43c29 -19 79 -42 141 -42c65 0 142 22 142 113c0 157 -292 128 -292 316c0 60 36 114 88 144c-29 26 -49 60 -49 111c0 88 71 156 180 156c62 0 113 -15 141 -29v-51c-36 21 -85 33 -137 33c-62 0 -128 -31 -128 -104c0 -158 292 -123 292 -327
c0 -62 -31 -107 -81 -140c25 -25 42 -59 42 -107c0 -110 -89 -163 -199 -163c-76 0 -129 24 -164 47zM340 131c33 25 57 61 57 110c0 113 -125 135 -212 191c-37 -20 -65 -58 -65 -108c0 -110 131 -132 220 -193z" />
    <glyph glyph-name="dieresis" unicode="&#xa8;" horiz-adv-x="350" 
d="M89 568c-20 0 -36 16 -36 36s16 36 36 36s36 -16 36 -36s-16 -36 -36 -36zM261 568c-20 0 -36 16 -36 36s16 36 36 36s36 -16 36 -36s-16 -36 -36 -36z" />
    <glyph glyph-name="copyright" unicode="&#xa9;" horiz-adv-x="784" 
d="M392 -10c-190 0 -332 149 -332 337s142 337 332 337s332 -149 332 -337s-142 -337 -332 -337zM392 27c165 0 288 129 288 300s-123 299 -288 299s-288 -128 -288 -299s123 -300 288 -300zM495 194l14 -33c-26 -17 -67 -33 -112 -33c-114 0 -175 88 -175 194
c0 108 65 204 184 204c34 0 67 -9 91 -22v-42c-24 14 -54 24 -91 24c-85 0 -139 -66 -139 -159c0 -102 52 -160 134 -160c43 0 71 14 94 27z" />
    <glyph glyph-name="ordfeminine" unicode="&#xaa;" horiz-adv-x="345" 
d="M27 143v43h287v-43h-287zM250 270l-8 36c-26 -24 -62 -43 -102 -43c-61 0 -107 38 -107 103c0 68 47 106 150 108l55 1v19c0 50 -31 73 -75 73c-38 0 -65 -12 -91 -27l-21 36c36 24 75 35 115 35c64 0 120 -31 120 -118v-95c0 -73 4 -106 11 -128h-47zM238 355v78l-62 -2
c-59 -2 -93 -21 -93 -63c0 -35 23 -61 59 -61c43 0 78 30 96 48z" />
    <glyph glyph-name="guillemotleft" unicode="&#xab;" horiz-adv-x="528" 
d="M254 420l-139 -179l139 -179l-38 -28l-164 207l164 207zM447 420l-139 -179l139 -179l-38 -28l-164 207l164 207z" />
    <glyph glyph-name="logicalnot" unicode="&#xac;" horiz-adv-x="511" 
d="M442 0v231h-424v47h475v-278h-51z" />
    <glyph glyph-name="minus" unicode="&#x2212;" horiz-adv-x="511" 
d="M18 231v47h475v-47h-475z" />
    <glyph glyph-name="registered" unicode="&#xae;" horiz-adv-x="582" 
d="M290 180c-138 0 -238 106 -238 242s100 242 238 242s238 -106 238 -242s-100 -242 -238 -242zM290 213c120 0 202 91 202 209s-82 209 -202 209s-202 -91 -202 -209s82 -209 202 -209zM217 299v257h60c22 0 38 -3 49 -7c29 -11 43 -36 43 -63c0 -35 -20 -59 -62 -67v-2
c19 -15 41 -54 78 -118h-38c-37 65 -59 103 -76 111h-22v-111h-32zM249 437h22c34 0 62 11 62 48c0 18 -9 32 -22 38c-11 5 -23 6 -41 6h-21v-92z" />
    <glyph glyph-name="macron" unicode="&#xaf;" horiz-adv-x="350" 
d="M59 576v46h232v-46h-232z" />
    <glyph glyph-name="degree" unicode="&#xb0;" horiz-adv-x="404" 
d="M202 353c-87 0 -153 66 -153 153s66 153 153 153s153 -66 153 -153s-66 -153 -153 -153zM202 397c58 0 104 46 104 109s-46 109 -104 109s-104 -46 -104 -109s46 -109 104 -109z" />
    <glyph glyph-name="plusminus" unicode="&#xb1;" horiz-adv-x="511" 
d="M230 107v168h-212v47h212v168h51v-168h212v-47h-212v-168h-51zM18 0v47h475v-47h-475z" />
    <glyph glyph-name="twosuperior" unicode="&#xb2;" horiz-adv-x="318" 
d="M33 405c11 195 192 192 192 288c0 32 -24 55 -66 55c-35 0 -65 -13 -93 -30l-20 37c35 22 73 36 114 36c74 0 114 -41 114 -99c0 -112 -164 -121 -187 -242h186v-45h-240z" />
    <glyph glyph-name="threesuperior" unicode="&#xb3;" horiz-adv-x="322" 
d="M23 418l14 40c27 -12 56 -18 83 -18c55 0 100 17 100 69c0 26 -15 49 -46 59c-18 6 -33 9 -71 9h-35v43h34c28 0 50 4 66 11c30 14 40 39 40 59c0 42 -34 58 -71 58c-35 0 -61 -10 -86 -22l-17 39c29 15 66 26 106 26c68 0 117 -39 117 -98c0 -45 -27 -76 -70 -90v-2
c51 -10 82 -43 82 -95c0 -57 -44 -109 -149 -109c-30 0 -72 8 -97 21z" />
    <glyph glyph-name="acute" unicode="&#xb4;" horiz-adv-x="350" 
d="M139 531l59 147h63l-80 -147h-42z" />
    <glyph glyph-name="mu" unicode="&#xb5;" horiz-adv-x="511" 
d="M361 194v279h53v-337c0 -80 14 -93 42 -93c9 0 23 4 29 7l12 -43c-15 -7 -36 -12 -53 -12c-52 0 -71 42 -72 87h-2c-27 -54 -76 -92 -143 -92c-37 0 -80 16 -105 52h-2c3 -37 3 -91 3 -131v-148h-53v710h53v-321c0 -65 38 -113 106 -113c60 0 132 45 132 155z" />
    <glyph glyph-name="paragraph" unicode="&#xb6;" horiz-adv-x="599" 
d="M265 -160v387c-117 3 -194 92 -194 216s78 216 218 216h197v-819h-53v770h-115v-770h-53z" />
    <glyph glyph-name="periodcentered" unicode="&#xb7;" horiz-adv-x="206" 
d="M103 214c-22 0 -39 19 -39 41s17 41 39 41s39 -19 39 -41s-17 -41 -39 -41z" />
    <glyph glyph-name="cedilla" unicode="&#xb8;" horiz-adv-x="350" 
d="M91 -200l12 38c16 -7 32 -11 51 -11c29 0 55 12 55 42c0 39 -45 40 -87 40l28 91h47l-18 -56c38 -2 80 -20 80 -72c0 -55 -47 -84 -105 -84c-30 0 -50 7 -63 12z" />
    <glyph glyph-name="onesuperior" unicode="&#xb9;" horiz-adv-x="314" 
d="M176 405v333l-121 -49l-19 37l149 64h39v-385h-48z" />
    <glyph glyph-name="ordmasculine" unicode="&#xba;" horiz-adv-x="367" 
d="M34 143v43h299v-43h-299zM183 263c-93 0 -153 78 -153 174s60 174 154 174c93 0 153 -78 153 -174s-59 -174 -154 -174zM183 307c63 0 105 54 105 130s-42 130 -104 130c-63 0 -104 -54 -104 -130s41 -130 103 -130z" />
    <glyph glyph-name="guillemotright" unicode="&#xbb;" horiz-adv-x="528" 
d="M81 62l139 179l-139 179l38 28l164 -207l-164 -207zM274 62l139 179l-139 179l38 28l164 -207l-164 -207z" />
    <glyph glyph-name="onequarter" unicode="&#xbc;" horiz-adv-x="825" 
d="M159 0l410 659h52l-410 -659h-52zM190 270v333l-121 -49l-19 37l149 64h39v-385h-48zM439 89v35l191 261h40v-254h53v-42h-53v-89h-48v89h-183zM495 131h76h51v48c0 37 0 73 3 129z" />
    <glyph glyph-name="onehalf" unicode="&#xbd;" horiz-adv-x="825" 
d="M157 0l410 659h52l-410 -659h-52zM190 270v333l-121 -49l-19 37l149 64h39v-385h-48zM508 0c11 195 192 192 192 288c0 32 -24 55 -66 55c-35 0 -65 -13 -93 -30l-20 37c35 22 73 36 114 36c74 0 114 -41 114 -99c0 -112 -164 -121 -187 -242h186v-45h-240z" />
    <glyph glyph-name="threequarters" unicode="&#xbe;" horiz-adv-x="825" 
d="M194 0l410 659h52l-410 -659h-52zM463 89v35l191 261h40v-254h53v-42h-53v-89h-48v89h-183zM519 131h76h51v48c0 37 0 73 3 129zM44 284l14 40c27 -12 56 -18 83 -18c55 0 100 17 100 69c0 26 -15 49 -46 59c-18 6 -33 9 -71 9h-35v43h34c28 0 50 4 66 11
c30 14 40 39 40 59c0 42 -34 58 -71 58c-35 0 -61 -10 -86 -22l-17 39c29 15 66 26 106 26c68 0 117 -39 117 -98c0 -45 -27 -76 -70 -90v-2c51 -10 82 -43 82 -95c0 -57 -44 -109 -149 -109c-30 0 -72 8 -97 21z" />
    <glyph glyph-name="questiondown" unicode="&#xbf;" horiz-adv-x="444" 
d="M263 403c-22 0 -39 19 -39 41s17 41 39 41s39 -19 39 -41s-17 -41 -39 -41zM357 -80l27 -37c-38 -39 -99 -69 -166 -69c-91 0 -148 56 -148 135c0 146 204 175 204 267c0 23 -8 41 -27 61l40 32c28 -28 41 -58 41 -89c0 -124 -203 -148 -203 -269c0 -59 43 -90 96 -90
c55 0 98 23 136 59z" />
    <glyph glyph-name="Agrave" unicode="&#xc0;" horiz-adv-x="568" 
d="M21 0l247 661h32l247 -661h-58l-66 182h-278l-66 -182h-58zM163 228h242l-78 216c-22 62 -33 94 -42 119h-2c-8 -25 -20 -57 -42 -119zM276 696l-81 147h67l58 -147h-44z" />
    <glyph glyph-name="Aacute" unicode="&#xc1;" horiz-adv-x="568" 
d="M21 0l247 661h32l247 -661h-58l-66 182h-278l-66 -182h-58zM163 228h242l-78 216c-22 62 -33 94 -42 119h-2c-8 -25 -20 -57 -42 -119zM248 696l59 147h63l-80 -147h-42z" />
    <glyph glyph-name="Acircumflex" unicode="&#xc2;" horiz-adv-x="568" 
d="M21 0l247 661h32l247 -661h-58l-66 182h-278l-66 -182h-58zM163 228h242l-78 216c-22 62 -33 94 -42 119h-2c-8 -25 -20 -57 -42 -119zM159 696l98 147h57l98 -147h-50l-76 109l-77 -109h-50z" />
    <glyph glyph-name="Atilde" unicode="&#xc3;" horiz-adv-x="568" 
d="M21 0l247 661h32l247 -661h-58l-66 182h-278l-66 -182h-58zM163 228h242l-78 216c-22 62 -33 94 -42 119h-2c-8 -25 -20 -57 -42 -119zM153 729v15c0 45 29 74 66 74c53 0 91 -50 126 -50c22 0 29 20 29 44h41v-15c0 -45 -29 -74 -66 -74c-52 0 -92 50 -126 50
c-22 0 -29 -20 -29 -44h-41z" />
    <glyph glyph-name="Adieresis" unicode="&#xc4;" horiz-adv-x="568" 
d="M21 0l247 661h32l247 -661h-58l-66 182h-278l-66 -182h-58zM163 228h242l-78 216c-22 62 -33 94 -42 119h-2c-8 -25 -20 -57 -42 -119zM198 708c-20 0 -36 16 -36 36s16 36 36 36s36 -16 36 -36s-16 -36 -36 -36zM370 708c-20 0 -36 16 -36 36s16 36 36 36s36 -16 36 -36
s-16 -36 -36 -36z" />
    <glyph glyph-name="Aring" unicode="&#xc5;" horiz-adv-x="568" 
d="M21 0l244 654c-47 7 -79 42 -79 93c0 57 41 94 97 94s97 -37 97 -94c0 -50 -32 -85 -78 -92l245 -655h-58l-66 182h-278l-66 -182h-58zM163 228h242l-78 218c-22 62 -33 94 -42 123h-2c-8 -29 -20 -61 -42 -123zM283 689c32 0 53 23 53 58s-21 58 -53 58s-53 -23 -53 -58
s21 -58 53 -58z" />
    <glyph glyph-name="AE" unicode="&#xc6;" horiz-adv-x="778" 
d="M19 0l338 659h355l-20 -46h-283l44 -252h234v-46h-226l47 -269h212v-46h-259l-32 182h-257l-94 -182h-59zM195 228h226l-37 213c-7 41 -13 84 -20 125h-2c-17 -41 -43 -90 -70 -144z" />
    <glyph glyph-name="Ccedilla" unicode="&#xc7;" horiz-adv-x="574" 
d="M246 -200l12 38c16 -7 32 -11 51 -11c29 0 55 12 55 42c0 38 -43 41 -87 40l26 86c-155 25 -248 153 -248 326c0 193 130 343 318 343c69 0 129 -18 158 -36v-52c-43 23 -90 40 -158 40c-154 0 -262 -128 -262 -290c0 -170 97 -288 254 -288c58 0 110 16 154 39l15 -44
c-56 -30 -132 -47 -185 -42l-15 -47c38 -2 80 -20 80 -72c0 -55 -47 -84 -105 -84c-30 0 -50 7 -63 12z" />
    <glyph glyph-name="Egrave" unicode="&#xc8;" horiz-adv-x="453" 
d="M89 0v659h298l-20 -46h-225v-252h220v-46h-220v-269h253v-46h-306zM227 696l-81 147h67l58 -147h-44z" />
    <glyph glyph-name="Eacute" unicode="&#xc9;" horiz-adv-x="453" 
d="M89 0v659h298l-20 -46h-225v-252h220v-46h-220v-269h253v-46h-306zM199 696l59 147h63l-80 -147h-42z" />
    <glyph glyph-name="Ecircumflex" unicode="&#xca;" horiz-adv-x="453" 
d="M89 0v659h298l-20 -46h-225v-252h220v-46h-220v-269h253v-46h-306zM108 696l98 147h57l98 -147h-50l-76 109l-77 -109h-50z" />
    <glyph glyph-name="Edieresis" unicode="&#xcb;" horiz-adv-x="453" 
d="M89 0v659h298l-20 -46h-225v-252h220v-46h-220v-269h253v-46h-306zM149 708c-20 0 -36 16 -36 36s16 36 36 36s36 -16 36 -36s-16 -36 -36 -36zM321 708c-20 0 -36 16 -36 36s16 36 36 36s36 -16 36 -36s-16 -36 -36 -36z" />
    <glyph glyph-name="Igrave" unicode="&#xcc;" horiz-adv-x="231" 
d="M89 0v659h53v-659h-53zM107 696l-81 147h67l58 -147h-44z" />
    <glyph glyph-name="Iacute" unicode="&#xcd;" horiz-adv-x="231" 
d="M89 0v659h53v-659h-53zM79 696l59 147h63l-80 -147h-42z" />
    <glyph glyph-name="Icircumflex" unicode="&#xce;" horiz-adv-x="231" 
d="M89 0v659h53v-659h-53zM-12 696l98 147h57l98 -147h-50l-76 109l-77 -109h-50z" />
    <glyph glyph-name="Idieresis" unicode="&#xcf;" horiz-adv-x="231" 
d="M89 0v659h53v-659h-53zM29 708c-20 0 -36 16 -36 36s16 36 36 36s36 -16 36 -36s-16 -36 -36 -36zM201 708c-20 0 -36 16 -36 36s16 36 36 36s36 -16 36 -36s-16 -36 -36 -36z" />
    <glyph glyph-name="Eth" unicode="&#xd0;" horiz-adv-x="626" 
d="M89 0v309h-80v46h80v304h137c237 0 345 -142 345 -327c0 -183 -103 -332 -345 -332h-137zM142 46h82c219 0 291 133 291 291c0 157 -89 276 -292 276h-81v-258h170v-46h-170v-263z" />
    <glyph glyph-name="Ntilde" unicode="&#xd1;" horiz-adv-x="702" 
d="M613 0h-41l-330 436c-45 59 -77 105 -100 139h-2c1 -36 2 -60 2 -118v-457h-53v659h49l317 -420c48 -63 82 -112 105 -147h2c-1 36 -2 60 -2 118v449h53v-659zM224 729v15c0 45 29 74 66 74c53 0 91 -50 126 -50c22 0 29 20 29 44h41v-15c0 -45 -29 -74 -66 -74
c-52 0 -92 50 -126 50c-22 0 -29 -20 -29 -44h-41z" />
    <glyph glyph-name="Ograve" unicode="&#xd2;" horiz-adv-x="742" 
d="M371 -10c-179 0 -316 130 -316 336c0 200 135 338 316 338c184 0 316 -142 316 -338c0 -208 -141 -336 -316 -336zM371 38c158 0 260 119 260 288c0 158 -91 290 -260 290c-158 0 -260 -121 -260 -290s102 -288 260 -288zM366 696l-81 147h67l58 -147h-44z" />
    <glyph glyph-name="Oacute" unicode="&#xd3;" horiz-adv-x="742" 
d="M371 -10c-179 0 -316 130 -316 336c0 200 135 338 316 338c184 0 316 -142 316 -338c0 -208 -141 -336 -316 -336zM371 38c158 0 260 119 260 288c0 158 -91 290 -260 290c-158 0 -260 -121 -260 -290s102 -288 260 -288zM338 696l59 147h63l-80 -147h-42z" />
    <glyph glyph-name="Ocircumflex" unicode="&#xd4;" horiz-adv-x="742" 
d="M371 -10c-179 0 -316 130 -316 336c0 200 135 338 316 338c184 0 316 -142 316 -338c0 -208 -141 -336 -316 -336zM371 38c158 0 260 119 260 288c0 158 -91 290 -260 290c-158 0 -260 -121 -260 -290s102 -288 260 -288zM246 696l98 147h57l98 -147h-50l-76 109
l-77 -109h-50z" />
    <glyph glyph-name="Otilde" unicode="&#xd5;" horiz-adv-x="742" 
d="M371 -10c-179 0 -316 130 -316 336c0 200 135 338 316 338c184 0 316 -142 316 -338c0 -208 -141 -336 -316 -336zM371 38c158 0 260 119 260 288c0 158 -91 290 -260 290c-158 0 -260 -121 -260 -290s102 -288 260 -288zM243 729v15c0 45 29 74 66 74
c53 0 91 -50 126 -50c22 0 29 20 29 44h41v-15c0 -45 -29 -74 -66 -74c-52 0 -92 50 -126 50c-22 0 -29 -20 -29 -44h-41z" />
    <glyph glyph-name="Odieresis" unicode="&#xd6;" horiz-adv-x="742" 
d="M371 -10c-179 0 -316 130 -316 336c0 200 135 338 316 338c184 0 316 -142 316 -338c0 -208 -141 -336 -316 -336zM371 38c158 0 260 119 260 288c0 158 -91 290 -260 290c-158 0 -260 -121 -260 -290s102 -288 260 -288zM288 708c-20 0 -36 16 -36 36s16 36 36 36
s36 -16 36 -36s-16 -36 -36 -36zM460 708c-20 0 -36 16 -36 36s16 36 36 36s36 -16 36 -36s-16 -36 -36 -36z" />
    <glyph glyph-name="multiply" unicode="&#xd7;" horiz-adv-x="511" 
d="M70 33l-36 36l185 186l-185 184l36 36l185 -184l185 185l36 -36l-185 -185l185 -186l-36 -36l-185 186z" />
    <glyph glyph-name="Oslash" unicode="&#xd8;" horiz-adv-x="742" 
d="M92 -7l-37 32l72 77c-45 57 -72 133 -72 224c0 200 135 338 316 338c81 0 152 -29 206 -76l73 80l37 -32l-77 -83c48 -58 77 -137 77 -227c0 -208 -141 -336 -316 -336c-82 0 -155 28 -211 78zM575 516l-381 -412c45 -42 105 -66 177 -66c158 0 260 119 260 288
c0 72 -19 139 -56 190zM163 141l381 411c-43 40 -101 64 -173 64c-158 0 -260 -121 -260 -290c0 -73 18 -137 52 -185z" />
    <glyph glyph-name="Ugrave" unicode="&#xd9;" horiz-adv-x="633" 
d="M316 -10c-119 0 -193 52 -221 146c-8 29 -11 61 -11 96v427h53v-421c0 -35 3 -66 12 -93c23 -68 78 -108 168 -108s144 40 167 108c9 27 12 58 12 97v417h53v-427c0 -37 -4 -70 -13 -99c-29 -92 -104 -143 -220 -143zM309 696l-81 147h67l58 -147h-44z" />
    <glyph glyph-name="Uacute" unicode="&#xda;" horiz-adv-x="633" 
d="M316 -10c-119 0 -193 52 -221 146c-8 29 -11 61 -11 96v427h53v-421c0 -35 3 -66 12 -93c23 -68 78 -108 168 -108s144 40 167 108c9 27 12 58 12 97v417h53v-427c0 -37 -4 -70 -13 -99c-29 -92 -104 -143 -220 -143zM289 696l59 147h63l-80 -147h-42z" />
    <glyph glyph-name="Ucircumflex" unicode="&#xdb;" horiz-adv-x="633" 
d="M316 -10c-119 0 -193 52 -221 146c-8 29 -11 61 -11 96v427h53v-421c0 -35 3 -66 12 -93c23 -68 78 -108 168 -108s144 40 167 108c9 27 12 58 12 97v417h53v-427c0 -37 -4 -70 -13 -99c-29 -92 -104 -143 -220 -143zM194 696l98 147h57l98 -147h-50l-76 109l-77 -109
h-50z" />
    <glyph glyph-name="Udieresis" unicode="&#xdc;" horiz-adv-x="633" 
d="M316 -10c-119 0 -193 52 -221 146c-8 29 -11 61 -11 96v427h53v-421c0 -35 3 -66 12 -93c23 -68 78 -108 168 -108s144 40 167 108c9 27 12 58 12 97v417h53v-427c0 -37 -4 -70 -13 -99c-29 -92 -104 -143 -220 -143zM235 708c-20 0 -36 16 -36 36s16 36 36 36
s36 -16 36 -36s-16 -36 -36 -36zM407 708c-20 0 -36 16 -36 36s16 36 36 36s36 -16 36 -36s-16 -36 -36 -36z" />
    <glyph glyph-name="Yacute" unicode="&#xdd;" horiz-adv-x="514" 
d="M233 0v264l-214 395h61l180 -337h2l174 337h59l-209 -396v-263h-53zM225 696l59 147h63l-80 -147h-42z" />
    <glyph glyph-name="Thorn" unicode="&#xde;" horiz-adv-x="483" 
d="M89 0v659h53v-116h55c66 0 108 -11 141 -31c56 -34 90 -94 90 -174c0 -77 -33 -143 -103 -178c-32 -16 -73 -26 -133 -26h-50v-134h-53zM142 180h55c47 0 80 9 104 22c48 25 72 72 72 136c0 61 -24 109 -67 135c-25 15 -58 24 -107 24h-57v-317z" />
    <glyph glyph-name="germandbls" unicode="&#xdf;" horiz-adv-x="548" 
d="M70 -141v640c0 167 110 209 190 209c92 0 182 -53 182 -198v-22c-71 -14 -106 -37 -106 -82c0 -100 174 -109 174 -269c0 -101 -75 -147 -165 -147c-58 0 -104 20 -130 37l18 44c24 -14 58 -33 109 -33c64 0 114 24 114 98c0 132 -174 134 -174 264c0 61 36 104 108 123
c-3 90 -49 138 -131 138c-71 0 -136 -42 -136 -162v-640h-53z" />
    <glyph glyph-name="agrave" unicode="&#xe0;" horiz-adv-x="448" 
d="M344 0l-12 57c-38 -38 -86 -67 -145 -67c-84 0 -147 53 -147 144c0 63 33 106 80 128c32 15 68 19 116 21l95 3v36c0 80 -46 115 -107 115c-62 0 -100 -21 -133 -41l-23 41c55 36 112 48 158 48c86 0 158 -43 158 -156v-150c0 -110 4 -156 10 -179h-50zM331 240l-92 -3
c-45 -1 -74 -8 -97 -20c-31 -16 -46 -47 -46 -81c0 -57 36 -98 95 -98c66 0 114 46 140 74v128zM213 531l-81 147h67l58 -147h-44z" />
    <glyph glyph-name="aacute" unicode="&#xe1;" horiz-adv-x="448" 
d="M344 0l-12 57c-38 -38 -86 -67 -145 -67c-84 0 -147 53 -147 144c0 63 33 106 80 128c32 15 68 19 116 21l95 3v36c0 80 -46 115 -107 115c-62 0 -100 -21 -133 -41l-23 41c55 36 112 48 158 48c86 0 158 -43 158 -156v-150c0 -110 4 -156 10 -179h-50zM331 240l-92 -3
c-45 -1 -74 -8 -97 -20c-31 -16 -46 -47 -46 -81c0 -57 36 -98 95 -98c66 0 114 46 140 74v128zM185 531l59 147h63l-80 -147h-42z" />
    <glyph glyph-name="acircumflex" unicode="&#xe2;" horiz-adv-x="448" 
d="M344 0l-12 57c-38 -38 -86 -67 -145 -67c-84 0 -147 53 -147 144c0 63 33 106 80 128c32 15 68 19 116 21l95 3v36c0 80 -46 115 -107 115c-62 0 -100 -21 -133 -41l-23 41c55 36 112 48 158 48c86 0 158 -43 158 -156v-150c0 -110 4 -156 10 -179h-50zM331 240l-92 -3
c-45 -1 -74 -8 -97 -20c-31 -16 -46 -47 -46 -81c0 -57 36 -98 95 -98c66 0 114 46 140 74v128zM94 531l98 147h57l98 -147h-50l-76 109l-77 -109h-50z" />
    <glyph glyph-name="atilde" unicode="&#xe3;" horiz-adv-x="448" 
d="M344 0l-12 57c-38 -38 -86 -67 -145 -67c-84 0 -147 53 -147 144c0 63 33 106 80 128c32 15 68 19 116 21l95 3v36c0 80 -46 115 -107 115c-62 0 -100 -21 -133 -41l-23 41c55 36 112 48 158 48c86 0 158 -43 158 -156v-150c0 -110 4 -156 10 -179h-50zM331 240l-92 -3
c-45 -1 -74 -8 -97 -20c-31 -16 -46 -47 -46 -81c0 -57 36 -98 95 -98c66 0 114 46 140 74v128zM90 557v15c0 45 29 74 66 74c53 0 91 -50 126 -50c22 0 29 20 29 44h41v-15c0 -45 -29 -74 -66 -74c-52 0 -92 50 -126 50c-22 0 -29 -20 -29 -44h-41z" />
    <glyph glyph-name="adieresis" unicode="&#xe4;" horiz-adv-x="448" 
d="M344 0l-12 57c-38 -38 -86 -67 -145 -67c-84 0 -147 53 -147 144c0 63 33 106 80 128c32 15 68 19 116 21l95 3v36c0 80 -46 115 -107 115c-62 0 -100 -21 -133 -41l-23 41c55 36 112 48 158 48c86 0 158 -43 158 -156v-150c0 -110 4 -156 10 -179h-50zM331 240l-92 -3
c-45 -1 -74 -8 -97 -20c-31 -16 -46 -47 -46 -81c0 -57 36 -98 95 -98c66 0 114 46 140 74v128zM135 568c-20 0 -36 16 -36 36s16 36 36 36s36 -16 36 -36s-16 -36 -36 -36zM307 568c-20 0 -36 16 -36 36s16 36 36 36s36 -16 36 -36s-16 -36 -36 -36z" />
    <glyph glyph-name="aring" unicode="&#xe5;" horiz-adv-x="448" 
d="M344 0l-12 57c-38 -38 -86 -67 -145 -67c-84 0 -147 53 -147 144c0 63 33 106 80 128c32 15 68 19 116 21l95 3v36c0 80 -46 115 -107 115c-62 0 -100 -21 -133 -41l-23 41c55 36 112 48 158 48c86 0 158 -43 158 -156v-150c0 -110 4 -156 10 -179h-50zM331 240l-92 -3
c-45 -1 -74 -8 -97 -20c-31 -16 -46 -47 -46 -81c0 -57 36 -98 95 -98c66 0 114 46 140 74v128zM221 524c-56 0 -97 37 -97 94s41 94 97 94s97 -37 97 -94s-41 -94 -97 -94zM221 560c32 0 53 23 53 58s-21 58 -53 58s-53 -23 -53 -58s21 -58 53 -58z" />
    <glyph glyph-name="ae" unicode="&#xe6;" horiz-adv-x="736" 
d="M187 -10c-80 0 -147 53 -147 144c0 96 74 144 193 144h98v44c0 80 -46 115 -107 115c-62 0 -100 -22 -133 -42l-23 42c55 36 112 48 158 48c63 0 118 -25 142 -85h2c33 56 84 85 144 85c114 0 179 -93 179 -239v-14h-309c1 -106 59 -194 168 -194c43 0 83 14 115 32
l18 -39c-37 -25 -93 -41 -143 -41c-81 0 -141 39 -176 99c-41 -54 -103 -99 -179 -99zM191 38c64 0 121 48 154 96c-10 29 -15 62 -15 98h-91c-92 0 -143 -32 -143 -98c0 -55 36 -96 95 -96zM385 278h250c-2 81 -40 160 -120 160c-78 0 -128 -71 -130 -160z" />
    <glyph glyph-name="ccedilla" unicode="&#xe7;" horiz-adv-x="415" 
d="M152 -200l12 38c16 -7 32 -11 51 -11c29 0 55 12 55 42c0 43 -54 39 -87 40l26 86c-109 23 -167 121 -167 236c0 135 81 254 229 254c42 0 83 -11 113 -27v-50c-30 17 -67 30 -113 30c-106 0 -173 -85 -173 -200c0 -127 65 -200 167 -200c53 0 88 17 116 33l18 -40
c-33 -21 -84 -41 -139 -41h-5l-15 -46c38 -2 80 -20 80 -72c0 -55 -47 -84 -105 -84c-30 0 -50 7 -63 12z" />
    <glyph glyph-name="egrave" unicode="&#xe8;" horiz-adv-x="450" 
d="M407 232h-309c1 -106 58 -194 168 -194c43 0 83 14 115 32l18 -39c-37 -25 -93 -41 -143 -41c-140 0 -214 113 -214 255c0 145 80 240 186 240c114 0 179 -93 179 -239v-14zM99 278h250c-2 81 -40 160 -120 160c-78 0 -128 -71 -130 -160zM223 531l-81 147h67l58 -147
h-44z" />
    <glyph glyph-name="eacute" unicode="&#xe9;" horiz-adv-x="450" 
d="M407 232h-309c1 -106 58 -194 168 -194c43 0 83 14 115 32l18 -39c-37 -25 -93 -41 -143 -41c-140 0 -214 113 -214 255c0 145 80 240 186 240c114 0 179 -93 179 -239v-14zM99 278h250c-2 81 -40 160 -120 160c-78 0 -128 -71 -130 -160zM195 531l59 147h63l-80 -147
h-42z" />
    <glyph glyph-name="ecircumflex" unicode="&#xea;" horiz-adv-x="450" 
d="M407 232h-309c1 -106 58 -194 168 -194c43 0 83 14 115 32l18 -39c-37 -25 -93 -41 -143 -41c-140 0 -214 113 -214 255c0 145 80 240 186 240c114 0 179 -93 179 -239v-14zM99 278h250c-2 81 -40 160 -120 160c-78 0 -128 -71 -130 -160zM104 531l98 147h57l98 -147h-50
l-76 109l-77 -109h-50z" />
    <glyph glyph-name="edieresis" unicode="&#xeb;" horiz-adv-x="450" 
d="M407 232h-309c1 -106 58 -194 168 -194c43 0 83 14 115 32l18 -39c-37 -25 -93 -41 -143 -41c-140 0 -214 113 -214 255c0 145 80 240 186 240c114 0 179 -93 179 -239v-14zM99 278h250c-2 81 -40 160 -120 160c-78 0 -128 -71 -130 -160zM145 568c-20 0 -36 16 -36 36
s16 36 36 36s36 -16 36 -36s-16 -36 -36 -36zM317 568c-20 0 -36 16 -36 36s16 36 36 36s36 -16 36 -36s-16 -36 -36 -36z" />
    <glyph glyph-name="igrave" unicode="&#xec;" horiz-adv-x="219" 
d="M103 531l-81 147h67l58 -147h-44zM83 0v473h53v-473h-53z" />
    <glyph glyph-name="iacute" unicode="&#xed;" horiz-adv-x="219" 
d="M75 531l59 147h63l-80 -147h-42zM83 0v473h53v-473h-53z" />
    <glyph glyph-name="icircumflex" unicode="&#xee;" horiz-adv-x="219" 
d="M83 0v473h53v-473h-53zM-16 531l98 147h57l98 -147h-50l-76 109l-77 -109h-50z" />
    <glyph glyph-name="idieresis" unicode="&#xef;" horiz-adv-x="219" 
d="M25 568c-20 0 -36 16 -36 36s16 36 36 36s36 -16 36 -36s-16 -36 -36 -36zM197 568c-20 0 -36 16 -36 36s16 36 36 36s36 -16 36 -36s-16 -36 -36 -36zM83 0v473h53v-473h-53z" />
    <glyph glyph-name="eth" unicode="&#xf0;" horiz-adv-x="527" 
d="M421 670l-95 -45c105 -78 138 -213 138 -338c0 -198 -86 -297 -212 -297c-128 0 -210 110 -210 247c0 138 81 248 210 248c65 0 127 -37 158 -93h2c-12 72 -56 157 -132 211l-129 -60l-19 39l103 47c-36 18 -80 29 -127 33l9 46c68 -9 129 -29 170 -55l115 55zM252 38
c93 0 155 80 155 205c0 112 -60 195 -154 195c-93 0 -155 -83 -155 -201c0 -117 62 -199 154 -199z" />
    <glyph glyph-name="ntilde" unicode="&#xf1;" horiz-adv-x="493" 
d="M70 0v473h44l8 -64c52 45 106 76 167 76c74 0 136 -51 136 -164v-321h-53v302c0 76 -21 134 -91 134c-58 0 -109 -37 -158 -81v-355h-53zM107 557v15c0 45 29 74 66 74c53 0 91 -50 126 -50c22 0 29 20 29 44h41v-15c0 -45 -29 -74 -66 -74c-52 0 -92 50 -126 50
c-22 0 -29 -20 -29 -44h-41z" />
    <glyph glyph-name="ograve" unicode="&#xf2;" horiz-adv-x="505" 
d="M252 -10c-128 0 -210 110 -210 247c0 138 81 248 211 248c128 0 210 -110 210 -248c0 -137 -81 -247 -211 -247zM252 38c93 0 155 82 155 199c0 118 -62 200 -154 200c-93 0 -155 -82 -155 -200c0 -117 62 -199 154 -199zM239 531l-81 147h67l58 -147h-44z" />
    <glyph glyph-name="oacute" unicode="&#xf3;" horiz-adv-x="505" 
d="M252 -10c-128 0 -210 110 -210 247c0 138 81 248 211 248c128 0 210 -110 210 -248c0 -137 -81 -247 -211 -247zM252 38c93 0 155 82 155 199c0 118 -62 200 -154 200c-93 0 -155 -82 -155 -200c0 -117 62 -199 154 -199zM229 531l59 147h63l-80 -147h-42z" />
    <glyph glyph-name="ocircumflex" unicode="&#xf4;" horiz-adv-x="505" 
d="M252 -10c-128 0 -210 110 -210 247c0 138 81 248 211 248c128 0 210 -110 210 -248c0 -137 -81 -247 -211 -247zM252 38c93 0 155 82 155 199c0 118 -62 200 -154 200c-93 0 -155 -82 -155 -200c0 -117 62 -199 154 -199zM126 531l98 147h57l98 -147h-50l-76 109
l-77 -109h-50z" />
    <glyph glyph-name="otilde" unicode="&#xf5;" horiz-adv-x="505" 
d="M252 -10c-128 0 -210 110 -210 247c0 138 81 248 211 248c128 0 210 -110 210 -248c0 -137 -81 -247 -211 -247zM252 38c93 0 155 82 155 199c0 118 -62 200 -154 200c-93 0 -155 -82 -155 -200c0 -117 62 -199 154 -199zM122 557v15c0 45 29 74 66 74
c53 0 91 -50 126 -50c22 0 29 20 29 44h41v-15c0 -45 -29 -74 -66 -74c-52 0 -92 50 -126 50c-22 0 -29 -20 -29 -44h-41z" />
    <glyph glyph-name="odieresis" unicode="&#xf6;" horiz-adv-x="505" 
d="M252 -10c-128 0 -210 110 -210 247c0 138 81 248 211 248c128 0 210 -110 210 -248c0 -137 -81 -247 -211 -247zM252 38c93 0 155 82 155 199c0 118 -62 200 -154 200c-93 0 -155 -82 -155 -200c0 -117 62 -199 154 -199zM167 568c-20 0 -36 16 -36 36s16 36 36 36
s36 -16 36 -36s-16 -36 -36 -36zM339 568c-20 0 -36 16 -36 36s16 36 36 36s36 -16 36 -36s-16 -36 -36 -36z" />
    <glyph glyph-name="divide" unicode="&#xf7;" horiz-adv-x="511" 
d="M255 382c-22 0 -39 19 -39 41s17 41 39 41s39 -19 39 -41s-17 -41 -39 -41zM18 231v47h475v-47h-475zM255 44c-22 0 -39 19 -39 41s17 41 39 41s39 -19 39 -41s-17 -41 -39 -41z" />
    <glyph glyph-name="oslash" unicode="&#xf8;" horiz-adv-x="505" 
d="M76 -17l-35 30l51 60c-31 43 -50 101 -50 164c0 138 81 248 211 248c53 0 98 -20 133 -52l43 54l35 -30l-49 -58c30 -43 48 -99 48 -162c0 -137 -81 -247 -211 -247c-52 0 -97 19 -131 50zM153 78c26 -26 60 -40 99 -40c93 0 155 82 155 199c0 46 -9 87 -26 120zM126 115
l228 280c-26 27 -61 43 -101 43c-93 0 -155 -83 -155 -201c0 -47 10 -90 28 -122z" />
    <glyph glyph-name="ugrave" unicode="&#xf9;" horiz-adv-x="492" 
d="M200 -10c-45 0 -100 21 -120 86c-8 26 -10 47 -10 80v317h53v-297c0 -34 1 -58 8 -80c12 -40 40 -57 81 -57c62 0 122 40 149 77v357h53v-294c0 -110 4 -156 10 -179h-50l-12 57c-45 -39 -100 -67 -162 -67zM230 531l-81 147h67l58 -147h-44z" />
    <glyph glyph-name="uacute" unicode="&#xfa;" horiz-adv-x="492" 
d="M200 -10c-45 0 -100 21 -120 86c-8 26 -10 47 -10 80v317h53v-297c0 -34 1 -58 8 -80c12 -40 40 -57 81 -57c62 0 122 40 149 77v357h53v-294c0 -110 4 -156 10 -179h-50l-12 57c-45 -39 -100 -67 -162 -67zM213 531l59 147h63l-80 -147h-42z" />
    <glyph glyph-name="ucircumflex" unicode="&#xfb;" horiz-adv-x="492" 
d="M200 -10c-45 0 -100 21 -120 86c-8 26 -10 47 -10 80v317h53v-297c0 -34 1 -58 8 -80c12 -40 40 -57 81 -57c62 0 122 40 149 77v357h53v-294c0 -110 4 -156 10 -179h-50l-12 57c-45 -39 -100 -67 -162 -67zM119 531l98 147h57l98 -147h-50l-76 109l-77 -109h-50z" />
    <glyph glyph-name="udieresis" unicode="&#xfc;" horiz-adv-x="492" 
d="M200 -10c-45 0 -100 21 -120 86c-8 26 -10 47 -10 80v317h53v-297c0 -34 1 -58 8 -80c12 -40 40 -57 81 -57c62 0 122 40 149 77v357h53v-294c0 -110 4 -156 10 -179h-50l-12 57c-45 -39 -100 -67 -162 -67zM160 568c-20 0 -36 16 -36 36s16 36 36 36s36 -16 36 -36
s-16 -36 -36 -36zM332 568c-20 0 -36 16 -36 36s16 36 36 36s36 -16 36 -36s-16 -36 -36 -36z" />
    <glyph glyph-name="yacute" unicode="&#xfd;" horiz-adv-x="443" 
d="M431 473l-175 -519c-55 -164 -125 -191 -198 -191c-33 0 -54 5 -74 13l12 47c17 -7 38 -12 63 -12c66 0 120 49 158 183l-206 479h59l170 -404h2l132 404h57zM191 531l59 147h63l-80 -147h-42z" />
    <glyph glyph-name="thorn" unicode="&#xfe;" horiz-adv-x="492" 
d="M73 -237v945h53v-235c25 7 63 12 92 12c142 0 232 -87 232 -245s-104 -250 -235 -250c-33 0 -65 8 -89 19v-246h-53zM126 61c30 -16 55 -23 89 -23c115 0 179 81 179 204c0 136 -79 196 -177 196c-33 0 -61 -5 -91 -15v-362z" />
    <glyph glyph-name="ydieresis" unicode="&#xff;" horiz-adv-x="443" 
d="M431 473l-175 -519c-55 -164 -125 -191 -198 -191c-33 0 -54 5 -74 13l12 47c17 -7 38 -12 63 -12c66 0 120 49 158 183l-206 479h59l170 -404h2l132 404h57zM141 568c-20 0 -36 16 -36 36s16 36 36 36s36 -16 36 -36s-16 -36 -36 -36zM313 568c-20 0 -36 16 -36 36
s16 36 36 36s36 -16 36 -36s-16 -36 -36 -36z" />
    <glyph glyph-name="parenleftsuperior" unicode="&#x207d;" horiz-adv-x="244" 
d="M167 357c-71 66 -102 150 -102 239s31 173 102 239l30 -25c-55 -58 -83 -127 -83 -214s28 -156 83 -214z" />
    <glyph glyph-name="parenrightsuperior" unicode="&#x207e;" horiz-adv-x="244" 
d="M47 382c55 58 83 127 83 214s-28 156 -83 214l30 25c71 -66 102 -150 102 -239s-31 -173 -102 -239z" />
    <glyph glyph-name="parenleftinferior" unicode="&#x208d;" horiz-adv-x="244" 
d="M167 -228c-71 66 -102 150 -102 239s31 173 102 239l30 -25c-55 -58 -83 -127 -83 -214s28 -156 83 -214z" />
    <glyph glyph-name="parenrightinferior" unicode="&#x208e;" horiz-adv-x="244" 
d="M47 -203c55 58 83 127 83 214s-28 156 -83 214l30 25c71 -66 102 -150 102 -239s-31 -173 -102 -239z" />
    <glyph glyph-name="oneeighth" unicode="&#x215b;" horiz-adv-x="825" 
d="M150 0l410 659h52l-410 -659h-52zM183 270v333l-121 -49l-19 37l149 64h39v-385h-48zM623 -8c-76 0 -129 38 -129 104c0 54 35 85 75 99v2c-33 15 -63 42 -63 90c0 61 49 99 119 99c69 0 118 -39 118 -99c0 -45 -29 -75 -63 -89v-2c36 -12 78 -38 78 -97
c0 -68 -62 -107 -135 -107zM624 35c42 0 85 20 85 65c0 43 -39 63 -91 76c-35 -9 -75 -32 -75 -76c0 -45 40 -65 81 -65zM630 216c28 9 64 33 64 72c0 31 -27 55 -69 55c-40 0 -70 -20 -70 -55c0 -41 34 -61 75 -72z" />
    <glyph glyph-name="threeeighths" unicode="&#x215c;" horiz-adv-x="825" 
d="M173 0l410 659h52l-410 -659h-52zM634 -8c-76 0 -129 38 -129 104c0 54 35 85 75 99v2c-33 15 -63 42 -63 90c0 61 49 99 119 99c69 0 118 -39 118 -99c0 -45 -29 -75 -63 -89v-2c36 -12 78 -38 78 -97c0 -68 -62 -107 -135 -107zM635 35c42 0 85 20 85 65
c0 43 -39 63 -91 76c-35 -9 -75 -32 -75 -76c0 -45 40 -65 81 -65zM641 216c28 9 64 33 64 72c0 31 -27 55 -69 55c-40 0 -70 -20 -70 -55c0 -41 34 -61 75 -72zM48 284l14 40c27 -12 56 -18 83 -18c55 0 100 17 100 69c0 26 -15 49 -46 59c-18 6 -33 9 -71 9h-35v43h34
c28 0 50 4 66 11c30 14 40 39 40 59c0 42 -34 58 -71 58c-35 0 -61 -10 -86 -22l-17 39c29 15 66 26 106 26c68 0 117 -39 117 -98c0 -45 -27 -76 -70 -90v-2c51 -10 82 -43 82 -95c0 -57 -44 -109 -149 -109c-30 0 -72 8 -97 21z" />
    <glyph glyph-name="fiveeighths" unicode="&#x215d;" horiz-adv-x="825" 
d="M160 0l410 659h52l-410 -659h-52zM45 284l14 41c26 -14 50 -19 77 -19c56 0 94 24 94 77c0 32 -14 49 -34 60c-18 9 -41 12 -81 12h-43v193h208l-11 -42h-149v-109h17c35 0 61 -5 82 -14c41 -18 60 -53 60 -98c0 -71 -52 -122 -142 -122c-35 0 -68 8 -92 21zM633 -8
c-76 0 -129 38 -129 104c0 54 35 85 75 99v2c-33 15 -63 42 -63 90c0 61 49 99 119 99c69 0 118 -39 118 -99c0 -45 -29 -75 -63 -89v-2c36 -12 78 -38 78 -97c0 -68 -62 -107 -135 -107zM634 35c42 0 85 20 85 65c0 43 -39 63 -91 76c-35 -9 -75 -32 -75 -76
c0 -45 40 -65 81 -65zM640 216c28 9 64 33 64 72c0 31 -27 55 -69 55c-40 0 -70 -20 -70 -55c0 -41 34 -61 75 -72z" />
    <glyph glyph-name="seveneighths" unicode="&#x215e;" horiz-adv-x="825" 
d="M146 0l410 659h52l-410 -659h-52zM619 -8c-76 0 -129 38 -129 104c0 54 35 85 75 99v2c-33 15 -63 42 -63 90c0 61 49 99 119 99c69 0 118 -39 118 -99c0 -45 -29 -75 -63 -89v-2c36 -12 78 -38 78 -97c0 -68 -62 -107 -135 -107zM620 35c42 0 85 20 85 65
c0 43 -39 63 -91 76c-35 -9 -75 -32 -75 -76c0 -45 40 -65 81 -65zM626 216c28 9 64 33 64 72c0 31 -27 55 -69 55c-40 0 -70 -20 -70 -55c0 -41 34 -61 75 -72zM129 270c34 150 96 258 153 335h-180l-11 42h255v-23c-76 -95 -134 -204 -166 -354h-51z" />
    <glyph glyph-name="onethird" unicode="&#x2153;" horiz-adv-x="825" 
d="M157 0l410 659h52l-410 -659h-52zM190 270v333l-121 -49l-19 37l149 64h39v-385h-48zM508 13l14 40c27 -12 56 -18 83 -18c55 0 100 17 100 69c0 26 -15 49 -46 59c-18 6 -33 9 -71 9h-35v43h34c28 0 50 4 66 11c30 14 40 39 40 59c0 42 -34 58 -71 58
c-35 0 -61 -10 -86 -22l-17 39c29 15 66 26 106 26c68 0 117 -39 117 -98c0 -45 -27 -76 -70 -90v-2c51 -10 82 -43 82 -95c0 -57 -44 -109 -149 -109c-30 0 -72 8 -97 21z" />
    <glyph glyph-name="twothirds" unicode="&#x2154;" horiz-adv-x="825" 
d="M166 0l410 659h52l-410 -659h-52zM33 270c11 195 192 192 192 288c0 32 -24 55 -66 55c-35 0 -65 -13 -93 -30l-20 37c35 22 73 36 114 36c74 0 114 -41 114 -99c0 -112 -164 -121 -187 -242h186v-45h-240zM508 13l14 40c27 -12 56 -18 83 -18c55 0 100 17 100 69
c0 26 -15 49 -46 59c-18 6 -33 9 -71 9h-35v43h34c28 0 50 4 66 11c30 14 40 39 40 59c0 42 -34 58 -71 58c-35 0 -61 -10 -86 -22l-17 39c29 15 66 26 106 26c68 0 117 -39 117 -98c0 -45 -27 -76 -70 -90v-2c51 -10 82 -43 82 -95c0 -57 -44 -109 -149 -109
c-30 0 -72 8 -97 21z" />
    <glyph glyph-name="zerosuperior" unicode="&#x2070;" 
d="M179 397c-77 0 -133 70 -133 198s57 196 135 196c77 0 134 -70 134 -199c0 -127 -58 -195 -136 -195zM182 440c58 0 84 68 84 150c0 101 -34 158 -87 158c-57 0 -84 -68 -84 -149c0 -101 35 -159 87 -159z" />
    <glyph glyph-name="foursuperior" unicode="&#x2074;" 
d="M37 494v35l191 261h40v-254h53v-42h-53v-89h-48v89h-183zM93 536h76h51v48c0 37 0 73 3 129z" />
    <glyph glyph-name="fivesuperior" unicode="&#x2075;" horiz-adv-x="322" 
d="M36 418l14 41c26 -14 50 -19 77 -19c56 0 94 24 94 77c0 32 -14 49 -34 60c-18 9 -41 12 -81 12h-43v193h208l-11 -42h-149v-109h17c35 0 61 -5 82 -14c41 -18 60 -53 60 -98c0 -71 -52 -122 -142 -122c-35 0 -68 8 -92 21z" />
    <glyph glyph-name="sixsuperior" unicode="&#x2076;" horiz-adv-x="338" 
d="M178 397c-70 0 -132 56 -132 181c0 117 67 213 169 213c26 0 46 -4 68 -14l-14 -41c-11 6 -29 12 -53 12c-59 0 -106 -48 -117 -129h2c23 14 52 24 82 24c68 0 119 -45 119 -121c0 -78 -55 -125 -124 -125zM181 440c43 0 72 26 72 80c0 49 -31 80 -76 80
c-28 0 -59 -14 -80 -29c-2 -74 30 -131 84 -131z" />
    <glyph glyph-name="sevensuperior" unicode="&#x2077;" horiz-adv-x="303" 
d="M62 405c34 150 96 258 153 335h-180l-11 42h255v-23c-76 -95 -134 -204 -166 -354h-51z" />
    <glyph glyph-name="eightsuperior" unicode="&#x2078;" 
d="M177 397c-76 0 -129 38 -129 104c0 54 35 85 75 99v2c-33 15 -63 42 -63 90c0 61 49 99 119 99c69 0 118 -39 118 -99c0 -45 -29 -75 -63 -89v-2c36 -12 78 -38 78 -97c0 -68 -62 -107 -135 -107zM178 440c42 0 85 20 85 65c0 43 -39 63 -91 76c-35 -9 -75 -32 -75 -76
c0 -45 40 -65 81 -65zM184 621c28 9 64 33 64 72c0 31 -27 55 -69 55c-40 0 -70 -20 -70 -55c0 -41 34 -61 75 -72z" />
    <glyph glyph-name="ninesuperior" unicode="&#x2079;" horiz-adv-x="338" 
d="M128 397c-24 0 -53 4 -82 16l14 42c23 -11 44 -15 67 -15c65 0 110 47 116 136h-2c-22 -18 -51 -31 -87 -31c-60 0 -118 35 -118 120c0 73 50 126 121 126c81 0 135 -62 135 -186s-58 -208 -164 -208zM160 588c32 0 66 20 81 41c-1 75 -35 119 -85 119
c-44 0 -71 -33 -71 -79c0 -48 26 -81 75 -81z" />
    <glyph glyph-name="zeroinferior" unicode="&#x2080;" 
d="M179 -188c-77 0 -133 70 -133 198s57 196 135 196c77 0 134 -70 134 -199c0 -127 -58 -195 -136 -195zM182 -145c58 0 84 68 84 150c0 101 -34 158 -87 158c-57 0 -84 -68 -84 -149c0 -101 35 -159 87 -159z" />
    <glyph glyph-name="oneinferior" unicode="&#x2081;" horiz-adv-x="314" 
d="M176 -180v333l-121 -49l-19 37l149 64h39v-385h-48z" />
    <glyph glyph-name="twoinferior" unicode="&#x2082;" horiz-adv-x="318" 
d="M33 -180c11 195 192 192 192 288c0 32 -24 55 -66 55c-35 0 -65 -13 -93 -30l-20 37c35 22 73 36 114 36c74 0 114 -41 114 -99c0 -112 -164 -121 -187 -242h186v-45h-240z" />
    <glyph glyph-name="threeinferior" unicode="&#x2083;" horiz-adv-x="322" 
d="M23 -167l14 40c27 -12 56 -18 83 -18c55 0 100 17 100 69c0 26 -15 49 -46 59c-18 6 -33 9 -71 9h-35v43h34c28 0 50 4 66 11c30 14 40 39 40 59c0 42 -34 58 -71 58c-35 0 -61 -10 -86 -22l-17 39c29 15 66 26 106 26c68 0 117 -39 117 -98c0 -45 -27 -76 -70 -90v-2
c51 -10 82 -43 82 -95c0 -57 -44 -109 -149 -109c-30 0 -72 8 -97 21z" />
    <glyph glyph-name="fourinferior" unicode="&#x2084;" 
d="M37 -91v35l191 261h40v-254h53v-42h-53v-89h-48v89h-183zM93 -49h76h51v48c0 37 0 73 3 129z" />
    <glyph glyph-name="fiveinferior" unicode="&#x2085;" horiz-adv-x="322" 
d="M36 -167l14 41c26 -14 50 -19 77 -19c56 0 94 24 94 77c0 32 -14 49 -34 60c-18 9 -41 12 -81 12h-43v193h208l-11 -42h-149v-109h17c35 0 61 -5 82 -14c41 -18 60 -53 60 -98c0 -71 -52 -122 -142 -122c-35 0 -68 8 -92 21z" />
    <glyph glyph-name="sixinferior" unicode="&#x2086;" horiz-adv-x="338" 
d="M178 -188c-70 0 -132 56 -132 181c0 117 67 213 169 213c26 0 46 -4 68 -14l-14 -41c-11 6 -29 12 -53 12c-59 0 -106 -48 -117 -129h2c23 14 52 24 82 24c68 0 119 -45 119 -121c0 -78 -55 -125 -124 -125zM181 -145c43 0 72 26 72 80c0 49 -31 80 -76 80
c-28 0 -59 -14 -80 -29c-2 -74 30 -131 84 -131z" />
    <glyph glyph-name="seveninferior" unicode="&#x2087;" horiz-adv-x="303" 
d="M62 -180c34 150 96 258 153 335h-180l-11 42h255v-23c-76 -95 -134 -204 -166 -354h-51z" />
    <glyph glyph-name="eightinferior" unicode="&#x2088;" 
d="M177 -188c-76 0 -129 38 -129 104c0 54 35 85 75 99v2c-33 15 -63 42 -63 90c0 61 49 99 119 99c69 0 118 -39 118 -99c0 -45 -29 -75 -63 -89v-2c36 -12 78 -38 78 -97c0 -68 -62 -107 -135 -107zM178 -145c42 0 85 20 85 65c0 43 -39 63 -91 76c-35 -9 -75 -32 -75 -76
c0 -45 40 -65 81 -65zM184 36c28 9 64 33 64 72c0 31 -27 55 -69 55c-40 0 -70 -20 -70 -55c0 -41 34 -61 75 -72z" />
    <glyph glyph-name="nineinferior" unicode="&#x2089;" horiz-adv-x="338" 
d="M128 -188c-24 0 -53 4 -82 16l14 42c23 -11 44 -15 67 -15c65 0 110 47 116 136h-2c-22 -18 -51 -31 -87 -31c-60 0 -118 35 -118 120c0 73 50 126 121 126c81 0 135 -62 135 -186s-58 -208 -164 -208zM160 3c32 0 66 20 81 41c-1 75 -35 119 -85 119
c-44 0 -71 -33 -71 -79c0 -48 26 -81 75 -81z" />
    <glyph glyph-name="Lacute" unicode="&#x139;" horiz-adv-x="417" 
d="M89 0v659h53v-613h250v-46h-303zM90 696l59 147h63l-80 -147h-42z" />
    <glyph glyph-name="Kcommaaccent" unicode="&#x136;" horiz-adv-x="510" 
d="M89 0v659h53v-311h2l261 311h66l-279 -329l298 -330h-70l-276 306h-2v-306h-53zM204 -237l-17 37c59 18 71 46 71 76c0 22 -10 47 -26 72h51c15 -18 25 -49 25 -74c0 -48 -30 -89 -104 -111z" />
    <glyph glyph-name="Jcircumflex" unicode="&#x134;" horiz-adv-x="270" 
d="M-24 -174l9 47c16 -5 33 -6 46 -6c77 0 97 44 97 116v676h53v-691c0 -90 -42 -149 -153 -149c-16 0 -38 3 -52 7zM27 696l98 147h57l98 -147h-50l-76 109l-77 -109h-50z" />
    <glyph glyph-name="IJ" unicode="&#x132;" horiz-adv-x="501" 
d="M89 0v659h53v-659h-53zM207 -174l9 47c16 -5 33 -6 46 -6c77 0 97 44 97 116v676h53v-691c0 -90 -42 -149 -153 -149c-16 0 -38 3 -52 7z" />
    <glyph glyph-name="Iogonek" unicode="&#x12e;" horiz-adv-x="231" 
d="M89 8v651h53v-659c-43 -31 -72 -77 -72 -119c0 -32 14 -51 42 -51c11 0 23 3 37 8l9 -40c-20 -7 -38 -10 -54 -10c-56 0 -84 36 -84 84c0 57 33 101 69 136z" />
    <glyph glyph-name="Idotaccent" unicode="&#x130;" horiz-adv-x="231" 
d="M89 0v659h53v-659h-53zM116 723c-23 0 -38 17 -38 40s15 40 38 40c24 0 39 -17 39 -40c0 -24 -16 -40 -39 -40z" />
    <glyph glyph-name="Ibreve" unicode="&#x12c;" horiz-adv-x="231" 
d="M89 0v659h53v-659h-53zM190 822h41c-5 -69 -48 -114 -118 -114s-109 45 -114 114h41c7 -41 28 -71 75 -71s68 30 75 71z" />
    <glyph glyph-name="Imacron" horiz-adv-x="231" 
d="M89 0v659h53v-659h-53zM-1 722v46h232v-46h-232z" />
    <glyph glyph-name="Itilde" unicode="&#x128;" horiz-adv-x="231" 
d="M89 0v659h53v-659h-53zM-16 729v15c0 45 29 74 66 74c53 0 91 -50 126 -50c22 0 29 20 29 44h41v-15c0 -45 -29 -74 -66 -74c-52 0 -92 50 -126 50c-22 0 -29 -20 -29 -44h-41z" />
    <glyph glyph-name="Hbar" unicode="&#x126;" horiz-adv-x="665" 
d="M89 0v478h-62v46h62v135h53v-135h381v135h53v-135h62v-46h-62v-478h-53v315h-381v-315h-53zM142 361h381v117h-381v-117z" />
    <glyph glyph-name="Hcircumflex" unicode="&#x124;" horiz-adv-x="665" 
d="M89 0v659h53v-298h381v298h53v-659h-53v315h-381v-315h-53zM210 696l98 147h57l98 -147h-50l-76 109l-77 -109h-50z" />
    <glyph glyph-name="Gcommaaccent" unicode="&#x122;" horiz-adv-x="657" 
d="M578 307v-268c-37 -20 -115 -49 -206 -49c-188 0 -317 136 -317 331c0 203 133 343 331 343c76 0 141 -21 175 -37v-51c-45 23 -103 41 -173 41c-176 0 -277 -120 -277 -288c0 -181 107 -291 270 -291c60 0 112 13 144 30v239h53zM303 -237l-17 37c59 18 71 46 71 76
c0 22 -10 47 -26 72h51c15 -18 25 -49 25 -74c0 -48 -30 -89 -104 -111z" />
    <glyph glyph-name="Gdotaccent" unicode="&#x120;" horiz-adv-x="657" 
d="M578 307v-268c-37 -20 -115 -49 -206 -49c-188 0 -317 136 -317 331c0 203 133 343 331 343c76 0 141 -21 175 -37v-51c-45 23 -103 41 -173 41c-176 0 -277 -120 -277 -288c0 -181 107 -291 270 -291c60 0 112 13 144 30v239h53zM356 723c-23 0 -38 17 -38 40
s15 40 38 40c24 0 39 -17 39 -40c0 -24 -16 -40 -39 -40z" />
    <glyph glyph-name="Gbreve" unicode="&#x11e;" horiz-adv-x="657" 
d="M578 307v-268c-37 -20 -115 -49 -206 -49c-188 0 -317 136 -317 331c0 203 133 343 331 343c76 0 141 -21 175 -37v-51c-45 23 -103 41 -173 41c-176 0 -277 -120 -277 -288c0 -181 107 -291 270 -291c60 0 112 13 144 30v239h53zM432 822h41c-5 -69 -48 -114 -118 -114
s-109 45 -114 114h41c7 -41 28 -71 75 -71s68 30 75 71z" />
    <glyph glyph-name="Gcircumflex" unicode="&#x11c;" horiz-adv-x="657" 
d="M578 307v-268c-37 -20 -115 -49 -206 -49c-188 0 -317 136 -317 331c0 203 133 343 331 343c76 0 141 -21 175 -37v-51c-45 23 -103 41 -173 41c-176 0 -277 -120 -277 -288c0 -181 107 -291 270 -291c60 0 112 13 144 30v239h53zM230 696l98 147h57l98 -147h-50l-76 109
l-77 -109h-50z" />
    <glyph glyph-name="Eogonek" unicode="&#x118;" horiz-adv-x="453" 
d="M89 0v659h298l-20 -46h-225v-252h220v-46h-220v-269h253v-46h-14c-59 -29 -111 -75 -111 -126c0 -26 13 -44 40 -44c11 0 24 3 39 8l9 -40c-20 -7 -38 -10 -54 -10c-56 0 -84 38 -84 78c0 66 52 110 90 134h-221z" />
    <glyph glyph-name="Edotaccent" unicode="&#x116;" horiz-adv-x="453" 
d="M89 0v659h298l-20 -46h-225v-252h220v-46h-220v-269h253v-46h-306zM234 723c-23 0 -38 17 -38 40s15 40 38 40c24 0 39 -17 39 -40c0 -24 -16 -40 -39 -40z" />
    <glyph glyph-name="Ebreve" unicode="&#x114;" horiz-adv-x="453" 
d="M89 0v659h298l-20 -46h-225v-252h220v-46h-220v-269h253v-46h-306zM310 822h41c-5 -69 -48 -114 -118 -114s-109 45 -114 114h41c7 -41 28 -71 75 -71s68 30 75 71z" />
    <glyph glyph-name="Emacron" unicode="&#x112;" horiz-adv-x="453" 
d="M89 0v659h298l-20 -46h-225v-252h220v-46h-220v-269h253v-46h-306zM119 722v46h232v-46h-232z" />
    <glyph glyph-name="Ecaron" unicode="&#x11a;" horiz-adv-x="453" 
d="M89 0v659h298l-20 -46h-225v-252h220v-46h-220v-269h253v-46h-306zM206 696l-98 147h51l77 -109l76 109h49l-98 -147h-57z" />
    <glyph glyph-name="Dcroat" unicode="&#x110;" horiz-adv-x="626" 
d="M89 0v309h-80v46h80v304h137c237 0 345 -142 345 -327c0 -183 -103 -332 -345 -332h-137zM142 46h82c219 0 291 133 291 291c0 157 -89 276 -292 276h-81v-258h170v-46h-170v-263z" />
    <glyph glyph-name="Dcaron" unicode="&#x10e;" horiz-adv-x="626" 
d="M89 0v659h137c237 0 345 -142 345 -327c0 -183 -103 -332 -345 -332h-137zM142 46h82c219 0 291 133 291 291c0 157 -89 276 -292 276h-81v-567zM250 696l-98 147h51l77 -109l76 109h49l-98 -147h-57z" />
    <glyph glyph-name="Cdotaccent" unicode="&#x10a;" horiz-adv-x="574" 
d="M519 77l15 -44c-57 -30 -116 -43 -173 -43c-189 0 -306 138 -306 331s130 343 318 343c69 0 129 -18 158 -36v-52c-43 23 -90 40 -158 40c-154 0 -262 -128 -262 -290c0 -170 97 -288 254 -288c58 0 110 16 154 39zM334 723c-23 0 -38 17 -38 40s15 40 38 40
c24 0 39 -17 39 -40c0 -24 -16 -40 -39 -40z" />
    <glyph glyph-name="Ccaron" unicode="&#x10c;" horiz-adv-x="574" 
d="M519 77l15 -44c-57 -30 -116 -43 -173 -43c-189 0 -306 138 -306 331s130 343 318 343c69 0 129 -18 158 -36v-52c-43 23 -90 40 -158 40c-154 0 -262 -128 -262 -290c0 -170 97 -288 254 -288c58 0 110 16 154 39zM306 696l-98 147h51l77 -109l76 109h49l-98 -147h-57z
" />
    <glyph glyph-name="Ccircumflex" unicode="&#x108;" horiz-adv-x="574" 
d="M519 77l15 -44c-57 -30 -116 -43 -173 -43c-189 0 -306 138 -306 331s130 343 318 343c69 0 129 -18 158 -36v-52c-43 23 -90 40 -158 40c-154 0 -262 -128 -262 -290c0 -170 97 -288 254 -288c58 0 110 16 154 39zM208 696l98 147h57l98 -147h-50l-76 109l-77 -109h-50z
" />
    <glyph glyph-name="Cacute" unicode="&#x106;" horiz-adv-x="574" 
d="M519 77l15 -44c-57 -30 -116 -43 -173 -43c-189 0 -306 138 -306 331s130 343 318 343c69 0 129 -18 158 -36v-52c-43 23 -90 40 -158 40c-154 0 -262 -128 -262 -290c0 -170 97 -288 254 -288c58 0 110 16 154 39zM294 696l59 147h63l-80 -147h-42z" />
    <glyph glyph-name="AEacute" unicode="&#x1fc;" horiz-adv-x="778" 
d="M19 0l338 659h355l-20 -46h-283l44 -252h234v-46h-226l47 -269h212v-46h-259l-32 182h-257l-94 -182h-59zM195 228h226l-37 213c-7 41 -13 84 -20 125h-2c-17 -41 -43 -90 -70 -144zM439 696l59 147h63l-80 -147h-42z" />
    <glyph glyph-name="Aogonek" unicode="&#x104;" horiz-adv-x="568" 
d="M21 0l247 661h32l247 -661c-62 -30 -113 -76 -113 -126c0 -26 13 -44 40 -44c11 0 24 3 39 8l9 -40c-20 -7 -38 -10 -54 -10c-56 0 -84 38 -84 78c0 75 66 119 102 143l-63 173h-278l-66 -182h-58zM163 228h242l-78 216c-22 62 -33 94 -42 119h-2
c-8 -25 -20 -57 -42 -119z" />
    <glyph glyph-name="Aringacute" unicode="&#x1fa;" horiz-adv-x="568" 
d="M21 0l244 654c-47 7 -79 42 -79 93c0 54 37 90 89 94l43 112h67l-68 -117c38 -12 63 -45 63 -89c0 -50 -32 -85 -78 -92l245 -655h-58l-66 182h-278l-66 -182h-58zM163 228h242l-78 218c-22 62 -33 94 -42 123h-2c-8 -29 -20 -61 -42 -123zM283 689c32 0 53 23 53 58
s-21 58 -53 58s-53 -23 -53 -58s21 -58 53 -58z" />
    <glyph glyph-name="Abreve" unicode="&#x102;" horiz-adv-x="568" 
d="M21 0l247 661h32l247 -661h-58l-66 182h-278l-66 -182h-58zM163 228h242l-78 216c-22 62 -33 94 -42 119h-2c-8 -25 -20 -57 -42 -119zM359 822h41c-5 -69 -48 -114 -118 -114s-109 45 -114 114h41c7 -41 28 -71 75 -71s68 30 75 71z" />
    <glyph glyph-name="Amacron" unicode="&#x100;" horiz-adv-x="568" 
d="M21 0l247 661h32l247 -661h-58l-66 182h-278l-66 -182h-58zM163 228h242l-78 216c-22 62 -33 94 -42 119h-2c-8 -25 -20 -57 -42 -119zM168 722v46h232v-46h-232z" />
    <glyph glyph-name="wcircumflex" unicode="&#x175;" horiz-adv-x="664" 
d="M162 -3l-150 476h58l118 -402h2l112 402h59l117 -402h2l115 402h57l-149 -476h-54l-116 404h-2l-115 -404h-54zM205 531l98 147h57l98 -147h-50l-76 109l-77 -109h-50z" />
    <glyph glyph-name="wacute" unicode="&#x1e83;" horiz-adv-x="664" 
d="M162 -3l-150 476h58l118 -402h2l112 402h59l117 -402h2l115 402h57l-149 -476h-54l-116 404h-2l-115 -404h-54zM296 531l59 147h63l-80 -147h-42z" />
    <glyph glyph-name="wgrave" unicode="&#x1e81;" horiz-adv-x="664" 
d="M162 -3l-150 476h58l118 -402h2l112 402h59l117 -402h2l115 402h57l-149 -476h-54l-116 404h-2l-115 -404h-54zM324 531l-81 147h67l58 -147h-44z" />
    <glyph glyph-name="uogonek" unicode="&#x173;" horiz-adv-x="492" 
d="M372 11l-10 46c-45 -39 -100 -67 -162 -67c-45 0 -100 21 -120 86c-8 26 -10 47 -10 80v317h53v-297c0 -34 1 -58 8 -80c12 -40 40 -57 81 -57c62 0 122 40 149 77v357h53v-298c0 -110 4 -156 10 -179c-57 -28 -108 -71 -108 -122c0 -26 13 -44 40 -44c11 0 24 3 39 8
l9 -40c-20 -7 -38 -10 -54 -10c-56 0 -84 38 -84 78c0 77 70 123 106 145z" />
    <glyph glyph-name="uhungarumlaut" unicode="&#x171;" horiz-adv-x="492" 
d="M200 -10c-45 0 -100 21 -120 86c-8 26 -10 47 -10 80v317h53v-297c0 -34 1 -58 8 -80c12 -40 40 -57 81 -57c62 0 122 40 149 77v357h53v-294c0 -110 4 -156 10 -179h-50l-12 57c-45 -39 -100 -67 -162 -67zM145 531l58 147h67l-81 -147h-44zM300 531l58 147h67l-81 -147
h-44z" />
    <glyph glyph-name="uring" unicode="&#x16f;" horiz-adv-x="492" 
d="M200 -10c-45 0 -100 21 -120 86c-8 26 -10 47 -10 80v317h53v-297c0 -34 1 -58 8 -80c12 -40 40 -57 81 -57c62 0 122 40 149 77v357h53v-294c0 -110 4 -156 10 -179h-50l-12 57c-45 -39 -100 -67 -162 -67zM246 524c-56 0 -97 37 -97 94s41 94 97 94s97 -37 97 -94
s-41 -94 -97 -94zM246 560c32 0 53 23 53 58s-21 58 -53 58s-53 -23 -53 -58s21 -58 53 -58z" />
    <glyph glyph-name="ubreve" unicode="&#x16d;" horiz-adv-x="492" 
d="M200 -10c-45 0 -100 21 -120 86c-8 26 -10 47 -10 80v317h53v-297c0 -34 1 -58 8 -80c12 -40 40 -57 81 -57c62 0 122 40 149 77v357h53v-294c0 -110 4 -156 10 -179h-50l-12 57c-45 -39 -100 -67 -162 -67zM317 660h41c-5 -69 -48 -114 -118 -114s-109 45 -114 114h41
c7 -41 28 -71 75 -71s68 30 75 71z" />
    <glyph glyph-name="umacron" unicode="&#x16b;" horiz-adv-x="492" 
d="M200 -10c-45 0 -100 21 -120 86c-8 26 -10 47 -10 80v317h53v-297c0 -34 1 -58 8 -80c12 -40 40 -57 81 -57c62 0 122 40 149 77v357h53v-294c0 -110 4 -156 10 -179h-50l-12 57c-45 -39 -100 -67 -162 -67zM130 576v46h232v-46h-232z" />
    <glyph glyph-name="utilde" unicode="&#x169;" horiz-adv-x="492" 
d="M200 -10c-45 0 -100 21 -120 86c-8 26 -10 47 -10 80v317h53v-297c0 -34 1 -58 8 -80c12 -40 40 -57 81 -57c62 0 122 40 149 77v357h53v-294c0 -110 4 -156 10 -179h-50l-12 57c-45 -39 -100 -67 -162 -67zM115 557v15c0 45 29 74 66 74c53 0 91 -50 126 -50
c22 0 29 20 29 44h41v-15c0 -45 -29 -74 -66 -74c-52 0 -92 50 -126 50c-22 0 -29 -20 -29 -44h-41z" />
    <glyph glyph-name="tbar" unicode="&#x167;" horiz-adv-x="330" 
d="M25 251v46h77v130h-77v46h77v106l53 19v-125h140l-18 -46h-122v-130h92v-46h-92v-154c0 -40 18 -59 50 -59c33 0 63 19 83 33l18 -39c-33 -24 -72 -42 -111 -42c-61 0 -93 36 -93 103v158h-77z" />
    <glyph glyph-name="tcommaaccent" unicode="&#x163;" horiz-adv-x="330" 
d="M196 -10c-61 0 -94 36 -94 103v334h-77v46h77v106l53 19v-125h140l-18 -46h-122v-330c0 -40 18 -59 50 -59c33 0 60 14 80 28l22 -39c-28 -20 -65 -37 -111 -37zM119 -237l-17 37c59 18 71 46 71 76c0 22 -10 47 -26 72h51c15 -18 25 -49 25 -74c0 -48 -30 -89 -104 -111
z" />
    <glyph glyph-name="wdieresis" unicode="&#x1e85;" horiz-adv-x="664" 
d="M162 -3l-150 476h58l118 -402h2l112 402h59l117 -402h2l115 402h57l-149 -476h-54l-116 404h-2l-115 -404h-54zM246 568c-20 0 -36 16 -36 36s16 36 36 36s36 -16 36 -36s-16 -36 -36 -36zM418 568c-20 0 -36 16 -36 36s16 36 36 36s36 -16 36 -36s-16 -36 -36 -36z" />
    <glyph glyph-name="ygrave" unicode="&#x1ef3;" horiz-adv-x="443" 
d="M431 473l-175 -519c-55 -164 -125 -191 -198 -191c-33 0 -54 5 -74 13l12 47c17 -7 38 -12 63 -12c66 0 120 49 158 183l-206 479h59l170 -404h2l132 404h57zM219 531l-81 147h67l58 -147h-44z" />
    <glyph glyph-name="ycircumflex" unicode="&#x177;" horiz-adv-x="443" 
d="M431 473l-175 -519c-55 -164 -125 -191 -198 -191c-33 0 -54 5 -74 13l12 47c17 -7 38 -12 63 -12c66 0 120 49 158 183l-206 479h59l170 -404h2l132 404h57zM100 531l98 147h57l98 -147h-50l-76 109l-77 -109h-50z" />
    <glyph glyph-name="zacute" unicode="&#x17a;" horiz-adv-x="368" 
d="M24 0l249 427h-222l-13 46h317l-247 -427h245v-46h-329zM158 531l59 147h63l-80 -147h-42z" />
    <glyph glyph-name="zdotaccent" unicode="&#x17c;" horiz-adv-x="368" 
d="M24 0l249 427h-222l-13 46h317l-247 -427h245v-46h-329zM193 593c-23 0 -38 17 -38 40s15 40 38 40c24 0 39 -17 39 -40c0 -24 -16 -40 -39 -40z" />
    <glyph glyph-name="eng" unicode="&#x14b;" horiz-adv-x="493" 
d="M236 -183l12 46c12 -5 26 -10 46 -10c54 0 78 32 78 110v339c0 76 -21 134 -91 134c-58 0 -109 -37 -158 -81v-355h-53v473h44l8 -64c52 45 106 76 167 76c74 0 136 -51 136 -164v-370c0 -108 -61 -146 -126 -146c-20 0 -44 3 -63 12z" />
    <glyph glyph-name="tcaron" unicode="&#x165;" horiz-adv-x="330" 
d="M196 -10c-61 0 -94 36 -94 103v334h-77v46h77v106l53 19v-125h140l-18 -46h-122v-330c0 -40 18 -59 50 -59c33 0 60 14 80 28l22 -39c-28 -20 -65 -37 -111 -37zM203 513l36 195h56l-51 -195h-41z" />
    <glyph glyph-name="scommaaccent" unicode="&#x219;" horiz-adv-x="361" 
d="M28 28l18 43c24 -14 58 -33 114 -33c58 0 109 25 109 87c0 114 -221 79 -221 235c0 67 50 125 151 125c42 0 80 -10 109 -22v-49c-29 13 -62 24 -106 24c-48 0 -101 -16 -101 -75c0 -119 222 -79 222 -238c0 -89 -72 -135 -167 -135c-57 0 -102 21 -128 38zM125 -237
l-17 37c59 18 71 46 71 76c0 22 -10 47 -26 72h51c15 -18 25 -49 25 -74c0 -48 -30 -89 -104 -111z" />
    <glyph glyph-name="scedilla" unicode="&#x15f;" horiz-adv-x="361" 
d="M82 -200l12 38c16 -7 32 -11 51 -11c29 0 55 12 55 42c0 43 -54 39 -87 40l25 82c-49 4 -87 22 -110 37l18 43c24 -14 58 -33 114 -33c58 0 109 25 109 87c0 114 -221 79 -221 235c0 67 50 125 151 125c42 0 80 -10 109 -22v-49c-29 13 -62 24 -106 24
c-48 0 -101 -16 -101 -75c0 -119 222 -79 222 -238c0 -80 -58 -125 -138 -133l-15 -48c38 -2 80 -20 80 -72c0 -55 -47 -84 -105 -84c-30 0 -50 7 -63 12z" />
    <glyph glyph-name="scircumflex" unicode="&#x15d;" horiz-adv-x="361" 
d="M28 28l18 43c24 -14 58 -33 114 -33c58 0 109 25 109 87c0 114 -221 79 -221 235c0 67 50 125 151 125c42 0 80 -10 109 -22v-49c-29 13 -62 24 -106 24c-48 0 -101 -16 -101 -75c0 -119 222 -79 222 -238c0 -89 -72 -135 -167 -135c-57 0 -102 21 -128 38zM54 531
l98 147h57l98 -147h-50l-76 109l-77 -109h-50z" />
    <glyph glyph-name="sacute" unicode="&#x15b;" horiz-adv-x="361" 
d="M28 28l18 43c24 -14 58 -33 114 -33c58 0 109 25 109 87c0 114 -221 79 -221 235c0 67 50 125 151 125c42 0 80 -10 109 -22v-49c-29 13 -62 24 -106 24c-48 0 -101 -16 -101 -75c0 -119 222 -79 222 -238c0 -89 -72 -135 -167 -135c-57 0 -102 21 -128 38zM155 531
l59 147h63l-80 -147h-42z" />
    <glyph glyph-name="oslashacute" unicode="&#x1ff;" horiz-adv-x="505" 
d="M229 531l59 147h63l-80 -147h-42zM76 -17l-35 30l51 60c-31 43 -50 101 -50 164c0 138 81 248 211 248c53 0 98 -20 133 -52l43 54l35 -30l-49 -58c30 -43 48 -99 48 -162c0 -137 -81 -247 -211 -247c-52 0 -97 19 -131 50zM153 78c26 -26 60 -40 99 -40
c93 0 155 82 155 199c0 46 -9 87 -26 120zM126 115l228 280c-26 27 -61 43 -101 43c-93 0 -155 -83 -155 -201c0 -47 10 -90 28 -122z" />
    <glyph glyph-name="racute" unicode="&#x155;" horiz-adv-x="301" 
d="M70 0v473h44l7 -63c56 63 97 75 135 75c18 0 35 -4 44 -9l-19 -52c-8 3 -17 7 -35 7c-36 0 -73 -24 -123 -77v-354h-53zM123 531l59 147h63l-80 -147h-42z" />
    <glyph glyph-name="rcaron" unicode="&#x159;" horiz-adv-x="301" 
d="M59 0v473h44l7 -63c56 63 97 75 135 75c18 0 35 -4 44 -9l-19 -52c-8 3 -17 7 -35 7c-36 0 -73 -24 -123 -77v-354h-53zM130 532l-98 147h51l77 -109l76 109h49l-98 -147h-57z" />
    <glyph glyph-name="rcommaaccent" unicode="&#x157;" horiz-adv-x="301" 
d="M70 0v473h44l7 -63c56 63 97 75 135 75c18 0 35 -4 44 -9l-19 -52c-8 3 -17 7 -35 7c-36 0 -73 -24 -123 -77v-354h-53zM48 -237l-17 37c59 18 71 46 71 76c0 22 -10 47 -26 72h51c15 -18 25 -49 25 -74c0 -48 -30 -89 -104 -111z" />
    <glyph glyph-name="ohungarumlaut" unicode="&#x151;" horiz-adv-x="505" 
d="M252 -10c-128 0 -210 110 -210 247c0 138 81 248 211 248c128 0 210 -110 210 -248c0 -137 -81 -247 -211 -247zM252 38c93 0 155 82 155 199c0 118 -62 200 -154 200c-93 0 -155 -82 -155 -200c0 -117 62 -199 154 -199zM157 531l58 147h67l-81 -147h-44zM312 531
l58 147h67l-81 -147h-44z" />
    <glyph glyph-name="obreve" unicode="&#x14f;" horiz-adv-x="505" 
d="M252 -10c-128 0 -210 110 -210 247c0 138 81 248 211 248c128 0 210 -110 210 -248c0 -137 -81 -247 -211 -247zM252 38c93 0 155 82 155 199c0 118 -62 200 -154 200c-93 0 -155 -82 -155 -200c0 -117 62 -199 154 -199zM328 660h41c-5 -69 -48 -114 -118 -114
s-109 45 -114 114h41c7 -41 28 -71 75 -71s68 30 75 71z" />
    <glyph glyph-name="omacron" unicode="&#x14d;" horiz-adv-x="505" 
d="M252 -10c-128 0 -210 110 -210 247c0 138 81 248 211 248c128 0 210 -110 210 -248c0 -137 -81 -247 -211 -247zM252 38c93 0 155 82 155 199c0 118 -62 200 -154 200c-93 0 -155 -82 -155 -200c0 -117 62 -199 154 -199zM137 576v46h232v-46h-232z" />
    <glyph glyph-name="Lcaron" unicode="&#x13d;" horiz-adv-x="417" 
d="M89 0v659h53v-613h250v-46h-303zM246 513l36 195h56l-51 -195h-41z" />
    <glyph glyph-name="Obreve" unicode="&#x14e;" horiz-adv-x="742" 
d="M371 -10c-179 0 -316 130 -316 336c0 200 135 338 316 338c184 0 316 -142 316 -338c0 -208 -141 -336 -316 -336zM371 38c158 0 260 119 260 288c0 158 -91 290 -260 290c-158 0 -260 -121 -260 -290s102 -288 260 -288zM449 822h41c-5 -69 -48 -114 -118 -114
s-109 45 -114 114h41c7 -41 28 -71 75 -71s68 30 75 71z" />
    <glyph glyph-name="Lcommaaccent" unicode="&#x13b;" horiz-adv-x="417" 
d="M89 0v659h53v-613h250v-46h-303zM176 -237l-17 37c59 18 71 46 71 76c0 22 -10 47 -26 72h51c15 -18 25 -49 25 -74c0 -48 -30 -89 -104 -111z" />
    <glyph glyph-name="Ohungarumlaut" unicode="&#x150;" horiz-adv-x="742" 
d="M371 -10c-179 0 -316 130 -316 336c0 200 135 338 316 338c184 0 316 -142 316 -338c0 -208 -141 -336 -316 -336zM371 38c158 0 260 119 260 288c0 158 -91 290 -260 290c-158 0 -260 -121 -260 -290s102 -288 260 -288zM285 696l58 147h67l-81 -147h-44zM440 696
l58 147h67l-81 -147h-44z" />
    <glyph glyph-name="Oslashacute" unicode="&#x1fe;" horiz-adv-x="742" 
d="M92 -7l-37 32l72 77c-45 57 -72 133 -72 224c0 200 135 338 316 338c81 0 152 -29 206 -76l73 80l37 -32l-77 -83c48 -58 77 -137 77 -227c0 -208 -141 -336 -316 -336c-82 0 -155 28 -211 78zM575 516l-381 -412c45 -42 105 -66 177 -66c158 0 260 119 260 288
c0 72 -19 139 -56 190zM163 141l381 411c-43 40 -101 64 -173 64c-158 0 -260 -121 -260 -290c0 -73 18 -137 52 -185zM338 696l59 147h63l-80 -147h-42z" />
    <glyph glyph-name="Racute" unicode="&#x154;" horiz-adv-x="519" 
d="M89 0v659h114c72 0 118 -14 152 -38c46 -33 68 -84 68 -138c0 -93 -47 -149 -136 -176v-2c20 -10 43 -47 78 -104l124 -201h-64l-124 202c-30 49 -56 82 -77 88h-82v-290h-53zM142 336h66c38 0 70 8 99 25c37 21 61 61 61 117c0 40 -12 75 -40 99c-24 21 -61 36 -119 36
h-67v-277zM194 696l59 147h63l-80 -147h-42z" />
    <glyph glyph-name="Rcaron" unicode="&#x158;" horiz-adv-x="519" 
d="M89 0v659h114c72 0 118 -14 152 -38c46 -33 68 -84 68 -138c0 -93 -47 -149 -136 -176v-2c20 -10 43 -47 78 -104l124 -201h-64l-124 202c-30 49 -56 82 -77 88h-82v-290h-53zM142 336h66c38 0 70 8 99 25c37 21 61 61 61 117c0 40 -12 75 -40 99c-24 21 -61 36 -119 36
h-67v-277zM201 696l-98 147h51l77 -109l76 109h49l-98 -147h-57z" />
    <glyph glyph-name="Rcommaaccent" unicode="&#x156;" horiz-adv-x="519" 
d="M89 0v659h114c72 0 118 -14 152 -38c46 -33 68 -84 68 -138c0 -93 -47 -149 -136 -176v-2c20 -10 43 -47 78 -104l124 -201h-64l-124 202c-30 49 -56 82 -77 88h-82v-290h-53zM142 336h66c38 0 70 8 99 25c37 21 61 61 61 117c0 40 -12 75 -40 99c-24 21 -61 36 -119 36
h-67v-277zM211 -237l-17 37c59 18 71 46 71 76c0 22 -10 47 -26 72h51c15 -18 25 -49 25 -74c0 -48 -30 -89 -104 -111z" />
    <glyph glyph-name="Sacute" unicode="&#x15a;" horiz-adv-x="473" 
d="M55 37l24 43c29 -19 79 -42 141 -42c77 0 143 32 143 119c0 171 -293 151 -293 346c0 91 69 161 186 161c56 0 107 -15 135 -29v-51c-36 21 -85 33 -134 33c-65 0 -132 -29 -132 -108c0 -161 293 -146 293 -349c0 -107 -79 -170 -201 -170c-74 0 -127 24 -162 47z
M224 696l59 147h63l-80 -147h-42z" />
    <glyph glyph-name="Scircumflex" unicode="&#x15c;" horiz-adv-x="473" 
d="M55 37l24 43c29 -19 79 -42 141 -42c77 0 143 32 143 119c0 171 -293 151 -293 346c0 91 69 161 186 161c56 0 107 -15 135 -29v-51c-36 21 -85 33 -134 33c-65 0 -132 -29 -132 -108c0 -161 293 -146 293 -349c0 -107 -79 -170 -201 -170c-74 0 -127 24 -162 47z
M113 696l98 147h57l98 -147h-50l-76 109l-77 -109h-50z" />
    <glyph glyph-name="Scedilla" unicode="&#x15e;" horiz-adv-x="461" 
d="M138 -200l12 38c16 -7 32 -11 51 -11c29 0 55 12 55 42c0 38 -43 40 -87 40l25 82c-62 4 -108 25 -139 46l24 43c29 -19 79 -42 141 -42c77 0 143 32 143 119c0 171 -293 151 -293 346c0 91 69 161 186 161c56 0 107 -15 135 -29v-51c-36 21 -85 33 -134 33
c-65 0 -132 -29 -132 -108c0 -161 293 -146 293 -349c0 -100 -69 -161 -177 -169l-15 -47c38 -2 80 -20 80 -72c0 -55 -47 -84 -105 -84c-30 0 -50 7 -63 12z" />
    <glyph glyph-name="Scommaaccent" unicode="&#x218;" horiz-adv-x="473" 
d="M55 37l24 43c29 -19 79 -42 141 -42c77 0 143 32 143 119c0 171 -293 151 -293 346c0 91 69 161 186 161c56 0 107 -15 135 -29v-51c-36 21 -85 33 -134 33c-65 0 -132 -29 -132 -108c0 -161 293 -146 293 -349c0 -107 -79 -170 -201 -170c-74 0 -127 24 -162 47z
M170 -237l-17 37c59 18 71 46 71 76c0 22 -10 47 -26 72h51c15 -18 25 -49 25 -74c0 -48 -30 -89 -104 -111z" />
    <glyph glyph-name="Tcaron" unicode="&#x164;" horiz-adv-x="478" 
d="M211 0v613h-189v46h452l-20 -46h-190v-613h-53zM212 696l-98 147h51l77 -109l76 109h49l-98 -147h-57z" />
    <glyph glyph-name="Ldot" unicode="&#x13f;" horiz-adv-x="417" 
d="M89 0v659h53v-613h250v-46h-303zM322 301c-22 0 -39 19 -39 41s17 41 39 41s39 -19 39 -41s-17 -41 -39 -41z" />
    <glyph glyph-name="Nacute" unicode="&#x143;" horiz-adv-x="702" 
d="M613 0h-41l-330 436c-45 59 -77 105 -100 139h-2c1 -36 2 -60 2 -118v-457h-53v659h49l317 -420c48 -63 82 -112 105 -147h2c-1 36 -2 60 -2 118v449h53v-659zM319 696l59 147h63l-80 -147h-42z" />
    <glyph glyph-name="Tcommaaccent" unicode="&#x162;" horiz-adv-x="478" 
d="M211 0v613h-189v46h452l-20 -46h-190v-613h-53zM179 -237l-17 37c59 18 71 46 71 76c0 22 -10 47 -26 72h51c15 -18 25 -49 25 -74c0 -48 -30 -89 -104 -111z" />
    <glyph glyph-name="Tbar" unicode="&#x166;" horiz-adv-x="478" 
d="M211 0v309h-116v46h116v258h-189v46h452l-20 -46h-190v-258h116v-46h-116v-309h-53z" />
    <glyph glyph-name="Utilde" unicode="&#x168;" horiz-adv-x="633" 
d="M316 -10c-119 0 -193 52 -221 146c-8 29 -11 61 -11 96v427h53v-421c0 -35 3 -66 12 -93c23 -68 78 -108 168 -108s144 40 167 108c9 27 12 58 12 97v417h53v-427c0 -37 -4 -70 -13 -99c-29 -92 -104 -143 -220 -143zM190 729v15c0 45 29 74 66 74c53 0 91 -50 126 -50
c22 0 29 20 29 44h41v-15c0 -45 -29 -74 -66 -74c-52 0 -92 50 -126 50c-22 0 -29 -20 -29 -44h-41z" />
    <glyph glyph-name="Umacron" unicode="&#x16a;" horiz-adv-x="633" 
d="M316 -10c-119 0 -193 52 -221 146c-8 29 -11 61 -11 96v427h53v-421c0 -35 3 -66 12 -93c23 -68 78 -108 168 -108s144 40 167 108c9 27 12 58 12 97v417h53v-427c0 -37 -4 -70 -13 -99c-29 -92 -104 -143 -220 -143zM205 722v46h232v-46h-232z" />
    <glyph glyph-name="Ubreve" unicode="&#x16c;" horiz-adv-x="633" 
d="M316 -10c-119 0 -193 52 -221 146c-8 29 -11 61 -11 96v427h53v-421c0 -35 3 -66 12 -93c23 -68 78 -108 168 -108s144 40 167 108c9 27 12 58 12 97v417h53v-427c0 -37 -4 -70 -13 -99c-29 -92 -104 -143 -220 -143zM396 822h41c-5 -69 -48 -114 -118 -114
s-109 45 -114 114h41c7 -41 28 -71 75 -71s68 30 75 71z" />
    <glyph glyph-name="Uring" unicode="&#x16e;" horiz-adv-x="633" 
d="M316 -10c-119 0 -193 52 -221 146c-8 29 -11 61 -11 96v427h53v-421c0 -35 3 -66 12 -93c23 -68 78 -108 168 -108s144 40 167 108c9 27 12 58 12 97v417h53v-427c0 -37 -4 -70 -13 -99c-29 -92 -104 -143 -220 -143zM321 653c-56 0 -97 37 -97 94s41 94 97 94
s97 -37 97 -94s-41 -94 -97 -94zM321 689c32 0 53 23 53 58s-21 58 -53 58s-53 -23 -53 -58s21 -58 53 -58z" />
    <glyph glyph-name="Uhungarumlaut" unicode="&#x170;" horiz-adv-x="633" 
d="M316 -10c-119 0 -193 52 -221 146c-8 29 -11 61 -11 96v427h53v-421c0 -35 3 -66 12 -93c23 -68 78 -108 168 -108s144 40 167 108c9 27 12 58 12 97v417h53v-427c0 -37 -4 -70 -13 -99c-29 -92 -104 -143 -220 -143zM208 696l58 147h67l-81 -147h-44zM363 696l58 147h67
l-81 -147h-44z" />
    <glyph glyph-name="Uogonek" unicode="&#x172;" horiz-adv-x="633" 
d="M380 -162l9 -40c-20 -7 -38 -10 -54 -10c-56 0 -84 38 -84 78c0 57 39 96 72 122v2c-126 -2 -200 52 -228 146c-8 29 -11 61 -11 96v427h53v-421c0 -35 3 -66 12 -93c23 -68 78 -108 168 -108s144 40 167 108c9 27 12 58 12 97v417h53v-427c0 -37 -4 -70 -13 -99
c-20 -63 -62 -104 -111 -124c-67 -27 -124 -84 -124 -135c0 -26 13 -44 40 -44c11 0 24 3 39 8z" />
    <glyph glyph-name="Wgrave" unicode="&#x1e80;" horiz-adv-x="880" 
d="M237 -3l-218 662h60l130 -403c15 -47 35 -107 50 -164h2c18 61 34 108 53 162l102 295l-37 110h61l136 -409c14 -43 35 -103 49 -158h2c15 58 30 107 46 156l130 411h58l-216 -662h-40l-108 323c-20 59 -35 102 -51 155h-2c-16 -52 -29 -90 -52 -156l-112 -322h-43z
M416 696l-81 147h67l58 -147h-44z" />
    <glyph glyph-name="Wacute" unicode="&#x1e82;" horiz-adv-x="880" 
d="M237 -3l-218 662h60l130 -403c15 -47 35 -107 50 -164h2c18 61 34 108 53 162l102 295l-37 110h61l136 -409c14 -43 35 -103 49 -158h2c15 58 30 107 46 156l130 411h58l-216 -662h-40l-108 323c-20 59 -35 102 -51 155h-2c-16 -52 -29 -90 -52 -156l-112 -322h-43z
M409 696l59 147h63l-80 -147h-42z" />
    <glyph glyph-name="Wcircumflex" unicode="&#x174;" horiz-adv-x="880" 
d="M237 -3l-218 662h60l130 -403c15 -47 35 -107 50 -164h2c18 61 34 108 53 162l102 295l-37 110h61l136 -409c14 -43 35 -103 49 -158h2c15 58 30 107 46 156l130 411h58l-216 -662h-40l-108 323c-20 59 -35 102 -51 155h-2c-16 -52 -29 -90 -52 -156l-112 -322h-43z
M318 696l98 147h57l98 -147h-50l-76 109l-77 -109h-50z" />
    <glyph glyph-name="Wdieresis" unicode="&#x1e84;" horiz-adv-x="880" 
d="M237 -3l-218 662h60l130 -403c15 -47 35 -107 50 -164h2c18 61 34 108 53 162l102 295l-37 110h61l136 -409c14 -43 35 -103 49 -158h2c15 58 30 107 46 156l130 411h58l-216 -662h-40l-108 323c-20 59 -35 102 -51 155h-2c-16 -52 -29 -90 -52 -156l-112 -322h-43z
M359 708c-20 0 -36 16 -36 36s16 36 36 36s36 -16 36 -36s-16 -36 -36 -36zM531 708c-20 0 -36 16 -36 36s16 36 36 36s36 -16 36 -36s-16 -36 -36 -36z" />
    <glyph glyph-name="Ncaron" unicode="&#x147;" horiz-adv-x="702" 
d="M613 0h-41l-330 436c-45 59 -77 105 -100 139h-2c1 -36 2 -60 2 -118v-457h-53v659h49l317 -420c48 -63 82 -112 105 -147h2c-1 36 -2 60 -2 118v449h53v-659zM326 696l-98 147h51l77 -109l76 109h49l-98 -147h-57z" />
    <glyph glyph-name="Ygrave" unicode="&#x1ef2;" horiz-adv-x="514" 
d="M233 0v264l-214 395h61l180 -337h2l174 337h59l-209 -396v-263h-53zM253 696l-81 147h67l58 -147h-44z" />
    <glyph glyph-name="Ycircumflex" unicode="&#x176;" horiz-adv-x="514" 
d="M233 0v264l-214 395h61l180 -337h2l174 337h59l-209 -396v-263h-53zM134 696l98 147h57l98 -147h-50l-76 109l-77 -109h-50z" />
    <glyph glyph-name="Ncommaaccent" unicode="&#x145;" horiz-adv-x="702" 
d="M613 0h-41l-330 436c-45 59 -77 105 -100 139h-2c1 -36 2 -60 2 -118v-457h-53v659h49l317 -420c48 -63 82 -112 105 -147h2c-1 36 -2 60 -2 118v449h53v-659zM298 -237l-17 37c59 18 71 46 71 76c0 22 -10 47 -26 72h51c15 -18 25 -49 25 -74c0 -48 -30 -89 -104 -111z
" />
    <glyph glyph-name="Zacute" unicode="&#x179;" horiz-adv-x="535" 
d="M60 0l333 613h-320l-16 46h418l-332 -613h355v-46h-438zM238 696l59 147h63l-80 -147h-42z" />
    <glyph glyph-name="Zdotaccent" unicode="&#x17b;" horiz-adv-x="535" 
d="M60 0l333 613h-320l-16 46h418l-332 -613h355v-46h-438zM273 723c-23 0 -38 17 -38 40s15 40 38 40c24 0 39 -17 39 -40c0 -24 -16 -40 -39 -40z" />
    <glyph glyph-name="Eng" unicode="&#x14a;" horiz-adv-x="702" 
d="M89 0v659h49l317 -420c48 -63 82 -112 105 -147h2c-1 36 -2 60 -2 118v449h53v-708c0 -108 -61 -146 -126 -146c-20 0 -44 3 -63 12l12 46c12 -5 26 -10 46 -10c54 0 78 32 78 110v53l-318 420c-45 59 -77 105 -100 139h-2c1 -36 2 -60 2 -118v-457h-53z" />
    <glyph glyph-name="amacron" unicode="&#x101;" horiz-adv-x="448" 
d="M344 0l-12 57c-38 -38 -86 -67 -145 -67c-84 0 -147 53 -147 144c0 63 33 106 80 128c32 15 68 19 116 21l95 3v36c0 80 -46 115 -107 115c-62 0 -100 -21 -133 -41l-23 41c55 36 112 48 158 48c86 0 158 -43 158 -156v-150c0 -110 4 -156 10 -179h-50zM331 240l-92 -3
c-45 -1 -74 -8 -97 -20c-31 -16 -46 -47 -46 -81c0 -57 36 -98 95 -98c66 0 114 46 140 74v128zM105 576v46h232v-46h-232z" />
    <glyph glyph-name="abreve" unicode="&#x103;" horiz-adv-x="448" 
d="M344 0l-12 57c-38 -38 -86 -67 -145 -67c-84 0 -147 53 -147 144c0 63 33 106 80 128c32 15 68 19 116 21l95 3v36c0 80 -46 115 -107 115c-62 0 -100 -21 -133 -41l-23 41c55 36 112 48 158 48c86 0 158 -43 158 -156v-150c0 -110 4 -156 10 -179h-50zM331 240l-92 -3
c-45 -1 -74 -8 -97 -20c-31 -16 -46 -47 -46 -81c0 -57 36 -98 95 -98c66 0 114 46 140 74v128zM296 660h41c-5 -69 -48 -114 -118 -114s-109 45 -114 114h41c7 -41 28 -71 75 -71s68 30 75 71z" />
    <glyph glyph-name="aringacute" unicode="&#x1fb;" horiz-adv-x="448" 
d="M221 517c-56 0 -97 37 -97 94c0 53 36 89 87 93l51 135h67l-78 -138c40 -11 67 -44 67 -90c0 -57 -41 -94 -97 -94zM221 553c32 0 53 23 53 58s-21 58 -53 58s-53 -23 -53 -58s21 -58 53 -58zM187 -10c-84 0 -147 53 -147 144c0 63 33 106 80 128c32 15 68 19 116 21
l95 3v36c0 80 -46 115 -107 115c-62 0 -100 -21 -133 -41l-23 41c55 36 112 48 158 48c86 0 158 -43 158 -156v-150c0 -110 4 -156 10 -179h-50l-12 57c-38 -38 -86 -67 -145 -67zM191 38c66 0 114 46 140 74v128l-92 -3c-45 -1 -74 -8 -97 -20c-31 -16 -46 -47 -46 -81
c0 -57 36 -98 95 -98z" />
    <glyph glyph-name="aogonek" unicode="&#x105;" horiz-adv-x="448" 
d="M394 -4c-57 -28 -108 -71 -108 -122c0 -26 13 -44 40 -44c11 0 24 3 39 8l9 -40c-20 -7 -38 -10 -54 -10c-56 0 -84 38 -84 78c0 77 70 123 105 145l-9 46c-38 -38 -86 -67 -145 -67c-84 0 -147 53 -147 144c0 63 33 106 80 128c32 15 68 19 116 21l95 3v36
c0 80 -46 115 -107 115c-62 0 -100 -21 -133 -41l-23 41c55 36 112 48 158 48c86 0 158 -43 158 -156v-150c0 -110 4 -160 10 -183zM191 38c66 0 114 46 140 74v128l-92 -3c-45 -1 -74 -8 -97 -20c-31 -16 -46 -47 -46 -81c0 -57 36 -98 95 -98z" />
    <glyph glyph-name="aeacute" unicode="&#x1fd;" horiz-adv-x="736" 
d="M187 -10c-80 0 -147 53 -147 144c0 96 74 144 193 144h98v44c0 80 -46 115 -107 115c-62 0 -100 -22 -133 -42l-23 42c55 36 112 48 158 48c63 0 118 -25 142 -85h2c33 56 84 85 144 85c114 0 179 -93 179 -239v-14h-309c1 -106 59 -194 168 -194c43 0 83 14 115 32
l18 -39c-37 -25 -93 -41 -143 -41c-81 0 -141 39 -176 99c-41 -54 -103 -99 -179 -99zM191 38c64 0 121 48 154 96c-10 29 -15 62 -15 98h-91c-92 0 -143 -32 -143 -98c0 -55 36 -96 95 -96zM385 278h250c-2 81 -40 160 -120 160c-78 0 -128 -71 -130 -160zM348 531l59 147
h63l-80 -147h-42z" />
    <glyph glyph-name="cacute" unicode="&#x107;" horiz-adv-x="415" 
d="M260 -10c-142 0 -218 110 -218 241c0 135 81 254 229 254c42 0 83 -11 113 -27v-50c-30 17 -67 30 -113 30c-106 0 -173 -85 -173 -200c0 -127 65 -200 167 -200c53 0 88 17 116 33l18 -40c-33 -21 -84 -41 -139 -41zM209 531l59 147h63l-80 -147h-42z" />
    <glyph glyph-name="ccircumflex" unicode="&#x109;" horiz-adv-x="415" 
d="M260 -10c-142 0 -218 110 -218 241c0 135 81 254 229 254c42 0 83 -11 113 -27v-50c-30 17 -67 30 -113 30c-106 0 -173 -85 -173 -200c0 -127 65 -200 167 -200c53 0 88 17 116 33l18 -40c-33 -21 -84 -41 -139 -41zM118 531l98 147h57l98 -147h-50l-76 109l-77 -109
h-50z" />
    <glyph glyph-name="Omacron" unicode="&#x14c;" horiz-adv-x="742" 
d="M371 -10c-179 0 -316 130 -316 336c0 200 135 338 316 338c184 0 316 -142 316 -338c0 -208 -141 -336 -316 -336zM371 38c158 0 260 119 260 288c0 158 -91 290 -260 290c-158 0 -260 -121 -260 -290s102 -288 260 -288zM258 722v46h232v-46h-232z" />
    <glyph glyph-name="ccaron" unicode="&#x10d;" horiz-adv-x="415" 
d="M260 -10c-142 0 -218 110 -218 241c0 135 81 254 229 254c42 0 83 -11 113 -27v-50c-30 17 -67 30 -113 30c-106 0 -173 -85 -173 -200c0 -127 65 -200 167 -200c53 0 88 17 116 33l18 -40c-33 -21 -84 -41 -139 -41zM216 532l-98 147h51l77 -109l76 109h49l-98 -147h-57
z" />
    <glyph glyph-name="cdotaccent" unicode="&#x10b;" horiz-adv-x="415" 
d="M260 -10c-142 0 -218 110 -218 241c0 135 81 254 229 254c42 0 83 -11 113 -27v-50c-30 17 -67 30 -113 30c-106 0 -173 -85 -173 -200c0 -127 65 -200 167 -200c53 0 88 17 116 33l18 -40c-33 -21 -84 -41 -139 -41zM244 593c-23 0 -38 17 -38 40s15 40 38 40
c24 0 39 -17 39 -40c0 -24 -16 -40 -39 -40z" />
    <glyph glyph-name="dcaron" unicode="&#x10f;" horiz-adv-x="493" 
d="M279 -10c-128 0 -237 79 -237 240c0 155 109 255 238 255c32 0 57 -3 87 -12v235h53v-687c-28 -16 -79 -31 -141 -31zM285 38c28 0 60 5 82 15v370c-27 10 -47 15 -83 15c-99 0 -186 -74 -186 -206c0 -117 67 -194 187 -194zM462 513l36 195h56l-51 -195h-41z" />
    <glyph glyph-name="dcroat" unicode="&#x111;" horiz-adv-x="493" 
d="M279 -10c-128 0 -237 79 -237 240c0 155 109 255 238 255c32 0 57 -3 87 -12v98h-133v46h133v91h53v-91h64v-46h-64v-550c-28 -16 -79 -31 -141 -31zM285 38c28 0 60 5 82 15v370c-27 10 -47 15 -83 15c-99 0 -186 -74 -186 -206c0 -117 67 -194 187 -194z" />
    <glyph glyph-name="ecaron" unicode="&#x11b;" horiz-adv-x="450" 
d="M407 232h-309c1 -106 58 -194 168 -194c43 0 83 14 115 32l18 -39c-37 -25 -93 -41 -143 -41c-140 0 -214 113 -214 255c0 145 80 240 186 240c114 0 179 -93 179 -239v-14zM99 278h250c-2 81 -40 160 -120 160c-78 0 -128 -71 -130 -160zM202 532l-98 147h51l77 -109
l76 109h49l-98 -147h-57z" />
    <glyph glyph-name="emacron" unicode="&#x113;" horiz-adv-x="450" 
d="M407 232h-309c1 -106 58 -194 168 -194c43 0 83 14 115 32l18 -39c-37 -25 -93 -41 -143 -41c-140 0 -214 113 -214 255c0 145 80 240 186 240c114 0 179 -93 179 -239v-14zM99 278h250c-2 81 -40 160 -120 160c-78 0 -128 -71 -130 -160zM114 576v46h232v-46h-232z" />
    <glyph glyph-name="ebreve" unicode="&#x115;" horiz-adv-x="450" 
d="M407 232h-309c1 -106 58 -194 168 -194c43 0 83 14 115 32l18 -39c-37 -25 -93 -41 -143 -41c-140 0 -214 113 -214 255c0 145 80 240 186 240c114 0 179 -93 179 -239v-14zM99 278h250c-2 81 -40 160 -120 160c-78 0 -128 -71 -130 -160zM306 660h41
c-5 -69 -48 -114 -118 -114s-109 45 -114 114h41c7 -41 28 -71 75 -71s68 30 75 71z" />
    <glyph glyph-name="edotaccent" unicode="&#x117;" horiz-adv-x="450" 
d="M407 232h-309c1 -106 58 -194 168 -194c43 0 83 14 115 32l18 -39c-37 -25 -93 -41 -143 -41c-140 0 -214 113 -214 255c0 145 80 240 186 240c114 0 179 -93 179 -239v-14zM99 278h250c-2 81 -40 160 -120 160c-78 0 -128 -71 -130 -160zM230 593c-23 0 -38 17 -38 40
s15 40 38 40c24 0 39 -17 39 -40c0 -24 -16 -40 -39 -40z" />
    <glyph glyph-name="eogonek" unicode="&#x119;" horiz-adv-x="450" 
d="M206 -134c0 59 42 99 77 124v2c-6 -1 -18 -2 -27 -2c-140 0 -214 113 -214 255c0 145 80 240 186 240c114 0 179 -93 179 -239v-14h-309c1 -106 58 -194 168 -194c43 0 83 14 115 32l18 -39c-57 -34 -143 -93 -143 -157c0 -26 13 -44 40 -44c11 0 24 3 39 8l9 -40
c-20 -7 -38 -10 -54 -10c-56 0 -84 38 -84 78zM99 278h250c-2 81 -40 160 -120 160c-78 0 -128 -71 -130 -160z" />
    <glyph glyph-name="gcircumflex" unicode="&#x11d;" horiz-adv-x="461" 
d="M224 -237c-119 0 -202 47 -202 135c0 46 25 92 89 125c-21 12 -34 34 -34 59c0 20 5 54 47 95c-42 29 -71 77 -71 141c0 98 75 166 166 166c40 0 67 -9 86 -17c5 -2 7 -3 10 0c22 23 53 38 90 38c12 0 23 -2 27 -3l-15 -46c-8 2 -16 3 -24 3c-18 0 -35 -5 -50 -16
c39 -33 58 -79 58 -126c0 -100 -71 -169 -176 -169c-24 0 -45 4 -64 11c-22 -23 -31 -43 -31 -63c0 -97 312 -13 312 -189c0 -90 -87 -144 -218 -144zM226 -191c112 0 160 44 160 93c0 94 -138 78 -235 104c-29 -17 -77 -48 -77 -100c0 -62 64 -97 152 -97zM226 196
c67 0 118 43 118 121c0 71 -50 119 -118 119c-70 0 -117 -47 -117 -118c0 -72 45 -122 117 -122zM99 531l98 147h57l98 -147h-50l-76 109l-77 -109h-50z" />
    <glyph glyph-name="gbreve" unicode="&#x11f;" horiz-adv-x="461" 
d="M224 -237c-119 0 -202 47 -202 135c0 46 25 92 89 125c-21 12 -34 34 -34 59c0 20 5 54 47 95c-42 29 -71 77 -71 141c0 98 75 166 166 166c40 0 67 -9 86 -17c5 -2 7 -3 10 0c22 23 53 38 90 38c12 0 23 -2 27 -3l-15 -46c-8 2 -16 3 -24 3c-18 0 -35 -5 -50 -16
c39 -33 58 -79 58 -126c0 -100 -71 -169 -176 -169c-24 0 -45 4 -64 11c-22 -23 -31 -43 -31 -63c0 -97 312 -13 312 -189c0 -90 -87 -144 -218 -144zM226 -191c112 0 160 44 160 93c0 94 -138 78 -235 104c-29 -17 -77 -48 -77 -100c0 -62 64 -97 152 -97zM226 196
c67 0 118 43 118 121c0 71 -50 119 -118 119c-70 0 -117 -47 -117 -118c0 -72 45 -122 117 -122zM301 660h41c-5 -69 -48 -114 -118 -114s-109 45 -114 114h41c7 -41 28 -71 75 -71s68 30 75 71z" />
    <glyph glyph-name="gdotaccent" unicode="&#x121;" horiz-adv-x="461" 
d="M224 -237c-119 0 -202 47 -202 135c0 46 25 92 89 125c-21 12 -34 34 -34 59c0 20 5 54 47 95c-42 29 -71 77 -71 141c0 98 75 166 166 166c40 0 67 -9 86 -17c5 -2 7 -3 10 0c22 23 53 38 90 38c12 0 23 -2 27 -3l-15 -46c-8 2 -16 3 -24 3c-18 0 -35 -5 -50 -16
c39 -33 58 -79 58 -126c0 -100 -71 -169 -176 -169c-24 0 -45 4 -64 11c-22 -23 -31 -43 -31 -63c0 -97 312 -13 312 -189c0 -90 -87 -144 -218 -144zM226 -191c112 0 160 44 160 93c0 94 -138 78 -235 104c-29 -17 -77 -48 -77 -100c0 -62 64 -97 152 -97zM226 196
c67 0 118 43 118 121c0 71 -50 119 -118 119c-70 0 -117 -47 -117 -118c0 -72 45 -122 117 -122zM225 593c-23 0 -38 17 -38 40s15 40 38 40c24 0 39 -17 39 -40c0 -24 -16 -40 -39 -40z" />
    <glyph glyph-name="gcommaaccent" unicode="&#x123;" horiz-adv-x="461" 
d="M250 531h-51c-15 18 -25 49 -25 74c0 48 30 89 104 111l17 -37c-59 -18 -71 -46 -71 -76c0 -22 10 -47 26 -72zM224 -237c-119 0 -202 47 -202 135c0 46 25 92 89 125c-21 12 -34 34 -34 59c0 20 5 54 47 95c-42 29 -71 77 -71 141c0 98 75 166 166 166
c40 0 67 -9 86 -17c5 -2 7 -3 10 0c22 23 53 38 90 38c12 0 23 -2 27 -3l-15 -46c-8 2 -16 3 -24 3c-18 0 -35 -5 -50 -16c39 -33 58 -79 58 -126c0 -100 -71 -169 -176 -169c-24 0 -45 4 -64 11c-22 -23 -31 -43 -31 -63c0 -97 312 -13 312 -189c0 -90 -87 -144 -218 -144z
M226 -191c112 0 160 44 160 93c0 94 -138 78 -235 104c-29 -17 -77 -48 -77 -100c0 -62 64 -97 152 -97zM226 196c67 0 118 43 118 121c0 71 -50 119 -118 119c-70 0 -117 -47 -117 -118c0 -72 45 -122 117 -122z" />
    <glyph glyph-name="hcircumflex" unicode="&#x125;" horiz-adv-x="496" 
d="M73 0v708h53v-298c52 44 105 75 166 75c74 0 136 -51 136 -164v-321h-53v302c0 76 -21 134 -91 134c-58 0 -109 -37 -158 -81v-355h-53zM-25 726l98 147h57l98 -147h-50l-76 109l-77 -109h-50z" />
    <glyph glyph-name="hbar" unicode="&#x127;" horiz-adv-x="493" 
d="M70 0v566h-66v46h66v96h53v-96h142v-46h-142v-156c52 44 105 75 166 75c74 0 136 -51 136 -164v-321h-53v302c0 76 -21 134 -91 134c-58 0 -109 -37 -158 -81v-355h-53z" />
    <glyph glyph-name="itilde" unicode="&#x129;" horiz-adv-x="219" 
d="M-20 557v15c0 45 29 74 66 74c53 0 91 -50 126 -50c22 0 29 20 29 44h41v-15c0 -45 -29 -74 -66 -74c-52 0 -92 50 -126 50c-22 0 -29 -20 -29 -44h-41zM83 0v473h53v-473h-53z" />
    <glyph glyph-name="imacron" unicode="&#x12b;" horiz-adv-x="219" 
d="M-5 576v46h232v-46h-232zM83 0v473h53v-473h-53z" />
    <glyph glyph-name="ibreve" horiz-adv-x="219" 
d="M186 660h41c-5 -69 -48 -114 -118 -114s-109 45 -114 114h41c7 -41 28 -71 75 -71s68 30 75 71zM83 0v473h53v-473h-53z" />
    <glyph glyph-name="iogonek" unicode="&#x12f;" horiz-adv-x="219" 
d="M14 -128c0 57 33 101 69 136v465h53v-473c-43 -31 -72 -77 -72 -119c0 -32 14 -51 42 -51c11 0 23 3 37 8l9 -40c-20 -7 -38 -10 -54 -10c-56 0 -84 36 -84 84zM109 593c-23 0 -38 17 -38 40s15 40 38 40c24 0 39 -17 39 -40c0 -24 -16 -40 -39 -40z" />
    <glyph glyph-name="ij" unicode="&#x133;" horiz-adv-x="448" 
d="M83 0v473h53v-473h-53zM109 593c-23 0 -38 17 -38 40s15 40 38 40c24 0 39 -17 39 -40c0 -24 -16 -40 -39 -40zM176 -225l12 46c12 -5 26 -10 46 -10c54 0 78 32 78 110v552h53v-564c0 -108 -61 -146 -126 -146c-20 0 -44 3 -63 12zM338 593c-23 0 -38 17 -38 40
s15 40 38 40c24 0 39 -17 39 -40c0 -24 -16 -40 -39 -40z" />
    <glyph glyph-name="jcircumflex" unicode="&#x135;" horiz-adv-x="229" 
d="M-43 -225l12 46c12 -5 26 -10 46 -10c54 0 78 32 78 110v552h53v-564c0 -108 -61 -146 -126 -146c-20 0 -44 3 -63 12zM-12 531l98 147h57l98 -147h-50l-76 109l-77 -109h-50z" />
    <glyph glyph-name="kcommaaccent" unicode="&#x137;" horiz-adv-x="416" 
d="M73 0v708h53v-414h2l191 179h68l-213 -197l238 -276h-68l-216 253h-2v-253h-53zM162 -237l-17 37c59 18 71 46 71 76c0 22 -10 47 -26 72h51c15 -18 25 -49 25 -74c0 -48 -30 -89 -104 -111z" />
    <glyph glyph-name="lacute" unicode="&#x13a;" horiz-adv-x="223" 
d="M75 732l50 127h64l-70 -127h-44zM73 77v631h53v-612c0 -41 11 -53 37 -53c9 0 23 4 29 7l12 -43c-15 -7 -36 -12 -56 -12c-51 0 -75 32 -75 82z" />
    <glyph glyph-name="lcaron" unicode="&#x13e;" horiz-adv-x="223" 
d="M73 77v631h53v-612c0 -41 11 -53 37 -53c9 0 23 4 29 7l12 -43c-15 -7 -36 -12 -56 -12c-51 0 -75 32 -75 82zM168 513l36 195h56l-51 -195h-41z" />
    <glyph glyph-name="lcommaaccent" unicode="&#x13c;" horiz-adv-x="223" 
d="M73 77v631h53v-612c0 -41 11 -53 37 -53c9 0 23 4 29 7l12 -43c-15 -7 -36 -12 -56 -12c-51 0 -75 32 -75 82zM79 -237l-17 37c59 18 71 46 71 76c0 22 -10 47 -26 72h51c15 -18 25 -49 25 -74c0 -48 -30 -89 -104 -111z" />
    <glyph glyph-name="ldot" unicode="&#x140;" horiz-adv-x="243" 
d="M73 77v631h53v-612c0 -41 11 -53 37 -53c9 0 23 4 29 7l12 -43c-15 -7 -36 -12 -56 -12c-51 0 -75 32 -75 82zM223 295c-22 0 -39 19 -39 41s17 41 39 41s39 -19 39 -41s-17 -41 -39 -41z" />
    <glyph glyph-name="nacute" unicode="&#x144;" horiz-adv-x="493" 
d="M70 0v473h44l8 -64c52 45 106 76 167 76c74 0 136 -51 136 -164v-321h-53v302c0 76 -21 134 -91 134c-58 0 -109 -37 -158 -81v-355h-53zM202 531l59 147h63l-80 -147h-42z" />
    <glyph glyph-name="ncaron" unicode="&#x148;" horiz-adv-x="493" 
d="M70 0v473h44l8 -64c52 45 106 76 167 76c74 0 136 -51 136 -164v-321h-53v302c0 76 -21 134 -91 134c-58 0 -109 -37 -158 -81v-355h-53zM205 532l-98 147h51l77 -109l76 109h49l-98 -147h-57z" />
    <glyph glyph-name="ncommaaccent" unicode="&#x146;" horiz-adv-x="493" 
d="M70 0v473h44l8 -64c52 45 106 76 167 76c74 0 136 -51 136 -164v-321h-53v302c0 76 -21 134 -91 134c-58 0 -109 -37 -158 -81v-355h-53zM189 -237l-17 37c59 18 71 46 71 76c0 22 -10 47 -26 72h51c15 -18 25 -49 25 -74c0 -48 -30 -89 -104 -111z" />
    <glyph glyph-name="zero.numr" 
d="M179 263c-77 0 -133 70 -133 198s57 196 135 196c77 0 134 -70 134 -199c0 -127 -58 -195 -136 -195zM182 306c58 0 84 68 84 150c0 101 -34 158 -87 158c-57 0 -84 -68 -84 -149c0 -101 35 -159 87 -159z" />
    <glyph glyph-name="Adieresis.small" horiz-adv-x="470" 
d="M14 0l206 534h30l206 -534h-56l-52 138h-227l-51 -138h-56zM138 184h193l-60 162c-12 32 -23 63 -35 96h-2c-12 -33 -24 -65 -36 -97zM148 593c-20 0 -36 16 -36 36s16 36 36 36s36 -16 36 -36s-16 -36 -36 -36zM320 593c-20 0 -36 16 -36 36s16 36 36 36s36 -16 36 -36
s-16 -36 -36 -36z" />
    <glyph glyph-name="Atilde.small" horiz-adv-x="470" 
d="M104 592v15c0 45 29 74 66 74c53 0 91 -50 126 -50c22 0 29 20 29 44h41v-15c0 -45 -29 -74 -66 -74c-52 0 -92 50 -126 50c-22 0 -29 -20 -29 -44h-41zM14 0l206 534h30l206 -534h-56l-52 138h-227l-51 -138h-56zM138 184h193l-60 162c-12 32 -23 63 -35 96h-2
c-12 -33 -24 -65 -36 -97z" />
    <glyph glyph-name="Acircumflex.small" horiz-adv-x="470" 
d="M14 0l206 534h30l206 -534h-56l-52 138h-227l-51 -138h-56zM138 184h193l-60 162c-12 32 -23 63 -35 96h-2c-12 -33 -24 -65 -36 -97zM109 556l98 147h57l98 -147h-50l-76 109l-77 -109h-50z" />
    <glyph glyph-name="Aacute.small" horiz-adv-x="470" 
d="M208 566l59 147h63l-80 -147h-42zM14 0l206 534h30l206 -534h-56l-52 138h-227l-51 -138h-56zM138 184h193l-60 162c-12 32 -23 63 -35 96h-2c-12 -33 -24 -65 -36 -97z" />
    <glyph glyph-name="Agrave.small" horiz-adv-x="470" 
d="M217 566l-81 147h67l58 -147h-44zM14 0l206 534h30l206 -534h-56l-52 138h-227l-51 -138h-56zM138 184h193l-60 162c-12 32 -23 63 -35 96h-2c-12 -33 -24 -65 -36 -97z" />
    <glyph glyph-name="Z.small" horiz-adv-x="458" 
d="M47 0l286 484h-255l-18 46h356l-284 -484h289v-46h-374z" />
    <glyph glyph-name="Y.small" horiz-adv-x="426" 
d="M210 270h2c15 27 31 56 45 81l97 179h58l-175 -310v-220h-53v220l-170 310h59l93 -177c14 -27 29 -56 44 -83z" />
    <glyph glyph-name="X.small" horiz-adv-x="472" 
d="M28 530h63l150 -220l152 220h62l-181 -262l184 -268h-61l-158 233l-164 -233h-61l193 270z" />
    <glyph glyph-name="W.small" horiz-adv-x="696" 
d="M484 95h2c11 39 22 77 36 120l105 315h55l-180 -532h-33l-80 240c-10 31 -25 76 -33 104h-2c-7 -26 -23 -73 -35 -105l-87 -239h-33l-185 532h57l110 -317c11 -31 28 -85 37 -118h2c9 34 28 90 38 117l70 196l-40 122h56l105 -315c11 -34 26 -83 35 -120z" />
    <glyph glyph-name="V.small" horiz-adv-x="489" 
d="M243 84h2c17 43 34 87 51 130l124 316h55l-215 -532h-32l-214 532h55l123 -313c17 -44 34 -89 51 -133z" />
    <glyph glyph-name="U.small" horiz-adv-x="567" 
d="M483 530v-340c0 -141 -87 -201 -203 -201c-113 0 -196 59 -196 200v341h53v-340c0 -111 59 -153 146 -153c86 0 147 42 147 153v340h53z" />
    <glyph glyph-name="T.small" horiz-adv-x="413" 
d="M184 0v484h-167v46h397l-20 -46h-157v-484h-53z" />
    <glyph glyph-name="S.small" horiz-adv-x="390" 
d="M44 24l20 44c25 -15 64 -30 113 -30c59 0 118 31 118 96c0 145 -236 102 -236 271c0 73 55 135 151 135c49 0 93 -14 115 -25v-49c-32 16 -72 26 -112 26c-47 0 -100 -23 -100 -82c0 -134 237 -90 237 -270c0 -101 -81 -150 -173 -150c-53 0 -102 15 -133 34z" />
    <glyph glyph-name="R.small" horiz-adv-x="455" 
d="M281 238v-2c20 -14 40 -41 69 -87l93 -149h-61l-90 147c-22 37 -46 66 -65 75h-85v-222h-53v530h118c128 0 178 -72 178 -151c0 -62 -34 -119 -104 -141zM142 268h80c68 0 108 44 108 108c0 62 -37 108 -116 108h-72v-216z" />
    <glyph glyph-name="Q.small" horiz-adv-x="606" 
d="M249 -4c-117 25 -203 130 -203 269c0 161 114 275 257 275s257 -114 257 -275c0 -153 -105 -265 -239 -274v-2c28 -39 71 -61 138 -61c17 0 39 3 54 8l12 -45c-18 -6 -47 -10 -72 -10c-94 0 -156 44 -204 115zM303 38c113 0 201 90 201 227s-88 227 -201 227
s-201 -90 -201 -227s88 -227 201 -227z" />
    <glyph glyph-name="P.small" horiz-adv-x="421" 
d="M89 0v530h117c109 0 177 -62 177 -164c0 -104 -68 -169 -188 -169h-53v-197h-53zM142 243h61c85 0 125 47 125 121c0 73 -40 120 -124 120h-62v-241z" />
    <glyph glyph-name="O.small" horiz-adv-x="606" 
d="M303 38c113 0 201 90 201 227s-88 227 -201 227s-201 -90 -201 -227s88 -227 201 -227zM303 540c143 0 257 -114 257 -275c0 -160 -114 -275 -257 -275s-257 115 -257 275c0 161 114 275 257 275z" />
    <glyph glyph-name="N.small" horiz-adv-x="621" 
d="M479 85h2c-1 28 -2 78 -2 112v333h53v-530h-44l-258 328c-38 48 -64 83 -88 119h-1c1 -30 1 -79 1 -113v-334h-53v530h47l256 -326c38 -48 63 -83 87 -119z" />
    <glyph glyph-name="M.small" horiz-adv-x="680" 
d="M89 0v530h49l139 -217c27 -43 49 -78 62 -101h2c13 23 35 58 62 101l138 217h50v-530h-53v335c0 33 0 77 2 102h-2c-17 -28 -40 -66 -59 -96l-123 -193h-32l-123 193c-19 30 -42 68 -59 96h-2c2 -25 2 -69 2 -102v-335h-53z" />
    <glyph glyph-name="L.small" 
d="M89 0v530h53v-484h212v-46h-265z" />
    <glyph glyph-name="K.small" horiz-adv-x="444" 
d="M89 0v530h53v-256h2l207 256h59l-216 -268l241 -262h-67l-224 243h-2v-243h-53z" />
    <glyph glyph-name="J.small" horiz-adv-x="250" 
d="M-20 -112l9 46c12 -3 24 -5 37 -5c71 0 82 48 82 112v489h53v-501c0 -95 -42 -148 -134 -148c-14 0 -33 2 -47 7z" />
    <glyph glyph-name="I.small" horiz-adv-x="231" 
d="M89 0v530h53v-530h-53z" />
    <glyph glyph-name="H.small" horiz-adv-x="579" 
d="M89 0v530h53v-238h295v238h53v-530h-53v246h-295v-246h-53z" />
    <glyph glyph-name="G.small" horiz-adv-x="542" 
d="M463 248v-225c-37 -18 -96 -33 -154 -33c-153 0 -263 111 -263 269c0 156 101 281 274 281c43 0 89 -9 130 -28v-49c-38 19 -81 29 -127 29c-151 0 -221 -114 -221 -227c0 -144 91 -227 205 -227c37 0 71 5 103 16v194h53z" />
    <glyph glyph-name="F.small" horiz-adv-x="416" 
d="M89 0v530h283l-20 -46h-210v-197h204v-46h-204v-241h-53z" />
    <glyph glyph-name="E.small" horiz-adv-x="427" 
d="M89 0v530h283l-20 -46h-210v-192h204v-46h-204v-200h221v-46h-274z" />
    <glyph glyph-name="D.small" horiz-adv-x="544" 
d="M89 0v530h129c191 0 280 -102 280 -262s-96 -268 -279 -268h-130zM142 46h82c156 0 218 98 218 224c0 131 -69 214 -221 214h-79v-438z" />
    <glyph glyph-name="C.small" horiz-adv-x="474" 
d="M428 74l18 -42c-38 -24 -89 -42 -149 -42c-150 0 -251 111 -251 267c0 164 110 283 262 283c47 0 92 -13 126 -29v-49c-33 17 -73 30 -122 30c-119 0 -210 -93 -210 -230c0 -141 84 -224 194 -224c56 0 101 17 132 36z" />
    <glyph glyph-name="B.small" horiz-adv-x="460" 
d="M306 277v-2c58 -13 105 -55 105 -127s-45 -148 -183 -148h-139v530h135c104 0 156 -65 156 -137c0 -51 -23 -91 -74 -116zM142 46h87c97 0 127 42 127 102c0 62 -42 98 -114 98h-100v-200zM142 292h80c68 0 104 45 104 98c0 49 -34 94 -105 94h-79v-192z" />
    <glyph glyph-name="A.small" horiz-adv-x="470" 
d="M14 0l206 534h30l206 -534h-56l-52 138h-227l-51 -138h-56zM138 184h193l-60 162c-12 32 -23 63 -35 96h-2c-12 -33 -24 -65 -36 -97z" />
    <glyph glyph-name="four.OT" horiz-adv-x="505" 
d="M30 0v39l306 447h39v-440h96v-46h-96v-177l-53 -18v195h-292zM89 46h82h151v189c0 61 2 115 5 157z" />
    <glyph glyph-name="three.OT" horiz-adv-x="505" 
d="M49 -180l12 47c28 -10 68 -15 105 -15c107 0 206 45 206 163c0 113 -117 121 -171 121h-82v45h15c35 0 68 3 98 10c73 18 124 62 124 138c0 81 -60 118 -120 118c-61 0 -111 -24 -149 -44l-20 41c40 25 104 50 170 50c105 0 175 -69 175 -159s-58 -142 -111 -163v-2
c88 -16 127 -81 127 -156c0 -77 -45 -209 -266 -209c-38 0 -88 6 -113 15z" />
    <glyph glyph-name="two.OT" horiz-adv-x="505" 
d="M79 0c27 261 278 232 278 368c0 49 -41 79 -105 79c-56 0 -107 -20 -145 -44l-19 42c43 29 105 49 169 49c103 0 156 -54 156 -128c0 -153 -242 -157 -268 -320h277v-46h-343z" />
    <glyph glyph-name="one.OT" horiz-adv-x="505" 
d="M289 0v428l-168 -83l-20 42l194 99h47v-486h-53z" />
    <glyph glyph-name="zero.OT" horiz-adv-x="505" 
d="M252 -10c-122 0 -200 104 -200 253s78 251 200 251s200 -102 200 -251s-78 -253 -200 -253zM252 38c97 0 144 85 144 205s-47 203 -144 203s-144 -83 -144 -203s47 -205 144 -205z" />
    <glyph glyph-name="yen.OP" horiz-adv-x="505" 
d="M226 0v98h-123v46h123v63h-123v46h99l-135 257h57l128 -247h1l128 247h57l-135 -257h99v-46h-123v-63h123v-46h-123v-98h-53z" />
    <glyph glyph-name="sterling.OP" horiz-adv-x="505" 
d="M90 0v41c57 34 68 136 69 198h-62v46h62v73c0 104 72 161 160 161c45 0 77 -9 99 -16l-9 -47c-21 7 -51 16 -88 16c-49 0 -109 -22 -109 -116v-71h177l-18 -46h-159c-1 -74 -16 -145 -49 -191v-2h61h193v-46h-327z" />
    <glyph glyph-name="dollar.OP" horiz-adv-x="505" 
d="M225 -59v73c-48 2 -91 14 -125 33l17 43c25 -13 70 -29 120 -29c59 0 117 21 117 82c0 128 -241 84 -241 239c0 61 44 108 122 118v70h48v-69c44 -2 80 -13 100 -21v-50c-34 16 -72 25 -113 25c-48 0 -103 -15 -103 -68c0 -117 241 -77 241 -239
c0 -81 -58 -122 -134 -132v-75h-49z" />
    <glyph glyph-name="Euro.OP" horiz-adv-x="505" 
d="M426 69l21 -43c-47 -28 -92 -36 -129 -36c-100 0 -179 59 -205 175h-60v46h54c-1 12 -2 27 -2 38c0 15 1 33 3 49h-55v46h63c31 116 115 175 207 175c48 0 91 -14 117 -29v-51c-38 20 -70 32 -116 32c-67 0 -125 -43 -151 -127h240l-18 -46h-231c-2 -15 -3 -34 -3 -46
c0 -11 0 -25 2 -41h230l-18 -46h-204c24 -88 85 -127 149 -127c40 0 70 9 106 31z" />
    <glyph glyph-name="nine.OP" horiz-adv-x="521" 
d="M141 -146c84 33 226 124 256 283l-2 1c-34 -29 -93 -62 -159 -62c-93 0 -184 63 -184 201c0 130 85 217 206 217c103 0 203 -83 203 -261c0 -217 -137 -360 -301 -424zM241 124c62 0 124 36 162 72c1 7 2 27 2 40c0 143 -75 210 -148 210c-91 0 -149 -67 -149 -167
c0 -94 51 -155 133 -155z" />
    <glyph glyph-name="eight.OP" horiz-adv-x="527" 
d="M258 -10c-129 0 -208 68 -208 176c0 94 64 152 136 174v2c-61 24 -115 70 -115 153c0 98 76 169 193 169c122 0 188 -78 188 -166c0 -82 -52 -132 -111 -158v-2c64 -22 136 -64 136 -168c0 -105 -88 -180 -219 -180zM260 38c81 0 161 42 161 130c0 92 -83 122 -176 149
c-67 -18 -139 -62 -139 -144c0 -93 73 -135 154 -135zM281 361c55 18 115 60 115 135c0 68 -50 120 -132 120c-78 0 -137 -43 -137 -114c0 -86 75 -119 154 -141z" />
    <glyph glyph-name="seven.OP" horiz-adv-x="434" 
d="M80 -195c44 249 154 480 265 635h-310l-12 46h389v-26c-121 -173 -227 -385 -272 -636z" />
    <glyph glyph-name="six.OP" horiz-adv-x="521" 
d="M261 -10c-103 0 -201 78 -201 271c0 208 134 372 339 413l7 -50c-134 -24 -251 -118 -281 -278l1 -1c34 29 93 62 159 62c97 0 184 -63 184 -198c0 -133 -87 -219 -208 -219zM267 38c86 0 146 66 146 170c0 90 -51 151 -133 151c-62 0 -124 -37 -162 -73
c-1 -4 -2 -24 -2 -36c0 -144 72 -212 151 -212z" />
    <glyph glyph-name="five.OP" horiz-adv-x="453" 
d="M27 -179l12 47c24 -9 59 -16 97 -16c119 0 204 63 204 172c0 48 -17 85 -47 105c-36 24 -90 31 -153 31h-50l29 326h304l-12 -46h-243l-21 -234h23c64 0 114 -11 149 -31c55 -32 77 -88 77 -147c0 -100 -61 -223 -261 -223c-44 0 -88 8 -108 16z" />
    <glyph glyph-name="four.OP" horiz-adv-x="505" 
d="M30 0v39l306 447h39v-440h96v-46h-96v-177l-53 -18v195h-292zM89 46h82h151v189c0 61 2 115 5 157z" />
    <glyph glyph-name="three.OP" horiz-adv-x="489" 
d="M33 -180l12 47c28 -10 68 -15 105 -15c107 0 206 45 206 163c0 113 -117 121 -171 121h-82v45h15c35 0 68 3 98 10c73 18 124 62 124 138c0 81 -60 118 -120 118c-61 0 -111 -24 -149 -44l-20 41c40 25 104 50 170 50c105 0 175 -69 175 -159s-58 -142 -111 -163v-2
c88 -16 127 -81 127 -156c0 -77 -45 -209 -266 -209c-38 0 -88 6 -113 15z" />
    <glyph glyph-name="two.OP" horiz-adv-x="481" 
d="M62 0c27 261 278 232 278 368c0 49 -41 79 -105 79c-56 0 -107 -20 -145 -44l-19 42c43 29 105 49 169 49c103 0 156 -54 156 -128c0 -153 -242 -157 -268 -320h277v-46h-343z" />
    <glyph glyph-name="one.OP" horiz-adv-x="400" 
d="M214 0v428l-144 -74l-20 42l170 90h47v-486h-53z" />
    <glyph glyph-name="zero.OP" horiz-adv-x="504" 
d="M252 -10c-122 0 -200 104 -200 253s78 251 200 251s200 -102 200 -251s-78 -253 -200 -253zM252 38c97 0 144 85 144 205s-47 203 -144 203s-144 -83 -144 -203s47 -205 144 -205z" />
    <glyph glyph-name="yen.LT" horiz-adv-x="513" 
d="M230 0v128h-155v46h155v89h-155v46h135l-168 350h57l157 -337h1l157 337h57l-168 -350h135v-46h-155v-89h155v-46h-155v-128h-53z" />
    <glyph glyph-name="sterling.LT" horiz-adv-x="513" 
d="M72 0v43c78 46 92 191 92 272h-82v46h82v98c0 175 116 205 180 205c42 0 72 -8 99 -16l-10 -45c-24 7 -48 14 -85 14c-62 0 -131 -32 -131 -161v-95h192l-18 -46h-174c0 -101 -17 -207 -73 -267v-2h87h211v-46h-370z" />
    <glyph glyph-name="five.OT" horiz-adv-x="505" 
d="M47 -179l12 47c24 -9 59 -16 97 -16c119 0 204 63 204 172c0 48 -17 85 -47 105c-36 24 -90 31 -153 31h-50l29 326h304l-12 -46h-243l-21 -234h23c64 0 114 -11 149 -31c55 -32 77 -88 77 -147c0 -100 -61 -223 -261 -223c-44 0 -88 8 -108 16z" />
    <glyph glyph-name="six.OT" horiz-adv-x="505" 
d="M257 -10c-103 0 -201 78 -201 271c0 208 134 372 339 413l7 -50c-134 -24 -251 -118 -281 -278l1 -1c34 29 93 62 159 62c97 0 184 -63 184 -198c0 -133 -87 -219 -208 -219zM263 38c86 0 146 66 146 170c0 90 -51 151 -133 151c-62 0 -124 -37 -162 -73
c-1 -4 -2 -24 -2 -36c0 -144 72 -212 151 -212z" />
    <glyph glyph-name="seven.OT" horiz-adv-x="505" 
d="M131 -195c44 249 154 480 265 635h-310l-12 46h389v-26c-121 -173 -227 -385 -272 -636z" />
    <glyph glyph-name="eight.OT" horiz-adv-x="505" 
d="M250 -10c-129 0 -208 68 -208 176c0 94 64 152 136 174v2c-61 24 -115 70 -115 153c0 98 76 169 193 169c122 0 188 -78 188 -166c0 -82 -52 -132 -111 -158v-2c64 -22 136 -64 136 -168c0 -105 -88 -180 -219 -180zM252 38c81 0 161 42 161 130c0 92 -83 122 -176 149
c-67 -18 -139 -62 -139 -144c0 -93 73 -135 154 -135zM273 361c55 18 115 60 115 135c0 68 -50 120 -132 120c-78 0 -137 -43 -137 -114c0 -86 75 -119 154 -141z" />
    <glyph glyph-name="nine.OT" horiz-adv-x="505" 
d="M129 -146c84 33 226 124 256 283l-2 1c-34 -29 -93 -62 -159 -62c-93 0 -184 63 -184 201c0 130 85 217 206 217c103 0 203 -83 203 -261c0 -217 -137 -360 -301 -424zM229 124c62 0 124 36 162 72c1 7 2 27 2 40c0 143 -75 210 -148 210c-91 0 -149 -67 -149 -167
c0 -94 51 -155 133 -155z" />
    <glyph glyph-name="Euro.OT" horiz-adv-x="505" 
d="M426 69l21 -43c-47 -28 -92 -36 -129 -36c-100 0 -179 59 -205 175h-60v46h54c-1 12 -2 27 -2 38c0 15 1 33 3 49h-55v46h63c31 116 115 175 207 175c48 0 91 -14 117 -29v-51c-38 20 -70 32 -116 32c-67 0 -125 -43 -151 -127h240l-18 -46h-231c-2 -15 -3 -34 -3 -46
c0 -11 0 -25 2 -41h230l-18 -46h-204c24 -88 85 -127 149 -127c40 0 70 9 106 31z" />
    <glyph glyph-name="dollar.OT" horiz-adv-x="505" 
d="M225 -59v73c-48 2 -91 14 -125 33l17 43c25 -13 70 -29 120 -29c59 0 117 21 117 82c0 128 -241 84 -241 239c0 61 44 108 122 118v70h48v-69c44 -2 80 -13 100 -21v-50c-34 16 -72 25 -113 25c-48 0 -103 -15 -103 -68c0 -117 241 -77 241 -239
c0 -81 -58 -122 -134 -132v-75h-49z" />
    <glyph glyph-name="sterling.OT" horiz-adv-x="505" 
d="M90 0v41c57 34 68 136 69 198h-62v46h62v73c0 104 72 161 160 161c45 0 77 -9 99 -16l-9 -47c-21 7 -51 16 -88 16c-49 0 -109 -22 -109 -116v-71h177l-18 -46h-159c-1 -74 -16 -145 -49 -191v-2h61h193v-46h-327z" />
    <glyph glyph-name="yen.OT" horiz-adv-x="505" 
d="M226 0v98h-123v46h123v63h-123v46h99l-135 257h57l128 -247h1l128 247h57l-135 -257h99v-46h-123v-63h123v-46h-123v-98h-53z" />
    <glyph glyph-name="zero.small" horiz-adv-x="451" 
d="M223 -10c-105 0 -181 101 -181 275s76 275 181 275s181 -101 181 -275s-76 -275 -181 -275zM223 38c75 0 125 86 125 227s-50 227 -125 227s-125 -86 -125 -227s50 -227 125 -227z" />
    <glyph glyph-name="one.small" horiz-adv-x="327" 
d="M172 0v475l-125 -64l-20 44l155 79h43v-534h-53z" />
    <glyph glyph-name="two.small" horiz-adv-x="407" 
d="M349 0h-315c28 294 263 265 263 406c0 58 -44 86 -98 86c-51 0 -100 -19 -129 -37l-20 43c37 22 89 42 148 42c103 0 155 -61 155 -133c0 -167 -219 -139 -257 -361h253v-46z" />
    <glyph glyph-name="three.small" horiz-adv-x="426" 
d="M260 275v-2c64 -17 99 -65 99 -124c0 -85 -62 -159 -199 -159c-51 0 -100 13 -133 27l15 46c34 -15 74 -25 120 -25c91 0 141 45 141 110c0 80 -66 99 -137 99h-72v48h65c103 0 130 52 130 103c0 53 -30 94 -100 94c-53 0 -100 -20 -130 -37l-19 43c40 23 93 42 150 42
c103 0 155 -65 155 -139c0 -62 -32 -102 -85 -126z" />
    <glyph glyph-name="four.small" horiz-adv-x="439" 
d="M40 143v41l254 350h37v-345h78v-46h-78v-143h-53v143h-238zM280 440l-182 -251h71h109v145c0 48 0 72 2 106z" />
    <glyph glyph-name="five.small" horiz-adv-x="412" 
d="M39 12l16 45c25 -10 59 -19 98 -19c80 0 140 39 140 118c0 49 -21 84 -74 100c-21 6 -48 9 -84 9h-61v265h275l-12 -46h-210v-172h20c40 0 70 -4 97 -12c66 -20 105 -69 105 -144c0 -93 -64 -166 -199 -166c-37 0 -75 7 -111 22z" />
    <glyph glyph-name="six.small" horiz-adv-x="432" 
d="M229 -10c-129 0 -187 116 -187 253c0 162 85 297 226 297c31 0 61 -4 97 -19l-18 -45c-22 10 -51 16 -77 16c-89 0 -161 -78 -171 -200c31 18 82 37 130 37c94 0 166 -60 166 -168c0 -105 -70 -171 -166 -171zM228 38c68 0 111 42 111 122c0 74 -47 121 -111 121
c-48 0 -96 -20 -130 -42c-2 -82 27 -201 130 -201z" />
    <glyph glyph-name="seven.small" horiz-adv-x="377" 
d="M123 0h-54c35 194 124 361 211 484h-248l-12 46h328v-27c-99 -136 -188 -303 -225 -503z" />
    <glyph glyph-name="eight.small" horiz-adv-x="447" 
d="M294 275v-2c47 -16 108 -52 108 -133c0 -86 -76 -150 -183 -150c-106 0 -174 59 -174 145c0 75 51 119 107 141v2c-48 21 -90 57 -90 123c0 78 64 139 162 139c103 0 157 -67 157 -139c0 -62 -41 -102 -87 -126zM221 38c62 0 126 34 126 100s-62 96 -135 116
c-51 -16 -112 -51 -112 -115c0 -68 54 -101 121 -101zM117 403c0 -64 55 -90 115 -106c43 12 94 46 94 103c0 51 -40 92 -103 92c-54 0 -106 -30 -106 -89z" />
    <glyph glyph-name="nine.small" horiz-adv-x="427" 
d="M51 13l17 46c30 -13 62 -21 94 -21c99 0 159 80 168 212c-31 -27 -73 -49 -129 -49c-74 0 -162 46 -162 166c0 100 67 173 165 173c111 0 181 -88 181 -253c0 -172 -77 -297 -224 -297c-35 0 -75 7 -110 23zM207 249c48 0 94 24 122 61c0 111 -50 182 -126 182
c-68 0 -108 -53 -108 -121c0 -72 38 -122 112 -122z" />
    <glyph glyph-name="Euro.small" horiz-adv-x="426" 
d="M384 67l22 -41c-45 -27 -90 -36 -127 -36c-100 0 -177 63 -201 183h-59v46h53c-3 28 -3 59 1 89h-54v46h61c29 125 115 186 201 186c50 0 86 -13 111 -28v-49c-38 20 -69 29 -108 29c-62 0 -123 -42 -147 -138h229l-18 -46h-219c-3 -29 -4 -58 0 -89h215l-18 -46h-190
c20 -84 67 -135 143 -135c41 0 68 8 105 29z" />
    <glyph glyph-name="dollar.small" horiz-adv-x="426" 
d="M179 -62v77c-52 3 -92 21 -117 36l23 42c24 -15 63 -32 108 -32c52 0 101 21 101 79c0 122 -221 114 -221 258c0 59 42 111 116 121v73h49v-72c37 -3 73 -13 90 -21v-49c-28 14 -71 24 -107 24c-51 0 -94 -23 -94 -74c0 -106 222 -114 222 -257c0 -71 -44 -114 -121 -127
v-78h-49z" />
    <glyph glyph-name="sterling.small" horiz-adv-x="426" 
d="M56 0v42c60 35 75 133 75 207h-67v46h67v78c0 105 56 167 151 167c31 0 62 -7 86 -15l-10 -44c-23 7 -44 12 -73 12c-67 0 -102 -44 -102 -120v-78h158l-18 -46h-140c0 -82 -14 -152 -58 -201v-2h75h167v-46h-311z" />
    <glyph glyph-name="yen.small" horiz-adv-x="426" 
d="M210 271h2l124 259h56l-137 -276h109v-46h-127v-64h127v-46h-127v-98h-53v98h-126v46h126v64h-126v46h108l-136 276h55z" />
    <glyph glyph-name="six.LT" horiz-adv-x="513" 
d="M273 -10c-120 0 -221 98 -221 311c0 195 102 363 274 363c35 0 70 -6 108 -23l-16 -46c-31 15 -61 21 -92 21c-115 0 -202 -102 -216 -264c42 26 100 52 167 52c110 0 196 -70 196 -202s-83 -212 -200 -212zM271 38c90 0 146 55 146 161c0 98 -60 157 -142 157
c-62 0 -124 -29 -166 -58c-3 -150 60 -260 162 -260z" />
    <glyph glyph-name="seven.LT" horiz-adv-x="513" 
d="M148 0c44 249 152 458 262 613h-309l-12 46h389v-26c-121 -173 -230 -382 -274 -633h-56z" />
    <glyph glyph-name="eight.LT" horiz-adv-x="513" 
d="M263 -10c-129 0 -208 68 -208 176c0 94 64 152 136 174v2c-61 24 -115 70 -115 153c0 98 76 169 193 169c122 0 188 -78 188 -166c0 -82 -52 -132 -111 -158v-2c64 -22 136 -64 136 -168c0 -105 -88 -180 -219 -180zM265 38c81 0 161 42 161 130c0 92 -83 122 -176 149
c-67 -18 -139 -62 -139 -144c0 -93 73 -135 154 -135zM286 361c55 18 115 60 115 135c0 68 -50 120 -132 120c-78 0 -137 -43 -137 -114c0 -86 75 -119 154 -141z" />
    <glyph glyph-name="nine.LT" horiz-adv-x="513" 
d="M197 -10c-40 0 -85 7 -128 24l15 47c34 -14 71 -23 116 -23c125 0 203 101 211 277h-2c-40 -36 -93 -65 -164 -65c-89 0 -194 54 -194 202c0 122 80 212 197 212c133 0 217 -106 217 -311c0 -220 -93 -363 -268 -363zM254 298c63 0 124 38 154 81c0 146 -63 238 -161 238
c-87 0 -140 -71 -140 -161c0 -95 51 -158 147 -158z" />
    <glyph glyph-name="Euro.LT" horiz-adv-x="513" 
d="M467 75l22 -43c-51 -32 -105 -42 -148 -42c-147 0 -221 96 -244 228h-71v46h65c-1 18 -2 41 -2 57c0 19 1 46 4 69h-67v46h75c30 131 114 228 242 228c59 0 103 -18 131 -35v-55c-43 23 -78 38 -127 38c-103 0 -166 -72 -190 -176h282l-18 -46h-272c-3 -21 -4 -47 -4 -65
c0 -17 1 -41 3 -61h264l-18 -46h-238c22 -101 80 -180 185 -180c51 0 82 12 126 37z" />
    <glyph glyph-name="dollar.LT" horiz-adv-x="513" 
d="M223 -78v96c-68 3 -112 24 -142 43l23 42c27 -18 73 -38 131 -38c57 0 130 25 130 103c0 158 -272 151 -272 330c0 73 51 139 143 148v92h49v-91c46 -4 88 -16 110 -26v-49c-31 16 -81 29 -126 29c-67 0 -121 -31 -121 -101c0 -144 272 -143 272 -329
c0 -81 -53 -136 -148 -152v-97h-49z" />
    <glyph glyph-name="plussuperior" unicode="&#x207a;" horiz-adv-x="419" 
d="M187 434v140h-132v44h132v136h45v-136h132v-44h-132v-140h-45z" />
    <glyph glyph-name="minussuperior" unicode="&#x207b;" horiz-adv-x="419" 
d="M55 574v44h309v-44h-309z" />
    <glyph glyph-name="equalsuperior" unicode="&#x207c;" horiz-adv-x="419" 
d="M55 513v44h309v-44h-309zM55 635v44h309v-44h-309z" />
    <glyph glyph-name="plusinferior" horiz-adv-x="419" 
d="M187 -151v140h-132v44h132v136h45v-136h132v-44h-132v-140h-45z" />
    <glyph glyph-name="minusinferior" horiz-adv-x="419" 
d="M55 -11v44h309v-44h-309z" />
    <glyph glyph-name="equalinferior" horiz-adv-x="419" 
d="M55 -72v44h309v-44h-309zM55 50v44h309v-44h-309z" />
    <glyph glyph-name="five.LT" horiz-adv-x="513" 
d="M68 14l15 46c27 -12 66 -22 116 -22c101 0 180 52 180 156c0 72 -39 111 -90 130c-32 12 -68 14 -112 14h-68v321h324l-12 -46h-259v-228h26c45 0 83 -3 115 -13c78 -24 132 -80 132 -178c0 -114 -75 -204 -241 -204c-58 0 -104 14 -126 24z" />
    <glyph glyph-name="four.LT" horiz-adv-x="513" 
d="M51 181v44l304 439h37v-437h90v-46h-90v-181h-53v181h-288zM108 227h79h152v187c0 61 2 115 5 157z" />
    <glyph glyph-name="three.LT" horiz-adv-x="513" 
d="M56 20l15 46c39 -17 82 -28 139 -28c92 0 182 42 182 145c0 64 -35 105 -105 120c-23 5 -51 7 -87 7h-65v48h57c145 0 183 67 183 136c0 71 -40 122 -129 122c-66 0 -121 -24 -156 -44l-19 43c45 26 107 49 176 49c123 0 183 -76 183 -167c0 -81 -38 -129 -109 -157v-2
c76 -16 127 -67 127 -154c0 -105 -77 -194 -243 -194c-61 0 -113 14 -149 30z" />
    <glyph glyph-name="two.LT" horiz-adv-x="513" 
d="M61 0c30 356 324 332 324 506c0 78 -57 110 -125 110c-64 0 -122 -23 -157 -44l-19 43c38 24 106 49 176 49c123 0 181 -71 181 -158c0 -206 -280 -180 -316 -460h312v-46h-376z" />
    <glyph glyph-name="Amacron.small" horiz-adv-x="470" 
d="M118 611v46h232v-46h-232zM14 0l206 534h30l206 -534h-56l-52 138h-227l-51 -138h-56zM138 184h193l-60 162c-12 32 -23 63 -35 96h-2c-12 -33 -24 -65 -36 -97z" />
    <glyph glyph-name="Ccircumflex.small" horiz-adv-x="474" 
d="M428 74l18 -42c-38 -24 -89 -42 -149 -42c-150 0 -251 111 -251 267c0 164 110 283 262 283c47 0 92 -13 126 -29v-49c-33 17 -73 30 -122 30c-119 0 -210 -93 -210 -230c0 -141 84 -224 194 -224c56 0 101 17 132 36zM153 566l98 147h57l98 -147h-50l-76 109l-77 -109
h-50z" />
    <glyph glyph-name="Abreve.small" horiz-adv-x="470" 
d="M310 695h41c-5 -69 -48 -114 -118 -114s-109 45 -114 114h41c7 -41 28 -71 75 -71s68 30 75 71zM14 0l206 534h30l206 -534h-56l-52 138h-227l-51 -138h-56zM138 184h193l-60 162c-12 32 -23 63 -35 96h-2c-12 -33 -24 -65 -36 -97z" />
    <glyph glyph-name="Ccaron.small" horiz-adv-x="474" 
d="M250 567l-98 147h51l77 -109l76 109h49l-98 -147h-57zM428 74l18 -42c-38 -24 -89 -42 -149 -42c-150 0 -251 111 -251 267c0 164 110 283 262 283c47 0 92 -13 126 -29v-49c-33 17 -73 30 -122 30c-119 0 -210 -93 -210 -230c0 -141 84 -224 194 -224
c56 0 101 17 132 36z" />
    <glyph glyph-name="Cdotaccent.small" horiz-adv-x="474" 
d="M428 74l18 -42c-38 -24 -89 -42 -149 -42c-150 0 -251 111 -251 267c0 164 110 283 262 283c47 0 92 -13 126 -29v-49c-33 17 -73 30 -122 30c-119 0 -210 -93 -210 -230c0 -141 84 -224 194 -224c56 0 101 17 132 36zM284 618c-23 0 -38 17 -38 40s15 40 38 40
c24 0 39 -17 39 -40c0 -24 -16 -40 -39 -40z" />
    <glyph glyph-name="Ccedilla.small" horiz-adv-x="474" 
d="M194 -200l12 38c16 -7 32 -11 51 -11c29 0 55 12 55 42c0 39 -45 40 -87 40l26 85c-125 20 -205 123 -205 263c0 164 110 283 262 283c47 0 92 -13 126 -29v-49c-33 17 -73 30 -122 30c-119 0 -210 -93 -210 -230c0 -141 84 -224 194 -224c56 0 101 17 132 36l18 -42
c-38 -24 -89 -42 -149 -42l-15 -46c38 -2 80 -20 80 -72c0 -55 -47 -84 -105 -84c-30 0 -50 7 -63 12z" />
    <glyph glyph-name="Dcaron.small" horiz-adv-x="544" 
d="M228 567l-98 147h51l77 -109l76 109h49l-98 -147h-57zM89 0v530h129c191 0 280 -102 280 -262s-96 -268 -279 -268h-130zM142 46h82c156 0 218 98 218 224c0 131 -69 214 -221 214h-79v-438z" />
    <glyph glyph-name="Dcroat.small" horiz-adv-x="544" 
d="M89 0v246h-75v46h75v238h129c191 0 280 -102 280 -262s-96 -268 -279 -268h-130zM142 46h82c156 0 218 98 218 224c0 131 -69 214 -221 214h-79v-192h148v-46h-148v-200z" />
    <glyph glyph-name="Egrave.small" horiz-adv-x="427" 
d="M209 566l-81 147h67l58 -147h-44zM89 0v530h283l-20 -46h-210v-192h204v-46h-204v-200h221v-46h-274z" />
    <glyph glyph-name="Eacute.small" horiz-adv-x="427" 
d="M194 566l59 147h63l-80 -147h-42zM89 0v530h283l-20 -46h-210v-192h204v-46h-204v-200h221v-46h-274z" />
    <glyph glyph-name="Ecircumflex.small" horiz-adv-x="427" 
d="M89 0v530h283l-20 -46h-210v-192h204v-46h-204v-200h221v-46h-274zM99 566l98 147h57l98 -147h-50l-76 109l-77 -109h-50z" />
    <glyph glyph-name="Ecaron.small" horiz-adv-x="427" 
d="M193 567l-98 147h51l77 -109l76 109h49l-98 -147h-57zM89 0v530h283l-20 -46h-210v-192h204v-46h-204v-200h221v-46h-274z" />
    <glyph glyph-name="Edieresis.small" horiz-adv-x="427" 
d="M89 0v530h283l-20 -46h-210v-192h204v-46h-204v-200h221v-46h-274zM139 593c-20 0 -36 16 -36 36s16 36 36 36s36 -16 36 -36s-16 -36 -36 -36zM311 593c-20 0 -36 16 -36 36s16 36 36 36s36 -16 36 -36s-16 -36 -36 -36z" />
    <glyph glyph-name="Emacron.small" horiz-adv-x="427" 
d="M111 611v46h232v-46h-232zM89 0v530h283l-20 -46h-210v-192h204v-46h-204v-200h221v-46h-274z" />
    <glyph glyph-name="Aring.small" horiz-adv-x="470" 
d="M70 0h-56l205 532c-47 6 -81 42 -81 94c0 57 41 94 97 94s97 -37 97 -94c0 -52 -34 -87 -81 -94l205 -532h-56l-52 138h-227zM236 442h-2c-12 -33 -24 -65 -36 -97l-60 -161h193l-60 162c-12 32 -23 63 -35 96zM235 568c32 0 53 23 53 58s-21 58 -53 58s-53 -23 -53 -58
s21 -58 53 -58z" />
    <glyph glyph-name="Ebreve.small" horiz-adv-x="427" 
d="M301 695h41c-5 -69 -48 -114 -118 -114s-109 45 -114 114h41c7 -41 28 -71 75 -71s68 30 75 71zM89 0v530h283l-20 -46h-210v-192h204v-46h-204v-200h221v-46h-274z" />
    <glyph glyph-name="Aringacute.small" horiz-adv-x="470" 
d="M14 0l205 532c-47 6 -81 42 -81 94c0 55 38 91 91 94l47 123h67l-73 -129c37 -12 62 -44 62 -88c0 -52 -34 -87 -81 -94l205 -532h-56l-52 138h-227l-51 -138h-56zM138 184h193l-60 162c-12 32 -23 63 -35 96h-2c-12 -33 -24 -65 -36 -97zM182 626c0 -35 21 -58 53 -58
s53 23 53 58s-21 58 -53 58s-53 -23 -53 -58z" />
    <glyph glyph-name="Aogonek.small" horiz-adv-x="470" 
d="M14 0l206 534h30l206 -534c-62 -30 -113 -76 -113 -126c0 -26 13 -44 40 -44c11 0 24 3 39 8l9 -40c-20 -7 -38 -10 -54 -10c-56 0 -84 38 -84 78c0 75 67 120 103 144l-48 128h-227l-51 -138h-56zM138 184h193l-60 162c-12 32 -23 63 -35 96h-2c-12 -33 -24 -65 -36 -97
z" />
    <glyph glyph-name="Edotaccent.small" horiz-adv-x="427" 
d="M89 0v530h283l-20 -46h-210v-192h204v-46h-204v-200h221v-46h-274zM223 618c-23 0 -38 17 -38 40s15 40 38 40c24 0 39 -17 39 -40c0 -24 -16 -40 -39 -40z" />
    <glyph glyph-name="Eogonek.small" horiz-adv-x="427" 
d="M363 0h-18c-59 -29 -111 -75 -111 -126c0 -26 13 -44 40 -44c11 0 24 3 39 8l9 -40c-20 -7 -38 -10 -54 -10c-56 0 -84 38 -84 78c0 66 52 110 90 134h-185v530h283l-20 -46h-210v-192h204v-46h-204v-200h221v-46z" />
    <glyph glyph-name="Gcircumflex.small" horiz-adv-x="542" 
d="M463 248v-225c-37 -18 -96 -33 -154 -33c-153 0 -263 111 -263 269c0 156 101 281 274 281c43 0 89 -9 130 -28v-49c-38 19 -81 29 -127 29c-151 0 -221 -114 -221 -227c0 -144 91 -227 205 -227c37 0 71 5 103 16v194h53zM160 566l98 147h57l98 -147h-50l-76 109
l-77 -109h-50z" />
    <glyph glyph-name="Gbreve.small" horiz-adv-x="542" 
d="M360 695h41c-5 -69 -48 -114 -118 -114s-109 45 -114 114h41c7 -41 28 -71 75 -71s68 30 75 71zM463 248v-225c-37 -18 -96 -33 -154 -33c-153 0 -263 111 -263 269c0 156 101 281 274 281c43 0 89 -9 130 -28v-49c-38 19 -81 29 -127 29c-151 0 -221 -114 -221 -227
c0 -144 91 -227 205 -227c37 0 71 5 103 16v194h53z" />
    <glyph glyph-name="Gdotaccent.small" horiz-adv-x="542" 
d="M463 248v-225c-37 -18 -96 -33 -154 -33c-153 0 -263 111 -263 269c0 156 101 281 274 281c43 0 89 -9 130 -28v-49c-38 19 -81 29 -127 29c-151 0 -221 -114 -221 -227c0 -144 91 -227 205 -227c37 0 71 5 103 16v194h53zM292 618c-23 0 -38 17 -38 40s15 40 38 40
c24 0 39 -17 39 -40c0 -24 -16 -40 -39 -40z" />
    <glyph glyph-name="Gcommaaccent.small" horiz-adv-x="542" 
d="M463 248v-225c-37 -18 -96 -33 -154 -33c-153 0 -263 111 -263 269c0 156 101 281 274 281c43 0 89 -9 130 -28v-49c-38 19 -81 29 -127 29c-151 0 -221 -114 -221 -227c0 -144 91 -227 205 -227c37 0 71 5 103 16v194h53zM237 -237l-17 37c59 18 71 46 71 76
c0 22 -10 47 -26 72h51c15 -18 25 -49 25 -74c0 -48 -30 -89 -104 -111z" />
    <glyph glyph-name="Hcircumflex.small" horiz-adv-x="579" 
d="M89 0v530h53v-238h295v238h53v-530h-53v246h-295v-246h-53zM164 566l98 147h57l98 -147h-50l-76 109l-77 -109h-50z" />
    <glyph glyph-name="Hbar.small" horiz-adv-x="579" 
d="M89 0v385h-53v46h53v99h53v-99h295v99h53v-99h53v-46h-53v-385h-53v246h-295v-246h-53zM142 292h295v93h-295v-93z" />
    <glyph glyph-name="Igrave.small" horiz-adv-x="231" 
d="M105 566l-81 147h67l58 -147h-44zM89 0v530h53v-530h-53z" />
    <glyph glyph-name="Iacute.small" horiz-adv-x="231" 
d="M82 566l59 147h63l-80 -147h-42zM89 0v530h53v-530h-53z" />
    <glyph glyph-name="Icircumflex.small" horiz-adv-x="231" 
d="M89 0v530h53v-530h-53zM-12 566l98 147h57l98 -147h-50l-76 109l-77 -109h-50z" />
    <glyph glyph-name="Itilde.small" horiz-adv-x="231" 
d="M-15 592v15c0 45 29 74 66 74c53 0 91 -50 126 -50c22 0 29 20 29 44h41v-15c0 -45 -29 -74 -66 -74c-52 0 -92 50 -126 50c-22 0 -29 -20 -29 -44h-41zM89 0v530h53v-530h-53z" />
    <glyph glyph-name="AE.small" horiz-adv-x="695" 
d="M14 0l277 530h349l-20 -46h-287l44 -192h237v-46h-227l46 -200h198v-46h-237l-31 138h-224l-71 -138h-54zM163 184h189l-36 163c-7 32 -15 69 -19 96h-2c-16 -34 -31 -65 -48 -97z" />
    <glyph glyph-name="Idieresis.small" horiz-adv-x="231" 
d="M89 0v530h53v-530h-53zM29 593c-20 0 -36 16 -36 36s16 36 36 36s36 -16 36 -36s-16 -36 -36 -36zM201 593c-20 0 -36 16 -36 36s16 36 36 36s36 -16 36 -36s-16 -36 -36 -36z" />
    <glyph glyph-name="Imacron.small" horiz-adv-x="231" 
d="M0 611v46h232v-46h-232zM89 0v530h53v-530h-53z" />
    <glyph glyph-name="AEacute.small" horiz-adv-x="695" 
d="M367 566l59 147h63l-80 -147h-42zM14 0l277 530h349l-20 -46h-287l44 -192h237v-46h-227l46 -200h198v-46h-237l-31 138h-224l-71 -138h-54zM163 184h189l-36 163c-7 32 -15 69 -19 96h-2c-16 -34 -31 -65 -48 -97z" />
    <glyph glyph-name="Ibreve.small" horiz-adv-x="231" 
d="M190 695h41c-5 -69 -48 -114 -118 -114s-109 45 -114 114h41c7 -41 28 -71 75 -71s68 30 75 71zM89 0v530h53v-530h-53z" />
    <glyph glyph-name="Iogonek.small" horiz-adv-x="231" 
d="M89 7v523h53v-530c-43 -31 -72 -77 -72 -119c0 -32 14 -51 42 -51c11 0 23 3 37 8l9 -40c-20 -7 -38 -10 -54 -10c-56 0 -84 36 -84 84c0 57 32 100 69 135z" />
    <glyph glyph-name="IJ.small" horiz-adv-x="481" 
d="M89 0v530h53v-530h-53zM211 -112l9 46c12 -3 24 -5 37 -5c71 0 82 48 82 112v489h53v-501c0 -95 -42 -148 -134 -148c-14 0 -33 2 -47 7z" />
    <glyph glyph-name="Jcircumflex.small" horiz-adv-x="250" 
d="M-20 -112l9 46c12 -3 24 -5 37 -5c71 0 82 48 82 112v489h53v-501c0 -95 -42 -148 -134 -148c-14 0 -33 2 -47 7zM7 566l98 147h57l98 -147h-50l-76 109l-77 -109h-50z" />
    <glyph glyph-name="Kcommaaccent.small" horiz-adv-x="444" 
d="M89 0v530h53v-256h2l207 256h59l-216 -268l241 -262h-67l-224 243h-2v-243h-53zM192 -237l-17 37c59 18 71 46 71 76c0 22 -10 47 -26 72h51c15 -18 25 -49 25 -74c0 -48 -30 -89 -104 -111z" />
    <glyph glyph-name="Lacute.small" 
d="M89 566l59 147h63l-80 -147h-42zM89 0v530h53v-484h212v-46h-265z" />
    <glyph glyph-name="Lcaron.small" 
d="M89 0v530h53v-484h212v-46h-265zM225 373l36 195h56l-51 -195h-41z" />
    <glyph glyph-name="Lcommaaccent.small" 
d="M89 0v530h53v-484h212v-46h-265zM164 -237l-17 37c59 18 71 46 71 76c0 22 -10 47 -26 72h51c15 -18 25 -49 25 -74c0 -48 -30 -89 -104 -111z" />
    <glyph glyph-name="Lslash.small" 
d="M142 297l120 71v-50l-120 -72v-200h212v-46h-265v218l-48 -30v50l48 29v263h53v-233z" />
    <glyph glyph-name="Ldot.small" 
d="M295 234c-22 0 -39 19 -39 41s17 41 39 41s39 -19 39 -41s-17 -41 -39 -41zM89 0v530h53v-484h212v-46h-265z" />
    <glyph glyph-name="Nacute.small" horiz-adv-x="621" 
d="M281 566l59 147h63l-80 -147h-42zM479 85h2c-1 28 -2 78 -2 112v333h53v-530h-44l-258 328c-38 48 -64 83 -88 119h-1c1 -30 1 -79 1 -113v-334h-53v530h47l256 -326c38 -48 63 -83 87 -119z" />
    <glyph glyph-name="Ncaron.small" horiz-adv-x="621" 
d="M279 567l-98 147h51l77 -109l76 109h49l-98 -147h-57zM479 85h2c-1 28 -2 78 -2 112v333h53v-530h-44l-258 328c-38 48 -64 83 -88 119h-1c1 -30 1 -79 1 -113v-334h-53v530h47l256 -326c38 -48 63 -83 87 -119z" />
    <glyph glyph-name="Cacute.small" horiz-adv-x="474" 
d="M256 566l59 147h63l-80 -147h-42zM428 74l18 -42c-38 -24 -89 -42 -149 -42c-150 0 -251 111 -251 267c0 164 110 283 262 283c47 0 92 -13 126 -29v-49c-33 17 -73 30 -122 30c-119 0 -210 -93 -210 -230c0 -141 84 -224 194 -224c56 0 101 17 132 36z" />
    <glyph glyph-name="Ntilde.small" horiz-adv-x="621" 
d="M180 592v15c0 45 29 74 66 74c53 0 91 -50 126 -50c22 0 29 20 29 44h41v-15c0 -45 -29 -74 -66 -74c-52 0 -92 50 -126 50c-22 0 -29 -20 -29 -44h-41zM479 85h2c-1 28 -2 78 -2 112v333h53v-530h-44l-258 328c-38 48 -64 83 -88 119h-1c1 -30 1 -79 1 -113v-334h-53
v530h47l256 -326c38 -48 63 -83 87 -119z" />
    <glyph glyph-name="Ncommaaccent.small" horiz-adv-x="621" 
d="M479 85h2c-1 28 -2 78 -2 112v333h53v-530h-44l-258 328c-38 48 -64 83 -88 119h-1c1 -30 1 -79 1 -113v-334h-53v530h47l256 -326c38 -48 63 -83 87 -119zM254 -237l-17 37c59 18 71 46 71 76c0 22 -10 47 -26 72h51c15 -18 25 -49 25 -74c0 -48 -30 -89 -104 -111z" />
    <glyph glyph-name="Ograve.small" horiz-adv-x="606" 
d="M283 566l-81 147h67l58 -147h-44zM303 38c113 0 201 90 201 227s-88 227 -201 227s-201 -90 -201 -227s88 -227 201 -227zM303 540c143 0 257 -114 257 -275c0 -160 -114 -275 -257 -275s-257 115 -257 275c0 161 114 275 257 275z" />
    <glyph glyph-name="Oacute.small" horiz-adv-x="606" 
d="M281 566l59 147h63l-80 -147h-42zM303 38c113 0 201 90 201 227s-88 227 -201 227s-201 -90 -201 -227s88 -227 201 -227zM303 540c143 0 257 -114 257 -275c0 -160 -114 -275 -257 -275s-257 115 -257 275c0 161 114 275 257 275z" />
    <glyph glyph-name="Ocircumflex.small" horiz-adv-x="606" 
d="M303 38c113 0 201 90 201 227s-88 227 -201 227s-201 -90 -201 -227s88 -227 201 -227zM303 540c143 0 257 -114 257 -275c0 -160 -114 -275 -257 -275s-257 115 -257 275c0 161 114 275 257 275zM176 566l98 147h57l98 -147h-50l-76 109l-77 -109h-50z" />
    <glyph glyph-name="Otilde.small" horiz-adv-x="606" 
d="M171 592v15c0 45 29 74 66 74c53 0 91 -50 126 -50c22 0 29 20 29 44h41v-15c0 -45 -29 -74 -66 -74c-52 0 -92 50 -126 50c-22 0 -29 -20 -29 -44h-41zM303 38c113 0 201 90 201 227s-88 227 -201 227s-201 -90 -201 -227s88 -227 201 -227zM303 540
c143 0 257 -114 257 -275c0 -160 -114 -275 -257 -275s-257 115 -257 275c0 161 114 275 257 275z" />
    <glyph glyph-name="Odieresis.small" horiz-adv-x="606" 
d="M303 38c113 0 201 90 201 227s-88 227 -201 227s-201 -90 -201 -227s88 -227 201 -227zM303 540c143 0 257 -114 257 -275c0 -160 -114 -275 -257 -275s-257 115 -257 275c0 161 114 275 257 275zM215 593c-20 0 -36 16 -36 36s16 36 36 36s36 -16 36 -36
s-16 -36 -36 -36zM387 593c-20 0 -36 16 -36 36s16 36 36 36s36 -16 36 -36s-16 -36 -36 -36z" />
    <glyph glyph-name="Omacron.small" horiz-adv-x="606" 
d="M188 611v46h232v-46h-232zM303 38c113 0 201 90 201 227s-88 227 -201 227s-201 -90 -201 -227s88 -227 201 -227zM303 540c143 0 257 -114 257 -275c0 -160 -114 -275 -257 -275s-257 115 -257 275c0 161 114 275 257 275z" />
    <glyph glyph-name="Obreve.small" horiz-adv-x="606" 
d="M375 695h41c-5 -69 -48 -114 -118 -114s-109 45 -114 114h41c7 -41 28 -71 75 -71s68 30 75 71zM303 38c113 0 201 90 201 227s-88 227 -201 227s-201 -90 -201 -227s88 -227 201 -227zM303 540c143 0 257 -114 257 -275c0 -160 -114 -275 -257 -275s-257 115 -257 275
c0 161 114 275 257 275z" />
    <glyph glyph-name="Ohungarumlaut.small" horiz-adv-x="606" 
d="M303 38c113 0 201 90 201 227s-88 227 -201 227s-201 -90 -201 -227s88 -227 201 -227zM303 540c143 0 257 -114 257 -275c0 -160 -114 -275 -257 -275s-257 115 -257 275c0 161 114 275 257 275zM200 566l58 147h67l-81 -147h-44zM355 566l58 147h67l-81 -147h-44z" />
    <glyph glyph-name="Oslash.small" horiz-adv-x="606" 
d="M55 7l58 69c-42 48 -67 113 -67 189c0 161 114 275 257 275c59 0 114 -20 157 -55l57 67l34 -29l-58 -69c42 -48 67 -113 67 -189c0 -160 -114 -275 -257 -275c-60 0 -114 20 -158 55l-56 -67zM102 265c0 -60 17 -110 46 -149l279 330c-34 29 -77 46 -124 46
c-111 0 -201 -91 -201 -227zM303 38c111 0 201 91 201 227c0 59 -18 110 -46 148l-280 -330c35 -29 78 -45 125 -45z" />
    <glyph glyph-name="Oslashacute.small" horiz-adv-x="606" 
d="M272 566l59 147h63l-80 -147h-42zM55 7l58 69c-42 48 -67 113 -67 189c0 161 114 275 257 275c59 0 114 -20 157 -55l57 67l34 -29l-58 -69c42 -48 67 -113 67 -189c0 -160 -114 -275 -257 -275c-60 0 -114 20 -158 55l-56 -67zM102 265c0 -60 17 -110 46 -149l279 330
c-34 29 -77 46 -124 46c-111 0 -201 -91 -201 -227zM303 38c111 0 201 91 201 227c0 59 -18 110 -46 148l-280 -330c35 -29 78 -45 125 -45z" />
    <glyph glyph-name="OE.small" horiz-adv-x="733" 
d="M669 0h-181c-66 0 -129 -5 -181 -5c-162 0 -261 115 -261 269s99 271 268 271c37 0 92 -5 162 -5h202l-20 -46h-210v-192h204v-46h-204v-200h221v-46zM395 44v443c-32 2 -63 2 -79 2c-139 0 -214 -98 -214 -225c0 -128 71 -223 210 -223c25 0 50 1 83 3z" />
    <glyph glyph-name="Racute.small" horiz-adv-x="455" 
d="M184 566l59 147h63l-80 -147h-42zM281 238v-2c20 -14 40 -41 69 -87l93 -149h-61l-90 147c-22 37 -46 66 -65 75h-85v-222h-53v530h118c128 0 178 -72 178 -151c0 -62 -34 -119 -104 -141zM142 268h80c68 0 108 44 108 108c0 62 -37 108 -116 108h-72v-216z" />
    <glyph glyph-name="Rcaron.small" horiz-adv-x="455" 
d="M190 567l-98 147h51l77 -109l76 109h49l-98 -147h-57zM281 238v-2c20 -14 40 -41 69 -87l93 -149h-61l-90 147c-22 37 -46 66 -65 75h-85v-222h-53v530h118c128 0 178 -72 178 -151c0 -62 -34 -119 -104 -141zM142 268h80c68 0 108 44 108 108c0 62 -37 108 -116 108h-72
v-216z" />
    <glyph glyph-name="Rcommaaccent.small" horiz-adv-x="455" 
d="M281 238v-2c20 -14 40 -41 69 -87l93 -149h-61l-90 147c-22 37 -46 66 -65 75h-85v-222h-53v530h118c128 0 178 -72 178 -151c0 -62 -34 -119 -104 -141zM142 268h80c68 0 108 44 108 108c0 62 -37 108 -116 108h-72v-216zM187 -237l-17 37c59 18 71 46 71 76
c0 22 -10 47 -26 72h51c15 -18 25 -49 25 -74c0 -48 -30 -89 -104 -111z" />
    <glyph glyph-name="Sacute.small" horiz-adv-x="390" 
d="M185 566l59 147h63l-80 -147h-42zM44 24l20 44c25 -15 64 -30 113 -30c59 0 118 31 118 96c0 145 -236 102 -236 271c0 73 55 135 151 135c49 0 93 -14 115 -25v-49c-32 16 -72 26 -112 26c-47 0 -100 -23 -100 -82c0 -134 237 -90 237 -270c0 -101 -81 -150 -173 -150
c-53 0 -102 15 -133 34z" />
    <glyph glyph-name="Scircumflex.small" horiz-adv-x="390" 
d="M44 24l20 44c25 -15 64 -30 113 -30c59 0 118 31 118 96c0 145 -236 102 -236 271c0 73 55 135 151 135c49 0 93 -14 115 -25v-49c-32 16 -72 26 -112 26c-47 0 -100 -23 -100 -82c0 -134 237 -90 237 -270c0 -101 -81 -150 -173 -150c-53 0 -102 15 -133 34zM71 566
l98 147h57l98 -147h-50l-76 109l-77 -109h-50z" />
    <glyph glyph-name="Scaron.small" horiz-adv-x="390" 
d="M173 567l-98 147h51l77 -109l76 109h49l-98 -147h-57zM44 24l20 44c25 -15 64 -30 113 -30c59 0 118 31 118 96c0 145 -236 102 -236 271c0 73 55 135 151 135c49 0 93 -14 115 -25v-49c-32 16 -72 26 -112 26c-47 0 -100 -23 -100 -82c0 -134 237 -90 237 -270
c0 -101 -81 -150 -173 -150c-53 0 -102 15 -133 34z" />
    <glyph glyph-name="Scedilla.small" horiz-adv-x="390" 
d="M97 -200l12 38c16 -7 32 -11 51 -11c29 0 55 12 55 42c0 39 -45 40 -87 40l25 82c-44 4 -83 17 -109 33l20 44c25 -15 64 -30 113 -30c59 0 118 31 118 96c0 145 -236 102 -236 271c0 73 55 135 151 135c49 0 93 -14 115 -25v-49c-32 16 -72 26 -112 26
c-47 0 -100 -23 -100 -82c0 -134 237 -90 237 -270c0 -93 -68 -141 -150 -149l-15 -47c38 -2 80 -20 80 -72c0 -55 -47 -84 -105 -84c-30 0 -50 7 -63 12z" />
    <glyph glyph-name="Scommaaccent.small" horiz-adv-x="390" 
d="M44 24l20 44c25 -15 64 -30 113 -30c59 0 118 31 118 96c0 145 -236 102 -236 271c0 73 55 135 151 135c49 0 93 -14 115 -25v-49c-32 16 -72 26 -112 26c-47 0 -100 -23 -100 -82c0 -134 237 -90 237 -270c0 -101 -81 -150 -173 -150c-53 0 -102 15 -133 34zM137 -237
l-17 37c59 18 71 46 71 76c0 22 -10 47 -26 72h51c15 -18 25 -49 25 -74c0 -48 -30 -89 -104 -111z" />
    <glyph glyph-name="Tcaron.small" horiz-adv-x="413" 
d="M182 567l-98 147h51l77 -109l76 109h49l-98 -147h-57zM184 0v484h-167v46h397l-20 -46h-157v-484h-53z" />
    <glyph glyph-name="Tcommaaccent.small" horiz-adv-x="413" 
d="M184 0v484h-167v46h397l-20 -46h-157v-484h-53zM155 -237l-17 37c59 18 71 46 71 76c0 22 -10 47 -26 72h51c15 -18 25 -49 25 -74c0 -48 -30 -89 -104 -111z" />
    <glyph glyph-name="Tbar.small" horiz-adv-x="413" 
d="M91 246v46h93v192h-167v46h397l-20 -46h-157v-192h93v-46h-93v-246h-53v246h-93z" />
    <glyph glyph-name="Ugrave.small" horiz-adv-x="567" 
d="M269 566l-81 147h67l58 -147h-44zM483 530v-340c0 -141 -87 -201 -203 -201c-113 0 -196 59 -196 200v341h53v-340c0 -111 59 -153 146 -153c86 0 147 42 147 153v340h53z" />
    <glyph glyph-name="Uacute.small" horiz-adv-x="567" 
d="M257 566l59 147h63l-80 -147h-42zM483 530v-340c0 -141 -87 -201 -203 -201c-113 0 -196 59 -196 200v341h53v-340c0 -111 59 -153 146 -153c86 0 147 42 147 153v340h53z" />
    <glyph glyph-name="Ucircumflex.small" horiz-adv-x="567" 
d="M483 530v-340c0 -141 -87 -201 -203 -201c-113 0 -196 59 -196 200v341h53v-340c0 -111 59 -153 146 -153c86 0 147 42 147 153v340h53zM158 566l98 147h57l98 -147h-50l-76 109l-77 -109h-50z" />
    <glyph glyph-name="Utilde.small" horiz-adv-x="567" 
d="M153 592v15c0 45 29 74 66 74c53 0 91 -50 126 -50c22 0 29 20 29 44h41v-15c0 -45 -29 -74 -66 -74c-52 0 -92 50 -126 50c-22 0 -29 -20 -29 -44h-41zM483 530v-340c0 -141 -87 -201 -203 -201c-113 0 -196 59 -196 200v341h53v-340c0 -111 59 -153 146 -153
c86 0 147 42 147 153v340h53z" />
    <glyph glyph-name="Udieresis.small" horiz-adv-x="567" 
d="M483 530v-340c0 -141 -87 -201 -203 -201c-113 0 -196 59 -196 200v341h53v-340c0 -111 59 -153 146 -153c86 0 147 42 147 153v340h53zM199 593c-20 0 -36 16 -36 36s16 36 36 36s36 -16 36 -36s-16 -36 -36 -36zM371 593c-20 0 -36 16 -36 36s16 36 36 36
s36 -16 36 -36s-16 -36 -36 -36z" />
    <glyph glyph-name="Umacron.small" horiz-adv-x="567" 
d="M167 611v46h232v-46h-232zM483 530v-340c0 -141 -87 -201 -203 -201c-113 0 -196 59 -196 200v341h53v-340c0 -111 59 -153 146 -153c86 0 147 42 147 153v340h53z" />
    <glyph glyph-name="Ubreve.small" horiz-adv-x="567" 
d="M359 695h41c-5 -69 -48 -114 -118 -114s-109 45 -114 114h41c7 -41 28 -71 75 -71s68 30 75 71zM483 530v-340c0 -141 -87 -201 -203 -201c-113 0 -196 59 -196 200v341h53v-340c0 -111 59 -153 146 -153c86 0 147 42 147 153v340h53z" />
    <glyph glyph-name="Uring.small" horiz-adv-x="567" 
d="M284 559c-56 0 -97 37 -97 94s41 94 97 94s97 -37 97 -94s-41 -94 -97 -94zM284 595c32 0 53 23 53 58s-21 58 -53 58s-53 -23 -53 -58s21 -58 53 -58zM483 530v-340c0 -141 -87 -201 -203 -201c-113 0 -196 59 -196 200v341h53v-340c0 -111 59 -153 146 -153
c86 0 147 42 147 153v340h53z" />
    <glyph glyph-name="Uhungarumlaut.small" horiz-adv-x="567" 
d="M483 530v-340c0 -141 -87 -201 -203 -201c-113 0 -196 59 -196 200v341h53v-340c0 -111 59 -153 146 -153c86 0 147 42 147 153v340h53zM181 566l58 147h67l-81 -147h-44zM336 566l58 147h67l-81 -147h-44z" />
    <glyph glyph-name="Uogonek.small" horiz-adv-x="567" 
d="M288 -12v1c-121 -3 -204 59 -204 200v341h53v-340c0 -111 59 -153 146 -153c86 0 147 42 147 153v340h53v-340c0 -72 -20 -117 -59 -154c-41 -38 -161 -78 -161 -162c0 -26 13 -44 40 -44c11 0 24 3 39 8l9 -40c-20 -7 -38 -10 -54 -10c-56 0 -84 38 -84 78
c0 58 40 98 75 122z" />
    <glyph glyph-name="Wgrave.small" horiz-adv-x="696" 
d="M328 556l-81 147h67l58 -147h-44zM484 95h2c11 39 22 77 36 120l105 315h55l-180 -532h-33l-80 240c-10 31 -25 76 -33 104h-2c-7 -26 -23 -73 -35 -105l-87 -239h-33l-185 532h57l110 -317c11 -31 28 -85 37 -118h2c9 34 28 90 38 117l70 196l-40 122h56l105 -315
c11 -34 26 -83 35 -120z" />
    <glyph glyph-name="Wacute.small" horiz-adv-x="696" 
d="M300 556l59 147h63l-80 -147h-42zM484 95h2c11 39 22 77 36 120l105 315h55l-180 -532h-33l-80 240c-10 31 -25 76 -33 104h-2c-7 -26 -23 -73 -35 -105l-87 -239h-33l-185 532h57l110 -317c11 -31 28 -85 37 -118h2c9 34 28 90 38 117l70 196l-40 122h56l105 -315
c11 -34 26 -83 35 -120z" />
    <glyph glyph-name="Wcircumflex.small" horiz-adv-x="696" 
d="M484 95h2c11 39 22 77 36 120l105 315h55l-180 -532h-33l-80 240c-10 31 -25 76 -33 104h-2c-7 -26 -23 -73 -35 -105l-87 -239h-33l-185 532h57l110 -317c11 -31 28 -85 37 -118h2c9 34 28 90 38 117l70 196l-40 122h56l105 -315c11 -34 26 -83 35 -120zM217 556l98 147
h57l98 -147h-50l-76 109l-77 -109h-50z" />
    <glyph glyph-name="Wdieresis.small" horiz-adv-x="696" 
d="M484 95h2c11 39 22 77 36 120l105 315h55l-180 -532h-33l-80 240c-10 31 -25 76 -33 104h-2c-7 -26 -23 -73 -35 -105l-87 -239h-33l-185 532h57l110 -317c11 -31 28 -85 37 -118h2c9 34 28 90 38 117l70 196l-40 122h56l105 -315c11 -34 26 -83 35 -120zM256 593
c-20 0 -36 16 -36 36s16 36 36 36s36 -16 36 -36s-16 -36 -36 -36zM428 593c-20 0 -36 16 -36 36s16 36 36 36s36 -16 36 -36s-16 -36 -36 -36z" />
    <glyph glyph-name="Ygrave.small" horiz-adv-x="426" 
d="M192 566l-81 147h67l58 -147h-44zM210 270h2c15 27 31 56 45 81l97 179h58l-175 -310v-220h-53v220l-170 310h59l93 -177c14 -27 29 -56 44 -83z" />
    <glyph glyph-name="Yacute.small" horiz-adv-x="426" 
d="M184 566l59 147h63l-80 -147h-42zM210 270h2c15 27 31 56 45 81l97 179h58l-175 -310v-220h-53v220l-170 310h59l93 -177c14 -27 29 -56 44 -83z" />
    <glyph glyph-name="Ycircumflex.small" horiz-adv-x="426" 
d="M210 270h2c15 27 31 56 45 81l97 179h58l-175 -310v-220h-53v220l-170 310h59l93 -177c14 -27 29 -56 44 -83zM85 566l98 147h57l98 -147h-50l-76 109l-77 -109h-50z" />
    <glyph glyph-name="Ydieresis.small" horiz-adv-x="426" 
d="M210 270h2c15 27 31 56 45 81l97 179h58l-175 -310v-220h-53v220l-170 310h59l93 -177c14 -27 29 -56 44 -83zM124 593c-20 0 -36 16 -36 36s16 36 36 36s36 -16 36 -36s-16 -36 -36 -36zM296 593c-20 0 -36 16 -36 36s16 36 36 36s36 -16 36 -36s-16 -36 -36 -36z" />
    <glyph glyph-name="Zacute.small" horiz-adv-x="458" 
d="M206 566l59 147h63l-80 -147h-42zM47 0l286 484h-255l-18 46h356l-284 -484h289v-46h-374z" />
    <glyph glyph-name="Zcaron.small" horiz-adv-x="458" 
d="M205 567l-98 147h51l77 -109l76 109h49l-98 -147h-57zM47 0l286 484h-255l-18 46h356l-284 -484h289v-46h-374z" />
    <glyph glyph-name="Zdotaccent.small" horiz-adv-x="458" 
d="M47 0l286 484h-255l-18 46h356l-284 -484h289v-46h-374zM229 618c-23 0 -38 17 -38 40s15 40 38 40c24 0 39 -17 39 -40c0 -24 -16 -40 -39 -40z" />
    <glyph glyph-name="Eng.small" horiz-adv-x="621" 
d="M142 447h-1c1 -30 1 -79 1 -113v-334h-53v530h47l256 -326c38 -48 63 -83 87 -119h2c-1 28 -2 78 -2 112v333h53v-579c0 -108 -61 -146 -126 -146c-20 0 -44 3 -63 12l12 46c12 -5 26 -10 46 -10c54 0 78 32 78 110v48l-249 317c-38 48 -64 83 -88 119z" />
    <glyph glyph-name="Eth.small" horiz-adv-x="544" 
d="M89 0v246h-75v46h75v238h129c191 0 280 -102 280 -262s-96 -268 -279 -268h-130zM142 46h82c156 0 218 98 218 224c0 131 -69 214 -221 214h-79v-192h148v-46h-148v-200z" />
    <glyph glyph-name="Thorn.small" horiz-adv-x="421" 
d="M89 0v530h53v-91h64c109 0 177 -63 177 -164c0 -105 -68 -169 -188 -169h-53v-106h-53zM142 152h61c85 0 125 48 125 120c0 73 -40 121 -124 121h-62v-241z" />
    <glyph glyph-name="a.superior" horiz-adv-x="345" 
d="M250 270l-8 36c-26 -24 -62 -43 -102 -43c-61 0 -107 38 -107 103c0 68 47 106 150 108l55 1v19c0 50 -31 73 -75 73c-38 0 -65 -12 -91 -27l-21 36c36 24 75 35 115 35c64 0 120 -31 120 -118v-95c0 -73 4 -106 11 -128h-47zM238 355v78l-62 -2c-59 -2 -93 -21 -93 -63
c0 -35 23 -61 59 -61c43 0 78 30 96 48z" />
    <glyph glyph-name="b.superior" horiz-adv-x="357" 
d="M55 285v478h48v-168c21 10 47 16 74 16c84 0 150 -56 150 -165c0 -116 -78 -183 -181 -183c-42 0 -73 12 -91 22zM103 316c13 -6 32 -9 48 -9c74 0 127 52 127 137c0 72 -35 123 -105 123c-31 0 -56 -11 -70 -18v-233z" />
    <glyph glyph-name="c.superior" horiz-adv-x="315" 
d="M278 332l17 -38c-24 -16 -64 -31 -104 -31c-104 0 -161 78 -161 169c0 96 60 179 165 179c34 0 63 -9 87 -21v-46c-24 13 -51 23 -85 23c-71 0 -117 -54 -117 -130c0 -81 44 -130 113 -130c38 0 64 13 85 25z" />
    <glyph glyph-name="d.superior" horiz-adv-x="362" 
d="M307 763v-476c-23 -13 -61 -24 -105 -24c-93 0 -172 59 -172 170c0 109 79 178 171 178c23 0 41 -3 58 -8v160h48zM259 316v242c-17 6 -33 9 -54 9c-66 0 -125 -48 -125 -134c0 -75 45 -126 126 -126c18 0 39 4 53 9z" />
    <glyph glyph-name="e.superior" horiz-adv-x="332" 
d="M278 332l17 -38c-30 -19 -68 -31 -108 -31c-102 0 -157 80 -157 179c0 102 59 169 137 169c84 0 132 -66 132 -168v-16h-219c2 -66 41 -120 111 -120c36 0 63 11 87 25zM80 471h168c-2 50 -29 96 -80 96s-84 -42 -88 -96z" />
    <glyph glyph-name="f.superior" horiz-adv-x="209" 
d="M67 270v290h-42v42h42v55c0 74 39 106 91 106c16 0 34 -4 51 -12l-10 -41c-11 5 -27 9 -39 9c-32 0 -45 -20 -45 -58v-59h86l-18 -42h-68v-290h-48z" />
    <glyph glyph-name="g.superior" horiz-adv-x="334" 
d="M166 151c62 0 110 22 110 58c0 54 -107 48 -163 65c-23 -12 -50 -32 -50 -62c0 -40 45 -61 103 -61zM166 414c44 0 79 27 79 76c0 44 -34 76 -79 76c-47 0 -78 -32 -78 -76c0 -45 31 -76 78 -76zM74 292c-11 9 -19 24 -19 40c0 20 8 41 30 62c-29 21 -47 54 -47 94
c0 74 55 122 126 122c27 0 48 -6 62 -13c16 19 45 28 70 28c9 0 18 -1 24 -3l-14 -43c-4 1 -11 2 -17 2c-11 0 -22 -2 -29 -5c26 -24 35 -57 35 -85c0 -72 -52 -121 -128 -121c-18 0 -34 3 -49 8c-12 -14 -17 -24 -17 -35c0 -60 223 -12 223 -130c0 -66 -69 -104 -160 -104
c-99 0 -149 44 -149 98c0 32 16 62 59 85z" />
    <glyph glyph-name="h.superior" horiz-adv-x="370" 
d="M55 270v493h48v-199c34 28 70 47 112 47c56 0 102 -37 102 -118v-223h-48v210c0 50 -13 86 -59 86c-39 0 -73 -24 -107 -52v-244h-48z" />
    <glyph glyph-name="i.superior" horiz-adv-x="164" 
d="M58 270v332h48v-332h-48zM82 671c-18 0 -32 15 -32 33s14 33 32 33s32 -15 32 -33s-14 -33 -32 -33z" />
    <glyph glyph-name="j.superior" horiz-adv-x="179" 
d="M-30 120l13 41c11 -5 23 -8 35 -8c36 0 50 20 50 68v381h48v-388c0 -77 -45 -105 -95 -105c-14 0 -34 3 -51 11zM92 671c-18 0 -32 15 -32 33s14 33 32 33s32 -15 32 -33s-14 -33 -32 -33z" />
    <glyph glyph-name="k.superior" horiz-adv-x="320" 
d="M55 270v493h48v-284l126 123h62l-144 -141l158 -191h-59l-143 174v-174h-48z" />
    <glyph glyph-name="l.superior" horiz-adv-x="189" 
d="M148 317l11 -40c-15 -7 -31 -10 -46 -10c-38 0 -58 24 -58 61v435h48v-422c0 -23 7 -30 22 -30c7 0 16 2 23 6z" />
    <glyph glyph-name="m.superior" horiz-adv-x="580" 
d="M55 270v332h40l5 -40c35 29 74 49 115 49c37 0 70 -18 87 -55c39 34 79 55 124 55c55 0 101 -37 101 -118v-223h-48v210c0 50 -13 86 -58 86c-38 0 -74 -23 -107 -51c1 -7 1 -14 1 -26v-219h-48v210c0 50 -11 86 -58 86c-38 0 -72 -24 -106 -52v-244h-48z" />
    <glyph glyph-name="n.superior" unicode="&#x207f;" horiz-adv-x="370" 
d="M55 270v332h41l4 -40c35 29 74 49 115 49c56 0 102 -37 102 -118v-223h-48v210c0 50 -13 86 -59 86c-39 0 -73 -24 -107 -52v-244h-48z" />
    <glyph glyph-name="o.superior" horiz-adv-x="367" 
d="M183 263c-93 0 -153 78 -153 174s60 174 154 174c93 0 153 -78 153 -174s-59 -174 -154 -174zM183 307c63 0 105 54 105 130s-42 130 -104 130c-63 0 -104 -54 -104 -130s41 -130 103 -130z" />
    <glyph glyph-name="p.superior" horiz-adv-x="361" 
d="M55 109v481c36 14 74 21 108 21c103 0 168 -61 168 -172s-75 -176 -168 -176c-26 0 -45 5 -60 11v-165h-48zM103 321c17 -9 35 -14 58 -14c77 0 121 53 121 133c0 89 -54 127 -120 127c-20 0 -42 -4 -59 -9v-237z" />
    <glyph glyph-name="q.superior" horiz-adv-x="363" 
d="M260 109v178c-29 -18 -57 -24 -86 -24c-79 0 -144 61 -144 166c0 117 78 182 178 182c43 0 80 -12 100 -20v-482h-48zM260 337v221c-14 6 -35 9 -53 9c-81 0 -128 -57 -128 -137c0 -72 41 -123 98 -123c40 0 67 16 83 30z" />
    <glyph glyph-name="r.superior" horiz-adv-x="232" 
d="M55 270v332h40l5 -37c38 40 67 46 86 46c16 0 30 -4 41 -10l-17 -44c-8 3 -16 5 -25 5c-26 0 -53 -19 -82 -49v-243h-48z" />
    <glyph glyph-name="s.superior" horiz-adv-x="284" 
d="M30 292l17 40c23 -14 50 -25 84 -25c38 0 72 15 72 53c0 69 -156 53 -156 160c0 49 35 91 109 91c31 0 62 -7 84 -17v-46c-24 11 -51 19 -81 19c-31 0 -65 -7 -65 -45c0 -71 157 -49 157 -162c0 -63 -53 -97 -120 -97c-43 0 -78 14 -101 29z" />
    <glyph glyph-name="t.superior" horiz-adv-x="246" 
d="M205 331l21 -36c-25 -18 -55 -32 -86 -32c-46 0 -71 27 -71 76v221h-54v42h54v72l48 16v-88h101l-18 -42h-83v-218c0 -24 11 -35 31 -35s42 12 57 24z" />
    <glyph glyph-name="u.superior" horiz-adv-x="366" 
d="M316 270h-46l-7 36c-33 -25 -63 -43 -107 -43c-63 0 -103 39 -103 112v227h48v-212c0 -38 5 -82 58 -82c41 0 81 24 100 48v246h48v-204c0 -73 4 -107 9 -128z" />
    <glyph glyph-name="v.superior" horiz-adv-x="310" 
d="M134 268l-130 334h52l98 -265h2l98 265h52l-130 -334h-42z" />
    <glyph glyph-name="w.superior" horiz-adv-x="478" 
d="M115 268l-110 334h52l80 -260h2l74 260h52l74 -260h2l80 260h52l-110 -334h-46l-77 262h-2l-77 -262h-46z" />
    <glyph glyph-name="x.superior" horiz-adv-x="305" 
d="M10 270l114 164l-114 168h53l89 -131l90 131h53l-115 -168l115 -164h-55l-88 128l-87 -128h-55z" />
    <glyph glyph-name="y.superior" horiz-adv-x="319" 
d="M-16 121l13 44c14 -7 30 -11 47 -11c45 0 81 30 107 118l-144 330h53l112 -262h2l89 262h52l-127 -360c-40 -114 -91 -133 -144 -133c-24 0 -44 5 -60 12z" />
    <glyph glyph-name="z.superior" horiz-adv-x="280" 
d="M15 270l169 290h-150l-12 42h240l-169 -290h169v-42h-247z" />
    <glyph glyph-name="zero.LT" horiz-adv-x="513" 
d="M254 -10c-125 0 -214 121 -214 338c0 219 90 336 216 336c125 0 217 -121 217 -340c0 -216 -93 -334 -219 -334zM259 38c109 0 158 131 158 281c0 186 -65 298 -163 298c-109 0 -158 -132 -158 -281c0 -187 65 -298 163 -298z" />
    <glyph glyph-name="one.LT" horiz-adv-x="513" 
d="M288 0v604l-186 -94l-20 44l212 110h47v-664h-53z" />
    <glyph glyph-name="sigmafinal" unicode="&#x3c2;" horiz-adv-x="406" 
d="M264 -146c18 25 41 58 41 91c0 119 -259 82 -259 313c0 129 66 227 206 227c42 0 83 -11 113 -27v-50c-30 17 -67 30 -113 30c-106 0 -150 -79 -150 -178c0 -204 259 -153 259 -309c0 -48 -33 -99 -54 -126z" />
    <glyph glyph-name="parenright.dnom" horiz-adv-x="244" 
d="M47 -23c55 58 83 127 83 214s-28 156 -83 214l30 25c71 -66 102 -150 102 -239s-31 -173 -102 -239z" />
    <glyph glyph-name="parenleft.dnom" horiz-adv-x="244" 
d="M167 -48c-71 66 -102 150 -102 239s31 173 102 239l30 -25c-55 -58 -83 -127 -83 -214s28 -156 83 -214z" />
    <glyph glyph-name="equal.dnom" horiz-adv-x="419" 
d="M55 108v44h309v-44h-309zM55 230v44h309v-44h-309z" />
    <glyph glyph-name="minus.dnom" horiz-adv-x="419" 
d="M55 169v44h309v-44h-309z" />
    <glyph glyph-name="plus.dnom" horiz-adv-x="419" 
d="M187 29v140h-132v44h132v136h45v-136h132v-44h-132v-140h-45z" />
    <glyph glyph-name="nine.dnom" horiz-adv-x="338" 
d="M128 -8c-24 0 -53 4 -82 16l14 42c23 -11 44 -15 67 -15c65 0 110 47 116 136h-2c-22 -18 -51 -31 -87 -31c-60 0 -118 35 -118 120c0 73 50 126 121 126c81 0 135 -62 135 -186s-58 -208 -164 -208zM160 183c32 0 66 20 81 41c-1 75 -35 119 -85 119
c-44 0 -71 -33 -71 -79c0 -48 26 -81 75 -81z" />
    <glyph glyph-name="eight.dnom" 
d="M177 -8c-76 0 -129 38 -129 104c0 54 35 85 75 99v2c-33 15 -63 42 -63 90c0 61 49 99 119 99c69 0 118 -39 118 -99c0 -45 -29 -75 -63 -89v-2c36 -12 78 -38 78 -97c0 -68 -62 -107 -135 -107zM178 35c42 0 85 20 85 65c0 43 -39 63 -91 76c-35 -9 -75 -32 -75 -76
c0 -45 40 -65 81 -65zM184 216c28 9 64 33 64 72c0 31 -27 55 -69 55c-40 0 -70 -20 -70 -55c0 -41 34 -61 75 -72z" />
    <glyph glyph-name="seven.dnom" horiz-adv-x="303" 
d="M62 0c34 150 96 258 153 335h-180l-11 42h255v-23c-76 -95 -134 -204 -166 -354h-51z" />
    <glyph glyph-name="six.dnom" horiz-adv-x="338" 
d="M178 -8c-70 0 -132 56 -132 181c0 117 67 213 169 213c26 0 46 -4 68 -14l-14 -41c-11 6 -29 12 -53 12c-59 0 -106 -48 -117 -129h2c23 14 52 24 82 24c68 0 119 -45 119 -121c0 -78 -55 -125 -124 -125zM181 35c43 0 72 26 72 80c0 49 -31 80 -76 80
c-28 0 -59 -14 -80 -29c-2 -74 30 -131 84 -131z" />
    <glyph glyph-name="five.dnom" horiz-adv-x="322" 
d="M36 13l14 41c26 -14 50 -19 77 -19c56 0 94 24 94 77c0 32 -14 49 -34 60c-18 9 -41 12 -81 12h-43v193h208l-11 -42h-149v-109h17c35 0 61 -5 82 -14c41 -18 60 -53 60 -98c0 -71 -52 -122 -142 -122c-35 0 -68 8 -92 21z" />
    <glyph glyph-name="four.dnom" 
d="M37 89v35l191 261h40v-254h53v-42h-53v-89h-48v89h-183zM93 131h76h51v48c0 37 0 73 3 129z" />
    <glyph glyph-name="three.dnom" horiz-adv-x="322" 
d="M23 13l14 40c27 -12 56 -18 83 -18c55 0 100 17 100 69c0 26 -15 49 -46 59c-18 6 -33 9 -71 9h-35v43h34c28 0 50 4 66 11c30 14 40 39 40 59c0 42 -34 58 -71 58c-35 0 -61 -10 -86 -22l-17 39c29 15 66 26 106 26c68 0 117 -39 117 -98c0 -45 -27 -76 -70 -90v-2
c51 -10 82 -43 82 -95c0 -57 -44 -109 -149 -109c-30 0 -72 8 -97 21z" />
    <glyph glyph-name="two.dnom" horiz-adv-x="318" 
d="M33 0c11 195 192 192 192 288c0 32 -24 55 -66 55c-35 0 -65 -13 -93 -30l-20 37c35 22 73 36 114 36c74 0 114 -41 114 -99c0 -112 -164 -121 -187 -242h186v-45h-240z" />
    <glyph glyph-name="one.dnom" horiz-adv-x="314" 
d="M176 0v333l-121 -49l-19 37l149 64h39v-385h-48z" />
    <glyph glyph-name="zero.dnom" 
d="M179 -8c-77 0 -133 70 -133 198s57 196 135 196c77 0 134 -70 134 -199c0 -127 -58 -195 -136 -195zM182 35c58 0 84 68 84 150c0 101 -34 158 -87 158c-57 0 -84 -68 -84 -149c0 -101 35 -159 87 -159z" />
    <glyph glyph-name="parenright.numr" horiz-adv-x="244" 
d="M47 255c55 58 83 127 83 214s-28 156 -83 214l30 25c71 -66 102 -150 102 -239s-31 -173 -102 -239z" />
    <glyph glyph-name="parenleft.numr" horiz-adv-x="244" 
d="M167 230c-71 66 -102 150 -102 239s31 173 102 239l30 -25c-55 -58 -83 -127 -83 -214s28 -156 83 -214z" />
    <glyph glyph-name="equal.numr" horiz-adv-x="419" 
d="M55 386v44h309v-44h-309zM55 508v44h309v-44h-309z" />
    <glyph glyph-name="minus.numr" horiz-adv-x="419" 
d="M55 447v44h309v-44h-309z" />
    <glyph glyph-name="plus.numr" horiz-adv-x="419" 
d="M187 307v140h-132v44h132v136h45v-136h132v-44h-132v-140h-45z" />
    <glyph glyph-name="nine.numr" horiz-adv-x="338" 
d="M128 263c-24 0 -53 4 -82 16l14 42c23 -11 44 -15 67 -15c65 0 110 47 116 136h-2c-22 -18 -51 -31 -87 -31c-60 0 -118 35 -118 120c0 73 50 126 121 126c81 0 135 -62 135 -186s-58 -208 -164 -208zM160 454c32 0 66 20 81 41c-1 75 -35 119 -85 119
c-44 0 -71 -33 -71 -79c0 -48 26 -81 75 -81z" />
    <glyph glyph-name="eight.numr" 
d="M177 263c-76 0 -129 38 -129 104c0 54 35 85 75 99v2c-33 15 -63 42 -63 90c0 61 49 99 119 99c69 0 118 -39 118 -99c0 -45 -29 -75 -63 -89v-2c36 -12 78 -38 78 -97c0 -68 -62 -107 -135 -107zM178 306c42 0 85 20 85 65c0 43 -39 63 -91 76c-35 -9 -75 -32 -75 -76
c0 -45 40 -65 81 -65zM184 487c28 9 64 33 64 72c0 31 -27 55 -69 55c-40 0 -70 -20 -70 -55c0 -41 34 -61 75 -72z" />
    <glyph glyph-name="seven.numr" horiz-adv-x="303" 
d="M62 270c34 150 96 258 153 335h-180l-11 42h255v-23c-76 -95 -134 -204 -166 -354h-51z" />
    <glyph glyph-name="six.numr" horiz-adv-x="338" 
d="M178 263c-70 0 -132 56 -132 181c0 117 67 213 169 213c26 0 46 -4 68 -14l-14 -41c-11 6 -29 12 -53 12c-59 0 -106 -48 -117 -129h2c23 14 52 24 82 24c68 0 119 -45 119 -121c0 -78 -55 -125 -124 -125zM181 306c43 0 72 26 72 80c0 49 -31 80 -76 80
c-28 0 -59 -14 -80 -29c-2 -74 30 -131 84 -131z" />
    <glyph glyph-name="five.numr" horiz-adv-x="322" 
d="M36 284l14 41c26 -14 50 -19 77 -19c56 0 94 24 94 77c0 32 -14 49 -34 60c-18 9 -41 12 -81 12h-43v193h208l-11 -42h-149v-109h17c35 0 61 -5 82 -14c41 -18 60 -53 60 -98c0 -71 -52 -122 -142 -122c-35 0 -68 8 -92 21z" />
    <glyph glyph-name="four.numr" 
d="M37 359v35l191 261h40v-254h53v-42h-53v-89h-48v89h-183zM93 401h76h51v48c0 37 0 73 3 129z" />
    <glyph glyph-name="three.numr" horiz-adv-x="322" 
d="M23 284l14 40c27 -12 56 -18 83 -18c55 0 100 17 100 69c0 26 -15 49 -46 59c-18 6 -33 9 -71 9h-35v43h34c28 0 50 4 66 11c30 14 40 39 40 59c0 42 -34 58 -71 58c-35 0 -61 -10 -86 -22l-17 39c29 15 66 26 106 26c68 0 117 -39 117 -98c0 -45 -27 -76 -70 -90v-2
c51 -10 82 -43 82 -95c0 -57 -44 -109 -149 -109c-30 0 -72 8 -97 21z" />
    <glyph glyph-name="two.numr" horiz-adv-x="318" 
d="M33 270c11 195 192 192 192 288c0 32 -24 55 -66 55c-35 0 -65 -13 -93 -30l-20 37c35 22 73 36 114 36c74 0 114 -41 114 -99c0 -112 -164 -121 -187 -242h186v-45h-240z" />
    <glyph glyph-name="one.numr" horiz-adv-x="314" 
d="M176 270v333l-121 -49l-19 37l149 64h39v-385h-48z" />
    <glyph glyph-name="sigma" unicode="&#x3c3;" horiz-adv-x="537" 
d="M370 428v-2c47 -50 77 -113 77 -206c0 -121 -76 -230 -201 -230c-127 0 -200 101 -200 233c0 170 111 250 243 250h254l-19 -48h-70c-22 0 -61 0 -84 3zM102 224c0 -111 52 -186 144 -186c90 0 145 81 145 184c0 91 -39 161 -80 203h-14c-125 0 -195 -77 -195 -201z" />
    <glyph glyph-name="macron.cap" horiz-adv-x="350" 
d="M59 722v46h232v-46h-232z" />
    <glyph glyph-name="breve.cap" horiz-adv-x="350" 
d="M250 822h41c-5 -69 -48 -114 -118 -114s-109 45 -114 114h41c7 -41 28 -71 75 -71s68 30 75 71z" />
    <glyph glyph-name="ring.cap" horiz-adv-x="350" 
d="M175 653c-56 0 -97 37 -97 94s41 94 97 94s97 -37 97 -94s-41 -94 -97 -94zM175 689c32 0 53 23 53 58s-21 58 -53 58s-53 -23 -53 -58s21 -58 53 -58z" />
    <glyph glyph-name="hungarumlaut.cap" horiz-adv-x="350" 
d="M86 696l58 147h67l-81 -147h-44zM241 696l58 147h67l-81 -147h-44z" />
    <glyph glyph-name="dotaccent.cap" horiz-adv-x="350" 
d="M174 723c-23 0 -38 17 -38 40s15 40 38 40c24 0 39 -17 39 -40c0 -24 -16 -40 -39 -40z" />
    <glyph glyph-name="uni0326" unicode="&#x326;" horiz-adv-x="350" 
d="M131 -237l-17 37c59 18 71 46 71 76c0 22 -10 47 -26 72h51c15 -18 25 -49 25 -74c0 -48 -30 -89 -104 -111z" />
    <glyph glyph-name="Alpha" unicode="&#x391;" horiz-adv-x="576" 
d="M25 0l247 661h32l247 -661h-58l-66 182h-278l-66 -182h-58zM167 228h242l-78 216c-22 62 -33 94 -42 119h-2c-8 -25 -20 -57 -42 -119z" />
    <glyph glyph-name="Beta" unicode="&#x392;" horiz-adv-x="528" 
d="M93 0v659h135c139 0 201 -75 201 -167c0 -72 -35 -125 -90 -146v-2c72 -14 130 -75 130 -161c0 -114 -78 -183 -221 -183h-155zM146 46h107c93 0 160 37 160 134c0 82 -61 135 -152 135h-115v-269zM146 361h79c97 0 149 46 149 129c0 72 -41 123 -144 123h-84v-252z" />
    <glyph glyph-name="Gamma" unicode="&#x393;" horiz-adv-x="411" 
d="M93 0v659h308l-20 -46h-235v-613h-53z" />
    <glyph glyph-name="Epsilon" unicode="&#x395;" horiz-adv-x="461" 
d="M93 0v659h298l-20 -46h-225v-252h220v-46h-220v-269h253v-46h-306z" />
    <glyph glyph-name="Zeta" unicode="&#x396;" horiz-adv-x="537" 
d="M64 0l333 613h-320l-16 46h418l-332 -613h355v-46h-438z" />
    <glyph glyph-name="Eta" unicode="&#x397;" horiz-adv-x="673" 
d="M93 0v659h53v-298h381v298h53v-659h-53v315h-381v-315h-53z" />
    <glyph glyph-name="Theta" unicode="&#x398;" horiz-adv-x="738" 
d="M369 -10c-179 0 -316 130 -316 336c0 200 135 338 316 338c184 0 316 -142 316 -338c0 -208 -141 -336 -316 -336zM369 38c158 0 260 119 260 288c0 158 -91 290 -260 290c-158 0 -260 -121 -260 -290s102 -288 260 -288zM543 361v-48h-352v48h352z" />
    <glyph glyph-name="Iota" unicode="&#x399;" horiz-adv-x="239" 
d="M93 0v659h53v-659h-53z" />
    <glyph glyph-name="Kappa" unicode="&#x39a;" horiz-adv-x="508" 
d="M93 0v659h53v-311h2l261 311h66l-279 -329l298 -330h-70l-276 306h-2v-306h-53z" />
    <glyph glyph-name="Lambda" unicode="&#x39b;" horiz-adv-x="576" 
d="M25 0l247 661h32l247 -661h-58l-162 444c-15 42 -33 94 -42 119h-2c-8 -25 -27 -77 -42 -119l-162 -444h-58z" />
    <glyph glyph-name="Mu" unicode="&#x39c;" horiz-adv-x="786" 
d="M93 0v659h51l189 -289c30 -46 47 -72 64 -100h2c17 28 36 59 64 103l179 286h51v-659h-53v446c0 36 0 83 2 122h-2c-16 -30 -35 -61 -48 -82l-178 -286h-31l-191 290c-14 21 -34 51 -46 76h-2c2 -34 2 -85 2 -120v-446h-53z" />
    <glyph glyph-name="Nu" unicode="&#x39d;" horiz-adv-x="710" 
d="M617 0h-41l-330 436c-45 59 -77 105 -100 139h-2c1 -36 2 -60 2 -118v-457h-53v659h49l317 -420c48 -63 82 -112 105 -147h2c-1 36 -2 60 -2 118v449h53v-659z" />
    <glyph glyph-name="Xi" unicode="&#x39e;" horiz-adv-x="519" 
d="M44 0v46h431v-46h-431zM102 315v46h313v-46h-313zM62 613v46h405l-20 -46h-385z" />
    <glyph glyph-name="Omicron" unicode="&#x39f;" horiz-adv-x="738" 
d="M375 -10c-179 0 -316 130 -316 336c0 200 135 338 316 338c184 0 316 -142 316 -338c0 -208 -141 -336 -316 -336zM375 38c158 0 260 119 260 288c0 158 -91 290 -260 290c-158 0 -260 -121 -260 -290s102 -288 260 -288z" />
    <glyph glyph-name="Pi" unicode="&#x3a0;" horiz-adv-x="647" 
d="M93 0v659h461v-659h-53v613h-355v-613h-53z" />
    <glyph glyph-name="Rho" unicode="&#x3a1;" horiz-adv-x="477" 
d="M93 0v659h108c66 0 108 -11 141 -31c56 -34 90 -94 90 -174c0 -77 -33 -143 -103 -178c-32 -16 -73 -26 -133 -26h-50v-250h-53zM146 296h55c47 0 80 9 104 22c48 25 72 72 72 136c0 61 -24 109 -67 135c-25 15 -58 24 -107 24h-57v-317z" />
    <glyph glyph-name="Sigma" unicode="&#x3a3;" horiz-adv-x="495" 
d="M34 0l197 351l-184 308h394l-18 -46h-287l155 -261l-171 -306h316v-46h-402z" />
    <glyph glyph-name="Tau" unicode="&#x3a4;" horiz-adv-x="486" 
d="M215 0v613h-189v46h452l-20 -46h-190v-613h-53z" />
    <glyph glyph-name="Upsilon" unicode="&#x3a5;" horiz-adv-x="542" 
d="M247 0v206c0 108 -73 259 -220 453h63c65 -84 159 -230 183 -325h2c24 101 105 227 179 325h61c-121 -166 -215 -311 -215 -457v-202h-53z" />
    <glyph glyph-name="Phi" unicode="&#x3a6;" horiz-adv-x="733" 
d="M340 -20v64c-172 9 -286 114 -286 282c0 171 117 277 286 287v61h53v-61c169 -10 286 -116 286 -287c0 -168 -114 -273 -286 -282v-64h-53zM340 91v474c-140 -7 -230 -89 -230 -239c0 -141 81 -228 230 -235zM393 91c149 7 230 94 230 235c0 150 -90 232 -230 239v-474z
" />
    <glyph glyph-name="Chi" unicode="&#x3a7;" horiz-adv-x="565" 
d="M29 0l228 332l-216 327h65l187 -285l191 285h64l-222 -326l221 -333h-63l-193 291l-199 -291h-63z" />
    <glyph glyph-name="Psi" unicode="&#x3a8;" horiz-adv-x="703" 
d="M325 0v226c-156 7 -251 87 -251 341c0 28 1 59 3 92h53c-2 -31 -2 -66 -2 -85c0 -224 63 -293 197 -300v385h53v-385c134 7 197 76 197 300c0 19 0 54 -2 85h53c2 -33 3 -64 3 -92c0 -254 -95 -334 -251 -341v-226h-53z" />
    <glyph glyph-name="Alphatonos" unicode="&#x386;" horiz-adv-x="576" 
d="M42 473l41 186h60l-52 -186h-49zM25 0l247 661h32l247 -661h-58l-66 182h-278l-66 -182h-58zM167 228h242l-78 216c-22 62 -33 94 -42 119h-2c-8 -25 -20 -57 -42 -119z" />
    <glyph glyph-name="Epsilontonos" unicode="&#x388;" horiz-adv-x="524" 
d="M4 473l41 186h60l-52 -186h-49zM156 0v659h298l-20 -46h-225v-252h220v-46h-220v-269h253v-46h-306z" />
    <glyph glyph-name="Etatonos" unicode="&#x389;" horiz-adv-x="736" 
d="M4 473l41 186h60l-52 -186h-49zM156 0v659h53v-298h381v298h53v-659h-53v315h-381v-315h-53z" />
    <glyph glyph-name="Iotatonos" unicode="&#x38a;" horiz-adv-x="302" 
d="M156 0v659h53v-659h-53zM4 473l41 186h60l-52 -186h-49z" />
    <glyph glyph-name="Iotadieresis" unicode="&#x3aa;" horiz-adv-x="239" 
d="M93 0v659h53v-659h-53zM33 708c-20 0 -36 16 -36 36s16 36 36 36s36 -16 36 -36s-16 -36 -36 -36zM205 708c-20 0 -36 16 -36 36s16 36 36 36s36 -16 36 -36s-16 -36 -36 -36z" />
    <glyph glyph-name="Omicrontonos" unicode="&#x38c;" horiz-adv-x="795" 
d="M4 473l41 186h60l-52 -186h-49zM426 -10c-179 0 -316 130 -316 336c0 200 135 338 316 338c184 0 316 -142 316 -338c0 -208 -141 -336 -316 -336zM426 38c158 0 260 119 260 288c0 158 -91 290 -260 290c-158 0 -260 -121 -260 -290s102 -288 260 -288z" />
    <glyph glyph-name="Upsilontonos" unicode="&#x38e;" horiz-adv-x="657" 
d="M4 473l41 186h60l-52 -186h-49zM362 0v206c0 108 -73 259 -220 453h63c65 -84 159 -230 183 -325h2c24 101 105 227 179 325h61c-121 -166 -215 -311 -215 -457v-202h-53z" />
    <glyph glyph-name="Upsilondieresis" unicode="&#x3ab;" horiz-adv-x="542" 
d="M247 0v206c0 108 -73 259 -220 453h63c65 -84 159 -230 183 -325h2c24 101 105 227 179 325h61c-121 -166 -215 -311 -215 -457v-202h-53zM188 708c-20 0 -36 16 -36 36s16 36 36 36s36 -16 36 -36s-16 -36 -36 -36zM360 708c-20 0 -36 16 -36 36s16 36 36 36
s36 -16 36 -36s-16 -36 -36 -36z" />
    <glyph glyph-name="Omegatonos" unicode="&#x38f;" horiz-adv-x="780" 
d="M4 473l41 186h60l-52 -186h-49zM114 0v46h72c23 0 70 -2 90 -4v2c-95 63 -166 167 -166 301c0 157 104 319 308 319s308 -162 308 -319c0 -134 -71 -238 -166 -301v-2c20 2 67 4 90 4h72v-46h-244v38c123 69 192 180 192 306c0 134 -80 272 -252 272s-252 -138 -252 -272
c0 -126 69 -237 192 -306v-38h-244z" />
    <glyph glyph-name="alpha" unicode="&#x3b1;" horiz-adv-x="561" 
d="M219 -10c-107 0 -173 110 -173 247c0 133 63 248 174 248c88 0 131 -64 159 -159h2c15 52 32 106 51 152l48 -17c-28 -67 -57 -147 -78 -219c13 -45 24 -82 32 -110c19 -64 30 -88 61 -88c8 0 18 2 26 6l14 -46c-14 -7 -31 -9 -42 -9c-49 0 -72 27 -88 72
c-9 25 -16 55 -25 89h-2c-18 -77 -64 -166 -159 -166zM217 38c81 0 119 103 137 207c-26 103 -62 192 -132 192c-71 0 -120 -87 -120 -200c0 -105 46 -199 115 -199z" />
    <glyph glyph-name="beta" unicode="&#x3b2;" horiz-adv-x="514" 
d="M87 -237v750c0 136 78 195 175 195c120 0 173 -94 173 -176c0 -97 -52 -149 -103 -165v-2c72 -11 131 -79 131 -175c0 -123 -75 -200 -186 -200c-62 0 -107 21 -135 41h-2v-268h-53zM140 88c32 -31 80 -51 133 -51c83 0 134 51 134 151c0 97 -58 155 -168 155
c-6 0 -16 0 -26 -1v48c11 -1 25 -1 30 -1c75 0 136 47 136 140c0 77 -46 132 -118 132c-74 0 -121 -53 -121 -157v-416z" />
    <glyph glyph-name="beta.alt" horiz-adv-x="500" 
d="M259 -10c-129 0 -195 107 -195 297c0 246 82 421 233 421c85 0 136 -61 136 -138s-33 -136 -105 -185v-2c74 -25 126 -86 126 -178c0 -113 -66 -215 -195 -215zM259 37c90 0 138 72 138 166c0 85 -55 132 -122 150c-42 -22 -93 -41 -154 -59c0 -150 38 -257 138 -257z
M122 345c136 40 256 95 256 224c0 51 -25 92 -82 92c-105 0 -163 -135 -174 -316z" />
    <glyph glyph-name="gamma" unicode="&#x3b3;" horiz-adv-x="508" 
d="M273 78h2c45 196 135 343 182 404c14 -11 27 -22 41 -33c-82 -112 -160 -253 -210 -506v-180h-57c0 39 0 104 5 192c-8 294 -66 480 -178 480c-9 0 -16 -1 -21 -2l-10 47c9 3 22 5 34 5c130 0 206 -174 212 -407z" />
    <glyph glyph-name="delta" unicode="&#x3b4;" horiz-adv-x="508" 
d="M237 439v2c-55 40 -102 79 -102 144c0 77 64 123 149 123c66 0 129 -18 172 -38l-19 -45c-40 18 -88 35 -148 36c-54 0 -98 -19 -98 -74c0 -120 271 -153 271 -376c0 -122 -80 -221 -212 -221c-127 0 -204 94 -204 211c0 120 70 203 191 238zM407 208
c0 96 -59 150 -122 197c-118 -21 -183 -96 -183 -203c0 -93 54 -164 147 -164c88 0 158 61 158 170z" />
    <glyph glyph-name="epsilon" unicode="&#x3b5;" horiz-adv-x="411" 
d="M239 -10c-134 0 -188 68 -188 137c0 65 42 107 104 118v2c-59 17 -94 55 -94 110c0 77 65 128 168 128c51 0 102 -11 135 -27v-50c-33 17 -78 29 -130 29c-64 0 -117 -28 -117 -82c0 -38 33 -86 128 -86c7 0 42 0 59 1v-48c-15 1 -43 1 -52 1c-86 0 -145 -30 -145 -92
c0 -64 65 -93 132 -93c61 0 102 16 139 37l21 -40c-36 -22 -86 -45 -160 -45z" />
    <glyph glyph-name="zeta" unicode="&#x3b6;" horiz-adv-x="424" 
d="M307 -148c10 14 42 59 42 90c0 113 -291 36 -291 284c0 212 142 359 256 429v3c-59 -11 -132 -20 -208 -21l-15 47c80 0 220 10 308 24l3 -38c-169 -100 -288 -257 -288 -444c0 -212 291 -121 291 -278c0 -47 -35 -97 -54 -123z" />
    <glyph glyph-name="eta" unicode="&#x3b7;" horiz-adv-x="541" 
d="M114 0v361c0 64 -14 76 -37 76c-9 0 -21 -3 -27 -6l-13 43c15 7 35 11 50 11c48 0 73 -32 77 -76h2c52 45 106 76 167 76c74 0 136 -51 136 -164v-558h-53v539c0 76 -21 134 -91 134c-58 0 -109 -37 -158 -81v-355h-53z" />
    <glyph glyph-name="theta" unicode="&#x3b8;" horiz-adv-x="513" 
d="M256 -10c-134 0 -200 124 -200 359s67 359 201 359s200 -124 200 -359s-67 -359 -201 -359zM256 38c101 0 143 105 145 299h-289c1 -194 43 -299 144 -299zM112 383h288c-4 179 -46 277 -143 277s-140 -98 -145 -277z" />
    <glyph glyph-name="theta.alt" horiz-adv-x="505" 
d="M231 -10c-97 0 -166 60 -166 160c0 36 10 80 10 116c0 35 -8 60 -18 81h56c11 -23 17 -50 17 -79c0 -31 -9 -74 -9 -118c0 -73 42 -112 110 -112c125 0 153 133 153 299c-159 15 -297 69 -297 219c0 84 52 152 146 152c134 0 206 -160 206 -373
c0 -194 -49 -345 -208 -345zM382 388c-9 131 -53 272 -150 272c-45 0 -89 -29 -89 -104c0 -109 98 -154 239 -168z" />
    <glyph glyph-name="iota" unicode="&#x3b9;" horiz-adv-x="228" 
d="M158 -5c-52 0 -84 32 -84 89v389h53v-381c0 -37 17 -49 40 -49c12 0 28 4 34 7l14 -43c-15 -7 -38 -12 -57 -12z" />
    <glyph glyph-name="kappa" unicode="&#x3ba;" horiz-adv-x="508" 
d="M140 0h-53v473h53v-244h2c92 122 233 215 307 251l26 -45c-69 -30 -165 -97 -234 -166l232 -269h-68l-199 233c-25 -27 -47 -55 -66 -84v-149z" />
    <glyph glyph-name="lambda" unicode="&#x3bb;" horiz-adv-x="443" 
d="M25 0l198 471c-52 161 -85 190 -133 190c-16 0 -33 -3 -50 -10l-14 43c21 9 49 14 66 14c90 0 128 -64 184 -233l158 -475h-58l-126 399h-2l-165 -399h-58z" />
    <glyph glyph-name="uni03BC" unicode="&#x3bc;" horiz-adv-x="519" 
d="M365 194v279h53v-337c0 -80 14 -93 42 -93c9 0 23 4 29 7l12 -43c-15 -7 -36 -12 -53 -12c-52 0 -71 42 -72 87h-2c-27 -54 -76 -92 -143 -92c-37 0 -80 16 -105 52h-2c3 -37 3 -91 3 -131v-148h-53v710h53v-321c0 -65 38 -113 106 -113c60 0 132 45 132 155z" />
    <glyph glyph-name="nu" unicode="&#x3bd;" horiz-adv-x="440" 
d="M176 -3l-160 476h56l137 -410h2c78 91 129 179 129 283c0 35 -7 81 -25 127h58c17 -43 23 -89 23 -124c0 -126 -74 -239 -184 -352h-36z" />
    <glyph glyph-name="xi" unicode="&#x3be;" horiz-adv-x="424" 
d="M307 -148c12 16 42 59 42 90c0 107 -278 50 -278 248c0 97 74 143 129 156v2c-47 15 -87 53 -87 116c0 87 67 147 177 190v3c-55 -9 -124 -19 -190 -20l-15 47c80 0 226 10 314 24l3 -38c-133 -53 -233 -111 -233 -200c0 -70 51 -100 147 -100c4 0 15 0 30 1v-45
c-10 1 -21 1 -25 1c-89 0 -194 -29 -194 -135c0 -159 278 -96 278 -244c0 -47 -35 -97 -54 -123z" />
    <glyph glyph-name="omicron" unicode="&#x3bf;" horiz-adv-x="513" 
d="M256 -10c-128 0 -210 110 -210 247c0 138 81 248 211 248c128 0 210 -110 210 -248c0 -137 -81 -247 -211 -247zM256 38c93 0 155 82 155 199c0 118 -62 200 -154 200c-93 0 -155 -82 -155 -200c0 -117 62 -199 154 -199z" />
    <glyph glyph-name="rho" unicode="&#x3c1;" horiz-adv-x="506" 
d="M74 -237v486c0 153 67 236 185 236c120 0 201 -89 201 -245c0 -149 -78 -250 -209 -250c-51 0 -93 18 -122 41h-2v-268h-53zM127 87c36 -32 81 -49 123 -49c104 0 154 87 154 204c0 136 -71 196 -144 196c-95 0 -133 -85 -133 -191v-160z" />
    <glyph glyph-name="onefifth" horiz-adv-x="825" 
d="M157 0l410 659h52l-410 -659h-52zM190 270v333l-121 -49l-19 37l149 64h39v-385h-48zM512 13l14 41c26 -14 50 -19 77 -19c56 0 94 24 94 77c0 32 -14 49 -34 60c-18 9 -41 12 -81 12h-43v193h208l-11 -42h-149v-109h17c35 0 61 -5 82 -14c41 -18 60 -53 60 -98
c0 -71 -52 -122 -142 -122c-35 0 -68 8 -92 21z" />
    <glyph glyph-name="twofifths" horiz-adv-x="825" 
d="M181 0l410 659h52l-410 -659h-52zM46 270c11 195 192 192 192 288c0 32 -24 55 -66 55c-35 0 -65 -13 -93 -30l-20 37c35 22 73 36 114 36c74 0 114 -41 114 -99c0 -112 -164 -121 -187 -242h186v-45h-240zM525 13l14 41c26 -14 50 -19 77 -19c56 0 94 24 94 77
c0 32 -14 49 -34 60c-18 9 -41 12 -81 12h-43v193h208l-11 -42h-149v-109h17c35 0 61 -5 82 -14c41 -18 60 -53 60 -98c0 -71 -52 -122 -142 -122c-35 0 -68 8 -92 21z" />
    <glyph glyph-name="onehalf.afrc" 
d="M168 435v333l-121 -49l-19 37l149 64h39v-385h-48zM55 -180c11 195 192 192 192 288c0 32 -24 55 -66 55c-35 0 -65 -13 -93 -30l-20 37c35 22 73 36 114 36c74 0 114 -41 114 -99c0 -112 -164 -121 -187 -242h186v-45h-240zM0 296v42h360v-42h-360z" />
    <glyph glyph-name="onethird.afrc" 
d="M168 435v333l-121 -49l-19 37l149 64h39v-385h-48zM0 296v42h360v-42h-360zM61 -167l14 40c27 -12 56 -18 83 -18c55 0 100 17 100 69c0 26 -15 49 -46 59c-18 6 -33 9 -71 9h-35v43h34c28 0 50 4 66 11c30 14 40 39 40 59c0 42 -34 58 -71 58c-35 0 -61 -10 -86 -22
l-17 39c29 15 66 26 106 26c68 0 117 -39 117 -98c0 -45 -27 -76 -70 -90v-2c51 -10 82 -43 82 -95c0 -57 -44 -109 -149 -109c-30 0 -72 8 -97 21z" />
    <glyph glyph-name="twothirds.afrc" 
d="M59 435c11 195 192 192 192 288c0 32 -24 55 -66 55c-35 0 -65 -13 -93 -30l-20 37c35 22 73 36 114 36c74 0 114 -41 114 -99c0 -112 -164 -121 -187 -242h186v-45h-240zM0 296v42h360v-42h-360zM61 -167l14 40c27 -12 56 -18 83 -18c55 0 100 17 100 69
c0 26 -15 49 -46 59c-18 6 -33 9 -71 9h-35v43h34c28 0 50 4 66 11c30 14 40 39 40 59c0 42 -34 58 -71 58c-35 0 -61 -10 -86 -22l-17 39c29 15 66 26 106 26c68 0 117 -39 117 -98c0 -45 -27 -76 -70 -90v-2c51 -10 82 -43 82 -95c0 -57 -44 -109 -149 -109
c-30 0 -72 8 -97 21z" />
    <glyph glyph-name="onequarter.afrc" 
d="M189 435v333l-121 -49l-19 37l149 64h39v-385h-48zM37 -91v35l191 261h40v-254h53v-42h-53v-89h-48v89h-183zM93 -49h76h51v48c0 37 0 73 3 129zM0 296v42h360v-42h-360z" />
    <glyph glyph-name="threequarters.afrc" 
d="M37 -91v35l191 261h40v-254h53v-42h-53v-89h-48v89h-183zM93 -49h76h51v48c0 37 0 73 3 129zM0 296v42h360v-42h-360zM57 448l14 40c27 -12 56 -18 83 -18c55 0 100 17 100 69c0 26 -15 49 -46 59c-18 6 -33 9 -71 9h-35v43h34c28 0 50 4 66 11c30 14 40 39 40 59
c0 42 -34 58 -71 58c-35 0 -61 -10 -86 -22l-17 39c29 15 66 26 106 26c68 0 117 -39 117 -98c0 -45 -27 -76 -70 -90v-2c51 -10 82 -43 82 -95c0 -57 -44 -109 -149 -109c-30 0 -72 8 -97 21z" />
    <glyph glyph-name="onefifth.afrc" 
d="M168 435v333l-121 -49l-19 37l149 64h39v-385h-48zM59 -167l14 41c26 -14 50 -19 77 -19c56 0 94 24 94 77c0 32 -14 49 -34 60c-18 9 -41 12 -81 12h-43v193h208l-11 -42h-149v-109h17c35 0 61 -5 82 -14c41 -18 60 -53 60 -98c0 -71 -52 -122 -142 -122
c-35 0 -68 8 -92 21zM0 296v42h360v-42h-360z" />
    <glyph glyph-name="twofifths.afrc" 
d="M59 435c11 195 192 192 192 288c0 32 -24 55 -66 55c-35 0 -65 -13 -93 -30l-20 37c35 22 73 36 114 36c74 0 114 -41 114 -99c0 -112 -164 -121 -187 -242h186v-45h-240zM59 -167l14 41c26 -14 50 -19 77 -19c56 0 94 24 94 77c0 32 -14 49 -34 60c-18 9 -41 12 -81 12
h-43v193h208l-11 -42h-149v-109h17c35 0 61 -5 82 -14c41 -18 60 -53 60 -98c0 -71 -52 -122 -142 -122c-35 0 -68 8 -92 21zM0 296v42h360v-42h-360z" />
    <glyph glyph-name="threefifths.afrc" 
d="M59 -167l14 41c26 -14 50 -19 77 -19c56 0 94 24 94 77c0 32 -14 49 -34 60c-18 9 -41 12 -81 12h-43v193h208l-11 -42h-149v-109h17c35 0 61 -5 82 -14c41 -18 60 -53 60 -98c0 -71 -52 -122 -142 -122c-35 0 -68 8 -92 21zM0 296v42h360v-42h-360zM57 448l14 40
c27 -12 56 -18 83 -18c55 0 100 17 100 69c0 26 -15 49 -46 59c-18 6 -33 9 -71 9h-35v43h34c28 0 50 4 66 11c30 14 40 39 40 59c0 42 -34 58 -71 58c-35 0 -61 -10 -86 -22l-17 39c29 15 66 26 106 26c68 0 117 -39 117 -98c0 -45 -27 -76 -70 -90v-2
c51 -10 82 -43 82 -95c0 -57 -44 -109 -149 -109c-30 0 -72 8 -97 21z" />
    <glyph glyph-name="fourfifths.afrc" 
d="M59 -167l14 41c26 -14 50 -19 77 -19c56 0 94 24 94 77c0 32 -14 49 -34 60c-18 9 -41 12 -81 12h-43v193h208l-11 -42h-149v-109h17c35 0 61 -5 82 -14c41 -18 60 -53 60 -98c0 -71 -52 -122 -142 -122c-35 0 -68 8 -92 21zM31 524v35l191 261h40v-254h53v-42h-53v-89
h-48v89h-183zM87 566h76h51v48c0 37 0 73 3 129zM0 296v42h360v-42h-360z" />
    <glyph glyph-name="onesixth.afrc" 
d="M174 435v333l-121 -49l-19 37l149 64h39v-385h-48zM186 -188c-70 0 -132 56 -132 181c0 117 67 213 169 213c26 0 46 -4 68 -14l-14 -41c-11 6 -29 12 -53 12c-59 0 -106 -48 -117 -129h2c23 14 52 24 82 24c68 0 119 -45 119 -121c0 -78 -55 -125 -124 -125zM189 -145
c43 0 72 26 72 80c0 49 -31 80 -76 80c-28 0 -59 -14 -80 -29c-2 -74 30 -131 84 -131zM0 296v42h360v-42h-360z" />
    <glyph glyph-name="threefifths" horiz-adv-x="825" 
d="M166 0l410 659h52l-410 -659h-52zM512 13l14 41c26 -14 50 -19 77 -19c56 0 94 24 94 77c0 32 -14 49 -34 60c-18 9 -41 12 -81 12h-43v193h208l-11 -42h-149v-109h17c35 0 61 -5 82 -14c41 -18 60 -53 60 -98c0 -71 -52 -122 -142 -122c-35 0 -68 8 -92 21zM44 284
l14 40c27 -12 56 -18 83 -18c55 0 100 17 100 69c0 26 -15 49 -46 59c-18 6 -33 9 -71 9h-35v43h34c28 0 50 4 66 11c30 14 40 39 40 59c0 42 -34 58 -71 58c-35 0 -61 -10 -86 -22l-17 39c29 15 66 26 106 26c68 0 117 -39 117 -98c0 -45 -27 -76 -70 -90v-2
c51 -10 82 -43 82 -95c0 -57 -44 -109 -149 -109c-30 0 -72 8 -97 21z" />
    <glyph glyph-name="fivesixths.afrc" 
d="M186 -188c-70 0 -132 56 -132 181c0 117 67 213 169 213c26 0 46 -4 68 -14l-14 -41c-11 6 -29 12 -53 12c-59 0 -106 -48 -117 -129h2c23 14 52 24 82 24c68 0 119 -45 119 -121c0 -78 -55 -125 -124 -125zM189 -145c43 0 72 26 72 80c0 49 -31 80 -76 80
c-28 0 -59 -14 -80 -29c-2 -74 30 -131 84 -131zM65 448l14 41c26 -14 50 -19 77 -19c56 0 94 24 94 77c0 32 -14 49 -34 60c-18 9 -41 12 -81 12h-43v193h208l-11 -42h-149v-109h17c35 0 61 -5 82 -14c41 -18 60 -53 60 -98c0 -71 -52 -122 -142 -122c-35 0 -68 8 -92 21z
M0 296v42h360v-42h-360z" />
    <glyph glyph-name="fourfifths" horiz-adv-x="825" 
d="M189 0l410 659h52l-410 -659h-52zM512 13l14 41c26 -14 50 -19 77 -19c56 0 94 24 94 77c0 32 -14 49 -34 60c-18 9 -41 12 -81 12h-43v193h208l-11 -42h-149v-109h17c35 0 61 -5 82 -14c41 -18 60 -53 60 -98c0 -71 -52 -122 -142 -122c-35 0 -68 8 -92 21zM37 359v35
l191 261h40v-254h53v-42h-53v-89h-48v89h-183zM93 401h76h51v48c0 37 0 73 3 129z" />
    <glyph glyph-name="onesixth" horiz-adv-x="825" 
d="M157 0l410 659h52l-410 -659h-52zM190 270v333l-121 -49l-19 37l149 64h39v-385h-48zM621 -8c-70 0 -132 56 -132 181c0 117 67 213 169 213c26 0 46 -4 68 -14l-14 -41c-11 6 -29 12 -53 12c-59 0 -106 -48 -117 -129h2c23 14 52 24 82 24c68 0 119 -45 119 -121
c0 -78 -55 -125 -124 -125zM624 35c43 0 72 26 72 80c0 49 -31 80 -76 80c-28 0 -59 -14 -80 -29c-2 -74 30 -131 84 -131z" />
    <glyph glyph-name="oneeighth.afrc" 
d="M168 435v333l-121 -49l-19 37l149 64h39v-385h-48zM177 -188c-76 0 -129 38 -129 104c0 54 35 85 75 99v2c-33 15 -63 42 -63 90c0 61 49 99 119 99c69 0 118 -39 118 -99c0 -45 -29 -75 -63 -89v-2c36 -12 78 -38 78 -97c0 -68 -62 -107 -135 -107zM178 -145
c42 0 85 20 85 65c0 43 -39 63 -91 76c-35 -9 -75 -32 -75 -76c0 -45 40 -65 81 -65zM184 36c28 9 64 33 64 72c0 31 -27 55 -69 55c-40 0 -70 -20 -70 -55c0 -41 34 -61 75 -72zM0 296v42h360v-42h-360z" />
    <glyph glyph-name="threeeighths.afrc" 
d="M177 -188c-76 0 -129 38 -129 104c0 54 35 85 75 99v2c-33 15 -63 42 -63 90c0 61 49 99 119 99c69 0 118 -39 118 -99c0 -45 -29 -75 -63 -89v-2c36 -12 78 -38 78 -97c0 -68 -62 -107 -135 -107zM178 -145c42 0 85 20 85 65c0 43 -39 63 -91 76c-35 -9 -75 -32 -75 -76
c0 -45 40 -65 81 -65zM184 36c28 9 64 33 64 72c0 31 -27 55 -69 55c-40 0 -70 -20 -70 -55c0 -41 34 -61 75 -72zM0 296v42h360v-42h-360zM57 448l14 40c27 -12 56 -18 83 -18c55 0 100 17 100 69c0 26 -15 49 -46 59c-18 6 -33 9 -71 9h-35v43h34c28 0 50 4 66 11
c30 14 40 39 40 59c0 42 -34 58 -71 58c-35 0 -61 -10 -86 -22l-17 39c29 15 66 26 106 26c68 0 117 -39 117 -98c0 -45 -27 -76 -70 -90v-2c51 -10 82 -43 82 -95c0 -57 -44 -109 -149 -109c-30 0 -72 8 -97 21z" />
    <glyph glyph-name="fiveeighths.afrc" 
d="M61 448l14 41c26 -14 50 -19 77 -19c56 0 94 24 94 77c0 32 -14 49 -34 60c-18 9 -41 12 -81 12h-43v193h208l-11 -42h-149v-109h17c35 0 61 -5 82 -14c41 -18 60 -53 60 -98c0 -71 -52 -122 -142 -122c-35 0 -68 8 -92 21zM177 -188c-76 0 -129 38 -129 104
c0 54 35 85 75 99v2c-33 15 -63 42 -63 90c0 61 49 99 119 99c69 0 118 -39 118 -99c0 -45 -29 -75 -63 -89v-2c36 -12 78 -38 78 -97c0 -68 -62 -107 -135 -107zM178 -145c42 0 85 20 85 65c0 43 -39 63 -91 76c-35 -9 -75 -32 -75 -76c0 -45 40 -65 81 -65zM184 36
c28 9 64 33 64 72c0 31 -27 55 -69 55c-40 0 -70 -20 -70 -55c0 -41 34 -61 75 -72zM0 296v42h360v-42h-360z" />
    <glyph glyph-name="seveneighths.afrc" 
d="M177 -188c-76 0 -129 38 -129 104c0 54 35 85 75 99v2c-33 15 -63 42 -63 90c0 61 49 99 119 99c69 0 118 -39 118 -99c0 -45 -29 -75 -63 -89v-2c36 -12 78 -38 78 -97c0 -68 -62 -107 -135 -107zM178 -145c42 0 85 20 85 65c0 43 -39 63 -91 76c-35 -9 -75 -32 -75 -76
c0 -45 40 -65 81 -65zM184 36c28 9 64 33 64 72c0 31 -27 55 -69 55c-40 0 -70 -20 -70 -55c0 -41 34 -61 75 -72zM0 296v42h360v-42h-360zM105 435c34 150 96 258 153 335h-180l-11 42h255v-23c-76 -95 -134 -204 -166 -354h-51z" />
    <glyph glyph-name="notequal" unicode="&#x2260;" horiz-adv-x="511" 
d="M129 45l53 109h-164v47h187l53 108h-240v47h263l51 103h52l-51 -103h160v-47h-183l-53 -108h236v-47h-259l-53 -109h-52z" />
    <glyph glyph-name="approxequal" unicode="&#x2248;" horiz-adv-x="511" 
d="M62 143l-33 30c41 43 76 62 118 62c66 0 164 -63 218 -63c33 0 53 16 84 45l33 -30c-41 -43 -76 -62 -118 -62c-62 0 -168 63 -218 63c-33 0 -53 -16 -84 -45zM62 298l-33 30c41 43 76 62 118 62c66 0 164 -63 218 -63c33 0 53 16 84 45l33 -30c-41 -43 -76 -62 -118 -62
c-62 0 -168 63 -218 63c-33 0 -53 -16 -84 -45z" />
    <glyph glyph-name="lessequal" unicode="&#x2264;" horiz-adv-x="511" 
d="M42 265v52l414 163v-51l-354 -137v-2l354 -137v-51zM18 0v47h475v-47h-475z" />
    <glyph glyph-name="greaterequal" unicode="&#x2265;" horiz-adv-x="511" 
d="M56 102v51l354 137v2l-354 137v51l414 -163v-52zM19 0v47h475v-47h-475z" />
    <glyph glyph-name="lozenge" unicode="&#x25ca;" horiz-adv-x="467" 
d="M205 0l-143 289l143 289h58l143 -289l-143 -289h-58zM234 48h2l116 241l-117 241h-2l-117 -241z" />
    <glyph glyph-name="infinity" unicode="&#x221e;" horiz-adv-x="768" 
d="M189 104c-97 0 -159 74 -159 160s62 160 159 160c83 0 140 -59 193 -122c51 63 108 122 197 122c97 0 159 -74 159 -160s-62 -160 -159 -160c-89 0 -146 58 -197 121c-53 -63 -110 -121 -193 -121zM191 153c67 0 114 52 161 111c-47 59 -94 111 -161 111
c-64 0 -106 -44 -106 -111s42 -111 106 -111zM577 153c64 0 106 44 106 111s-42 111 -106 111c-66 0 -114 -53 -163 -111c49 -59 97 -111 163 -111z" />
    <glyph glyph-name="partialdiff" unicode="&#x2202;" horiz-adv-x="495" 
d="M201 -10c-102 0 -171 76 -171 192c0 128 91 232 232 232c42 0 92 -9 135 -34l1 1c-9 140 -77 236 -188 236c-44 0 -83 -10 -128 -31l-18 40c49 27 109 38 147 38c167 0 244 -136 244 -311c0 -222 -107 -363 -254 -363zM206 38c98 0 187 101 193 292
c-49 28 -97 36 -133 36c-112 0 -180 -73 -180 -184c0 -90 49 -144 120 -144z" />
    <glyph glyph-name="fivesixths" horiz-adv-x="825" 
d="M177 0l410 659h52l-410 -659h-52zM635 -8c-70 0 -132 56 -132 181c0 117 67 213 169 213c26 0 46 -4 68 -14l-14 -41c-11 6 -29 12 -53 12c-59 0 -106 -48 -117 -129h2c23 14 52 24 82 24c68 0 119 -45 119 -121c0 -78 -55 -125 -124 -125zM638 35c43 0 72 26 72 80
c0 49 -31 80 -76 80c-28 0 -59 -14 -80 -29c-2 -74 30 -131 84 -131zM56 284l14 41c26 -14 50 -19 77 -19c56 0 94 24 94 77c0 32 -14 49 -34 60c-18 9 -41 12 -81 12h-43v193h208l-11 -42h-149v-109h17c35 0 61 -5 82 -14c41 -18 60 -53 60 -98c0 -71 -52 -122 -142 -122
c-35 0 -68 8 -92 21z" />
    <glyph glyph-name="integral" unicode="&#x222b;" horiz-adv-x="291" 
d="M-33 -225l12 45c14 -6 30 -10 49 -10c51 0 73 34 73 94v659c0 119 74 145 126 145c19 0 43 -4 61 -12l-12 -45c-14 6 -30 10 -49 10c-51 0 -73 -34 -73 -94v-659c0 -119 -74 -145 -126 -145c-19 0 -43 4 -61 12z" />
    <glyph glyph-name="radical" unicode="&#x221a;" horiz-adv-x="641" 
d="M320 -122l-161 460l-85 -34l-17 44l138 56l116 -344c15 -46 27 -88 38 -125h2c9 36 21 85 30 120l211 772h54l-261 -949h-65z" />
    <glyph glyph-name="Delta" unicode="&#x2206;" horiz-adv-x="594" 
d="M24 0l252 661h41l253 -661h-546zM271 508l-173 -462h396l-171 461c-13 34 -20 60 -25 82h-1c-6 -24 -14 -48 -26 -81z" />
    <glyph glyph-name="uni03A9" unicode="&#x3a9;" horiz-adv-x="724" 
d="M422 0v38c123 69 192 180 192 306c0 134 -80 272 -252 272s-252 -138 -252 -272c0 -126 69 -237 192 -306v-38h-244v46h72c23 0 70 -2 90 -4v2c-95 63 -166 167 -166 301c0 157 104 319 308 319s308 -162 308 -319c0 -134 -71 -238 -166 -301v-2c20 2 67 4 90 4h72v-46
h-244z" />
    <glyph glyph-name="product" unicode="&#x220f;" horiz-adv-x="613" 
d="M110 -180v793h-88v46h585l-18 -46h-88v-793h-53v793h-285v-793h-53z" />
    <glyph glyph-name="summation" unicode="&#x2211;" horiz-adv-x="558" 
d="M29 -180l263 429l-247 410h490l-18 -46h-382l219 -363l-235 -384h411v-46h-501z" />
    <glyph glyph-name="pi" unicode="&#x3c0;" horiz-adv-x="552" 
d="M111 0v427h-82v46h495l-18 -46h-83v-335c0 -31 9 -49 36 -49c6 0 12 1 19 3l10 -45c-12 -4 -27 -6 -41 -6c-59 0 -77 39 -77 82v350h-206v-427h-53z" />
    <glyph glyph-name="afii61352" unicode="&#x2116;" horiz-adv-x="1030" 
d="M89 0v659h49l263 -393c32 -47 72 -109 105 -162h2c-1 36 -2 62 -2 120v435h53v-659h-41l-276 409c-33 49 -71 108 -100 154h-2c1 -36 2 -62 2 -120v-443h-53zM657 143v43h299v-43h-299zM806 263c-93 0 -153 78 -153 174s60 174 154 174c93 0 153 -78 153 -174
s-59 -174 -154 -174zM806 307c63 0 105 54 105 130s-42 130 -104 130c-63 0 -104 -54 -104 -130s41 -130 103 -130z" />
    <glyph glyph-name="estimated" unicode="&#x212e;" horiz-adv-x="754" 
d="M590 119h90c-68 -85 -170 -129 -304 -129c-185 0 -351 114 -351 311c0 199 166 310 355 310c237 0 352 -163 348 -326h-556v-160c43 -63 124 -97 209 -97c90 0 159 30 209 91zM172 324h414v152c-44 63 -115 97 -206 97c-92 0 -163 -34 -208 -97v-152z" />
    </font>
</defs>
</svg>
